<mxfile host="Electron" agent="Mozilla/5.0 (X11; Linux x86_64) AppleWebKit/537.36 (KHTML, like Gecko) draw.io/24.7.8 Chrome/128.0.6613.36 Electron/32.0.1 Safari/537.36" version="24.7.8">
  <diagram name="Page-1" id="SWcwMpiS_tSYsjk5WCd9">
    <mxGraphModel dx="6354" dy="4642" grid="1" gridSize="10" guides="1" tooltips="1" connect="1" arrows="1" fold="1" page="1" pageScale="1" pageWidth="1169" pageHeight="1654" math="0" shadow="0">
      <root>
        <mxCell id="0" />
        <mxCell id="1" parent="0" />
        <mxCell id="8Se8d8TxG7XIVdDQDwcc-89" value="" style="rounded=0;whiteSpace=wrap;html=1;fontFamily=Helvetica;fontSize=11;labelBackgroundColor=default;fillColor=#cdeb8b;fillStyle=solid;opacity=10;strokeColor=#36393d;" parent="1" vertex="1">
          <mxGeometry x="-310" y="200" width="450" height="640" as="geometry" />
        </mxCell>
        <mxCell id="8Se8d8TxG7XIVdDQDwcc-88" value="" style="rounded=0;whiteSpace=wrap;html=1;fontFamily=Helvetica;fontSize=11;labelBackgroundColor=default;fillColor=#cdeb8b;fillStyle=solid;opacity=10;strokeColor=#36393d;" parent="1" vertex="1">
          <mxGeometry x="250" y="150" width="1140" height="900" as="geometry" />
        </mxCell>
        <mxCell id="iwcDW4btiEjeqznmIjvd-136" value="&lt;div style=&quot;font-size: 18px;&quot;&gt;MOISTURE SENSOR 2&amp;nbsp;&lt;/div&gt;" style="rounded=0;whiteSpace=wrap;html=1;fontFamily=Helvetica;fontSize=11;labelBackgroundColor=default;align=right;fillColor=#b0e3e6;strokeColor=#0e8088;" parent="1" vertex="1">
          <mxGeometry x="980" y="660" width="380" height="60" as="geometry" />
        </mxCell>
        <mxCell id="iwcDW4btiEjeqznmIjvd-133" value="&lt;div style=&quot;font-size: 18px;&quot;&gt;MOISTURE SENSOR 1&amp;nbsp;&amp;nbsp;&lt;/div&gt;" style="rounded=0;whiteSpace=wrap;html=1;fontFamily=Helvetica;fontSize=11;labelBackgroundColor=default;align=right;fillColor=#b0e3e6;strokeColor=#0e8088;" parent="1" vertex="1">
          <mxGeometry x="980" y="740" width="380" height="60" as="geometry" />
        </mxCell>
        <mxCell id="iwcDW4btiEjeqznmIjvd-113" value="" style="rounded=0;whiteSpace=wrap;html=1;fontFamily=Helvetica;fontSize=11;labelBackgroundColor=default;align=left;fillColor=#b1ddf0;strokeColor=#10739e;" parent="1" vertex="1">
          <mxGeometry x="920" y="460" width="240" height="90" as="geometry" />
        </mxCell>
        <mxCell id="iwcDW4btiEjeqznmIjvd-114" value="&lt;div style=&quot;font-size: 18px;&quot;&gt;&lt;br&gt;&lt;/div&gt;" style="rounded=0;whiteSpace=wrap;html=1;fontFamily=Helvetica;fontSize=11;labelBackgroundColor=default;fillColor=#b1ddf0;strokeColor=#10739e;" parent="1" vertex="1">
          <mxGeometry x="560" y="280" width="600" height="120" as="geometry" />
        </mxCell>
        <mxCell id="vi9AejaFBc3eNM1fVHRH-1" value="" style="shape=stencil(tZTRDoIgFIafhtsGsrpvVO9xwlOyFBxS5tt3DNvStLWmGzfn/+E7/wYHJlWVQYks4RYKZHLHksRjDo3Y6AysxZwEcrNoCc5jXQ9qqErUIYo38AaOOUanCt5dsDZp6BjGZuhNaF25Z3xLe9ollXbUTwfjbNVz3nyCgbF0lt8jrGvf9KqS+AUG9F3IqLLk8Dt2tV4GLBbK28e+0s+edz5wP7FY6uJmA4v/sVKRMvW4pTqCvpy9u9p0NIxv5+r7ex8O43BYRwNNtJXq5DyOGnTow3uq8Qt5Cg8=);whiteSpace=wrap;html=1;" parent="1" vertex="1">
          <mxGeometry x="20" y="20" width="120" height="120" as="geometry" />
        </mxCell>
        <mxCell id="vi9AejaFBc3eNM1fVHRH-44" value="&lt;font style=&quot;font-size: 18px;&quot;&gt;Relay Card 8 Channel&lt;/font&gt;" style="rounded=0;whiteSpace=wrap;html=1;fillColor=#b1ddf0;strokeColor=#10739e;" parent="1" vertex="1">
          <mxGeometry x="240" y="1150" width="1120" height="180" as="geometry" />
        </mxCell>
        <mxCell id="vi9AejaFBc3eNM1fVHRH-41" value="" style="group" parent="1" vertex="1" connectable="0">
          <mxGeometry x="600" y="1160" width="400" height="30" as="geometry" />
        </mxCell>
        <mxCell id="vi9AejaFBc3eNM1fVHRH-31" value="VCC" style="text;strokeColor=default;align=center;fillColor=none;html=1;verticalAlign=middle;whiteSpace=wrap;rounded=0;" parent="vi9AejaFBc3eNM1fVHRH-41" vertex="1">
          <mxGeometry width="40" height="30" as="geometry" />
        </mxCell>
        <mxCell id="vi9AejaFBc3eNM1fVHRH-32" value="IN8" style="text;strokeColor=default;align=center;fillColor=none;html=1;verticalAlign=middle;whiteSpace=wrap;rounded=0;" parent="vi9AejaFBc3eNM1fVHRH-41" vertex="1">
          <mxGeometry x="40" width="40" height="30" as="geometry" />
        </mxCell>
        <mxCell id="vi9AejaFBc3eNM1fVHRH-33" value="IN7" style="text;strokeColor=default;align=center;fillColor=none;html=1;verticalAlign=middle;whiteSpace=wrap;rounded=0;" parent="vi9AejaFBc3eNM1fVHRH-41" vertex="1">
          <mxGeometry x="80" width="40" height="30" as="geometry" />
        </mxCell>
        <mxCell id="vi9AejaFBc3eNM1fVHRH-34" value="IN6" style="text;strokeColor=default;align=center;fillColor=none;html=1;verticalAlign=middle;whiteSpace=wrap;rounded=0;" parent="vi9AejaFBc3eNM1fVHRH-41" vertex="1">
          <mxGeometry x="120" width="40" height="30" as="geometry" />
        </mxCell>
        <mxCell id="vi9AejaFBc3eNM1fVHRH-35" value="IN5" style="text;strokeColor=default;align=center;fillColor=none;html=1;verticalAlign=middle;whiteSpace=wrap;rounded=0;" parent="vi9AejaFBc3eNM1fVHRH-41" vertex="1">
          <mxGeometry x="160" width="40" height="30" as="geometry" />
        </mxCell>
        <mxCell id="vi9AejaFBc3eNM1fVHRH-36" value="IN4" style="text;strokeColor=default;align=center;fillColor=none;html=1;verticalAlign=middle;whiteSpace=wrap;rounded=0;" parent="vi9AejaFBc3eNM1fVHRH-41" vertex="1">
          <mxGeometry x="200" width="40" height="30" as="geometry" />
        </mxCell>
        <mxCell id="vi9AejaFBc3eNM1fVHRH-37" value="IN3" style="text;strokeColor=default;align=center;fillColor=none;html=1;verticalAlign=middle;whiteSpace=wrap;rounded=0;" parent="vi9AejaFBc3eNM1fVHRH-41" vertex="1">
          <mxGeometry x="240" width="40" height="30" as="geometry" />
        </mxCell>
        <mxCell id="vi9AejaFBc3eNM1fVHRH-38" value="IN2" style="text;strokeColor=default;align=center;fillColor=none;html=1;verticalAlign=middle;whiteSpace=wrap;rounded=0;" parent="vi9AejaFBc3eNM1fVHRH-41" vertex="1">
          <mxGeometry x="280" width="40" height="30" as="geometry" />
        </mxCell>
        <mxCell id="vi9AejaFBc3eNM1fVHRH-39" value="IN1" style="text;strokeColor=default;align=center;fillColor=none;html=1;verticalAlign=middle;whiteSpace=wrap;rounded=0;" parent="vi9AejaFBc3eNM1fVHRH-41" vertex="1">
          <mxGeometry x="320" width="40" height="30" as="geometry" />
        </mxCell>
        <mxCell id="vi9AejaFBc3eNM1fVHRH-40" value="GND" style="text;strokeColor=default;align=center;fillColor=none;html=1;verticalAlign=middle;whiteSpace=wrap;rounded=0;" parent="vi9AejaFBc3eNM1fVHRH-41" vertex="1">
          <mxGeometry x="360" width="40" height="30" as="geometry" />
        </mxCell>
        <mxCell id="vi9AejaFBc3eNM1fVHRH-42" value="" style="group" parent="1" vertex="1" connectable="0">
          <mxGeometry x="250" y="1290" width="1100" height="30" as="geometry" />
        </mxCell>
        <mxCell id="vi9AejaFBc3eNM1fVHRH-7" value="NO" style="text;strokeColor=default;align=center;fillColor=none;html=1;verticalAlign=middle;whiteSpace=wrap;rounded=0;" parent="vi9AejaFBc3eNM1fVHRH-42" vertex="1">
          <mxGeometry width="40" height="30" as="geometry" />
        </mxCell>
        <mxCell id="vi9AejaFBc3eNM1fVHRH-8" value="C" style="text;strokeColor=default;align=center;fillColor=none;html=1;verticalAlign=middle;whiteSpace=wrap;rounded=0;" parent="vi9AejaFBc3eNM1fVHRH-42" vertex="1">
          <mxGeometry x="40" width="40" height="30" as="geometry" />
        </mxCell>
        <mxCell id="vi9AejaFBc3eNM1fVHRH-9" value="NC" style="text;strokeColor=default;align=center;fillColor=none;html=1;verticalAlign=middle;whiteSpace=wrap;rounded=0;" parent="vi9AejaFBc3eNM1fVHRH-42" vertex="1">
          <mxGeometry x="80" width="40" height="30" as="geometry" />
        </mxCell>
        <mxCell id="vi9AejaFBc3eNM1fVHRH-10" value="NO" style="text;strokeColor=default;align=center;fillColor=none;html=1;verticalAlign=middle;whiteSpace=wrap;rounded=0;" parent="vi9AejaFBc3eNM1fVHRH-42" vertex="1">
          <mxGeometry x="140" width="40" height="30" as="geometry" />
        </mxCell>
        <mxCell id="vi9AejaFBc3eNM1fVHRH-11" value="C" style="text;strokeColor=default;align=center;fillColor=none;html=1;verticalAlign=middle;whiteSpace=wrap;rounded=0;" parent="vi9AejaFBc3eNM1fVHRH-42" vertex="1">
          <mxGeometry x="180" width="40" height="30" as="geometry" />
        </mxCell>
        <mxCell id="vi9AejaFBc3eNM1fVHRH-12" value="NC" style="text;strokeColor=default;align=center;fillColor=none;html=1;verticalAlign=middle;whiteSpace=wrap;rounded=0;" parent="vi9AejaFBc3eNM1fVHRH-42" vertex="1">
          <mxGeometry x="220" width="40" height="30" as="geometry" />
        </mxCell>
        <mxCell id="vi9AejaFBc3eNM1fVHRH-13" value="NO" style="text;strokeColor=default;align=center;fillColor=none;html=1;verticalAlign=middle;whiteSpace=wrap;rounded=0;" parent="vi9AejaFBc3eNM1fVHRH-42" vertex="1">
          <mxGeometry x="280" width="40" height="30" as="geometry" />
        </mxCell>
        <mxCell id="vi9AejaFBc3eNM1fVHRH-14" value="C" style="text;strokeColor=default;align=center;fillColor=none;html=1;verticalAlign=middle;whiteSpace=wrap;rounded=0;" parent="vi9AejaFBc3eNM1fVHRH-42" vertex="1">
          <mxGeometry x="320" width="40" height="30" as="geometry" />
        </mxCell>
        <mxCell id="vi9AejaFBc3eNM1fVHRH-15" value="NC" style="text;strokeColor=default;align=center;fillColor=none;html=1;verticalAlign=middle;whiteSpace=wrap;rounded=0;" parent="vi9AejaFBc3eNM1fVHRH-42" vertex="1">
          <mxGeometry x="360" width="40" height="30" as="geometry" />
        </mxCell>
        <mxCell id="vi9AejaFBc3eNM1fVHRH-16" value="NO" style="text;strokeColor=default;align=center;fillColor=none;html=1;verticalAlign=middle;whiteSpace=wrap;rounded=0;" parent="vi9AejaFBc3eNM1fVHRH-42" vertex="1">
          <mxGeometry x="420" width="40" height="30" as="geometry" />
        </mxCell>
        <mxCell id="vi9AejaFBc3eNM1fVHRH-17" value="C" style="text;strokeColor=default;align=center;fillColor=none;html=1;verticalAlign=middle;whiteSpace=wrap;rounded=0;" parent="vi9AejaFBc3eNM1fVHRH-42" vertex="1">
          <mxGeometry x="460" width="40" height="30" as="geometry" />
        </mxCell>
        <mxCell id="vi9AejaFBc3eNM1fVHRH-18" value="NC" style="text;strokeColor=default;align=center;fillColor=none;html=1;verticalAlign=middle;whiteSpace=wrap;rounded=0;" parent="vi9AejaFBc3eNM1fVHRH-42" vertex="1">
          <mxGeometry x="500" width="40" height="30" as="geometry" />
        </mxCell>
        <mxCell id="vi9AejaFBc3eNM1fVHRH-19" value="NO" style="text;strokeColor=default;align=center;fillColor=none;html=1;verticalAlign=middle;whiteSpace=wrap;rounded=0;" parent="vi9AejaFBc3eNM1fVHRH-42" vertex="1">
          <mxGeometry x="560" width="40" height="30" as="geometry" />
        </mxCell>
        <mxCell id="vi9AejaFBc3eNM1fVHRH-20" value="C" style="text;strokeColor=default;align=center;fillColor=none;html=1;verticalAlign=middle;whiteSpace=wrap;rounded=0;" parent="vi9AejaFBc3eNM1fVHRH-42" vertex="1">
          <mxGeometry x="600" width="40" height="30" as="geometry" />
        </mxCell>
        <mxCell id="vi9AejaFBc3eNM1fVHRH-21" value="NC" style="text;strokeColor=default;align=center;fillColor=none;html=1;verticalAlign=middle;whiteSpace=wrap;rounded=0;" parent="vi9AejaFBc3eNM1fVHRH-42" vertex="1">
          <mxGeometry x="640" width="40" height="30" as="geometry" />
        </mxCell>
        <mxCell id="vi9AejaFBc3eNM1fVHRH-22" value="NO" style="text;strokeColor=default;align=center;fillColor=none;html=1;verticalAlign=middle;whiteSpace=wrap;rounded=0;" parent="vi9AejaFBc3eNM1fVHRH-42" vertex="1">
          <mxGeometry x="700" width="40" height="30" as="geometry" />
        </mxCell>
        <mxCell id="vi9AejaFBc3eNM1fVHRH-23" value="C" style="text;strokeColor=default;align=center;fillColor=none;html=1;verticalAlign=middle;whiteSpace=wrap;rounded=0;" parent="vi9AejaFBc3eNM1fVHRH-42" vertex="1">
          <mxGeometry x="740" width="40" height="30" as="geometry" />
        </mxCell>
        <mxCell id="vi9AejaFBc3eNM1fVHRH-24" value="NC" style="text;strokeColor=default;align=center;fillColor=none;html=1;verticalAlign=middle;whiteSpace=wrap;rounded=0;" parent="vi9AejaFBc3eNM1fVHRH-42" vertex="1">
          <mxGeometry x="780" width="40" height="30" as="geometry" />
        </mxCell>
        <mxCell id="vi9AejaFBc3eNM1fVHRH-25" value="NO" style="text;strokeColor=default;align=center;fillColor=none;html=1;verticalAlign=middle;whiteSpace=wrap;rounded=0;" parent="vi9AejaFBc3eNM1fVHRH-42" vertex="1">
          <mxGeometry x="840" width="40" height="30" as="geometry" />
        </mxCell>
        <mxCell id="vi9AejaFBc3eNM1fVHRH-26" value="C" style="text;strokeColor=default;align=center;fillColor=none;html=1;verticalAlign=middle;whiteSpace=wrap;rounded=0;" parent="vi9AejaFBc3eNM1fVHRH-42" vertex="1">
          <mxGeometry x="880" width="40" height="30" as="geometry" />
        </mxCell>
        <mxCell id="vi9AejaFBc3eNM1fVHRH-27" value="NC" style="text;strokeColor=default;align=center;fillColor=none;html=1;verticalAlign=middle;whiteSpace=wrap;rounded=0;" parent="vi9AejaFBc3eNM1fVHRH-42" vertex="1">
          <mxGeometry x="920" width="40" height="30" as="geometry" />
        </mxCell>
        <mxCell id="vi9AejaFBc3eNM1fVHRH-28" value="NO" style="text;strokeColor=default;align=center;fillColor=none;html=1;verticalAlign=middle;whiteSpace=wrap;rounded=0;" parent="vi9AejaFBc3eNM1fVHRH-42" vertex="1">
          <mxGeometry x="980" width="40" height="30" as="geometry" />
        </mxCell>
        <mxCell id="vi9AejaFBc3eNM1fVHRH-29" value="C" style="text;strokeColor=default;align=center;fillColor=none;html=1;verticalAlign=middle;whiteSpace=wrap;rounded=0;" parent="vi9AejaFBc3eNM1fVHRH-42" vertex="1">
          <mxGeometry x="1020" width="40" height="30" as="geometry" />
        </mxCell>
        <mxCell id="vi9AejaFBc3eNM1fVHRH-30" value="NC" style="text;strokeColor=default;align=center;fillColor=none;html=1;verticalAlign=middle;whiteSpace=wrap;rounded=0;" parent="vi9AejaFBc3eNM1fVHRH-42" vertex="1">
          <mxGeometry x="1060" width="40" height="30" as="geometry" />
        </mxCell>
        <mxCell id="vi9AejaFBc3eNM1fVHRH-77" value="5V" style="shape=stencil(rZPBDoIwDIafZve5Ee8G9T3KqLIwNjKmyNs7qDESmAdCwqX/R7+ypTCZdxW0yAS30CCTZyaERwPD4agqsBZNDCKtCGVU9bMKuhZVoOgJXkNhkEgXvKux12X49GtboddhpPLC+Cm+Mz4yVy7OUkE7283ID48y0Db28hfJBA0ZqOJUtdHfYEBP6YFSJq4btdleWj7Tir202XatzGOSuniZF6Dqu3cPWy67kuzmPK6AL9bG0FL8OaYftylxb3xtAefLmdIm504nWnz4lNLPMQVv);whiteSpace=wrap;html=1;points=[[0,0.5,0,0,0],[0.5,0,0,0,0],[0.5,1,0,0,0],[1,0.5,0,0,0]];" parent="1" vertex="1">
          <mxGeometry x="1129" width="40" height="40" as="geometry" />
        </mxCell>
        <mxCell id="vi9AejaFBc3eNM1fVHRH-79" value="" style="verticalLabelPosition=bottom;shadow=0;dashed=0;align=center;html=1;verticalAlign=top;shape=mxgraph.electrical.logic_gates.buffer2;direction=south;" parent="1" vertex="1">
          <mxGeometry x="599" y="880" width="60" height="100" as="geometry" />
        </mxCell>
        <mxCell id="vi9AejaFBc3eNM1fVHRH-80" value="" style="verticalLabelPosition=bottom;shadow=0;dashed=0;align=center;html=1;verticalAlign=top;shape=mxgraph.electrical.logic_gates.buffer2;direction=south;" parent="1" vertex="1">
          <mxGeometry x="669" y="880" width="60" height="100" as="geometry" />
        </mxCell>
        <mxCell id="vi9AejaFBc3eNM1fVHRH-81" value="" style="verticalLabelPosition=bottom;shadow=0;dashed=0;align=center;html=1;verticalAlign=top;shape=mxgraph.electrical.logic_gates.buffer2;direction=south;" parent="1" vertex="1">
          <mxGeometry x="739" y="880" width="60" height="100" as="geometry" />
        </mxCell>
        <mxCell id="vi9AejaFBc3eNM1fVHRH-82" value="" style="verticalLabelPosition=bottom;shadow=0;dashed=0;align=center;html=1;verticalAlign=top;shape=mxgraph.electrical.logic_gates.buffer2;direction=south;" parent="1" vertex="1">
          <mxGeometry x="809" y="880" width="60" height="100" as="geometry" />
        </mxCell>
        <mxCell id="8Se8d8TxG7XIVdDQDwcc-95" style="edgeStyle=orthogonalEdgeStyle;shape=connector;rounded=0;orthogonalLoop=1;jettySize=auto;html=1;exitX=0;exitY=0.5;exitDx=0;exitDy=0;strokeColor=default;align=center;verticalAlign=middle;fontFamily=Helvetica;fontSize=11;fontColor=default;labelBackgroundColor=default;startArrow=none;startFill=0;endArrow=none;endFill=0;" parent="1" source="vi9AejaFBc3eNM1fVHRH-83" target="8Se8d8TxG7XIVdDQDwcc-9" edge="1">
          <mxGeometry relative="1" as="geometry">
            <Array as="points">
              <mxPoint x="909" y="820" />
              <mxPoint x="490" y="820" />
              <mxPoint x="490" y="260" />
              <mxPoint x="770" y="260" />
            </Array>
          </mxGeometry>
        </mxCell>
        <mxCell id="vi9AejaFBc3eNM1fVHRH-83" value="" style="verticalLabelPosition=bottom;shadow=0;dashed=0;align=center;html=1;verticalAlign=top;shape=mxgraph.electrical.logic_gates.buffer2;direction=south;" parent="1" vertex="1">
          <mxGeometry x="879" y="880" width="60" height="100" as="geometry" />
        </mxCell>
        <mxCell id="vi9AejaFBc3eNM1fVHRH-84" value="" style="verticalLabelPosition=bottom;shadow=0;dashed=0;align=center;html=1;verticalAlign=top;shape=mxgraph.electrical.logic_gates.buffer2;direction=south;" parent="1" vertex="1">
          <mxGeometry x="949" y="880" width="60" height="100" as="geometry" />
        </mxCell>
        <mxCell id="vi9AejaFBc3eNM1fVHRH-85" value="" style="verticalLabelPosition=bottom;shadow=0;dashed=0;align=center;html=1;verticalAlign=top;shape=mxgraph.electrical.logic_gates.buffer2;direction=south;" parent="1" vertex="1">
          <mxGeometry x="1019" y="880" width="60" height="100" as="geometry" />
        </mxCell>
        <mxCell id="iwcDW4btiEjeqznmIjvd-17" value="" style="verticalLabelPosition=bottom;shadow=0;dashed=0;align=center;html=1;verticalAlign=top;shape=mxgraph.electrical.logic_gates.schmitt_trigger;" parent="1" vertex="1">
          <mxGeometry x="-70" y="440" width="100" height="60" as="geometry" />
        </mxCell>
        <mxCell id="iwcDW4btiEjeqznmIjvd-18" value="" style="verticalLabelPosition=bottom;shadow=0;dashed=0;align=center;html=1;verticalAlign=top;shape=mxgraph.electrical.logic_gates.schmitt_trigger;" parent="1" vertex="1">
          <mxGeometry x="-70" y="510" width="100" height="60" as="geometry" />
        </mxCell>
        <mxCell id="iwcDW4btiEjeqznmIjvd-19" value="" style="verticalLabelPosition=bottom;shadow=0;dashed=0;align=center;html=1;verticalAlign=top;shape=mxgraph.electrical.logic_gates.schmitt_trigger;" parent="1" vertex="1">
          <mxGeometry x="-70" y="580" width="100" height="60" as="geometry" />
        </mxCell>
        <mxCell id="iwcDW4btiEjeqznmIjvd-20" value="" style="verticalLabelPosition=bottom;shadow=0;dashed=0;align=center;html=1;verticalAlign=top;shape=mxgraph.electrical.logic_gates.schmitt_trigger;" parent="1" vertex="1">
          <mxGeometry x="-70" y="650" width="100" height="60" as="geometry" />
        </mxCell>
        <mxCell id="iwcDW4btiEjeqznmIjvd-21" value="" style="verticalLabelPosition=bottom;shadow=0;dashed=0;align=center;html=1;verticalAlign=top;shape=mxgraph.electrical.logic_gates.schmitt_trigger;" parent="1" vertex="1">
          <mxGeometry x="-70" y="720" width="100" height="60" as="geometry" />
        </mxCell>
        <mxCell id="iwcDW4btiEjeqznmIjvd-22" value="" style="pointerEvents=1;verticalLabelPosition=bottom;shadow=0;dashed=0;align=center;html=1;verticalAlign=top;shape=mxgraph.electrical.resistors.resistor_1;direction=south;" parent="1" vertex="1">
          <mxGeometry x="-120" y="260" width="20" height="100" as="geometry" />
        </mxCell>
        <mxCell id="iwcDW4btiEjeqznmIjvd-32" style="edgeStyle=orthogonalEdgeStyle;shape=connector;rounded=0;orthogonalLoop=1;jettySize=auto;html=1;exitX=0;exitY=0.5;exitDx=0;exitDy=0;exitPerimeter=0;strokeColor=default;align=center;verticalAlign=middle;fontFamily=Helvetica;fontSize=11;fontColor=default;labelBackgroundColor=default;endArrow=none;endFill=0;" parent="1" source="iwcDW4btiEjeqznmIjvd-23" edge="1">
          <mxGeometry relative="1" as="geometry">
            <mxPoint x="-150" y="240" as="targetPoint" />
          </mxGeometry>
        </mxCell>
        <mxCell id="iwcDW4btiEjeqznmIjvd-23" value="" style="pointerEvents=1;verticalLabelPosition=bottom;shadow=0;dashed=0;align=center;html=1;verticalAlign=top;shape=mxgraph.electrical.resistors.resistor_1;direction=south;" parent="1" vertex="1">
          <mxGeometry x="-160" y="260" width="20" height="100" as="geometry" />
        </mxCell>
        <mxCell id="iwcDW4btiEjeqznmIjvd-33" style="edgeStyle=orthogonalEdgeStyle;shape=connector;rounded=0;orthogonalLoop=1;jettySize=auto;html=1;exitX=0;exitY=0.5;exitDx=0;exitDy=0;exitPerimeter=0;strokeColor=default;align=center;verticalAlign=middle;fontFamily=Helvetica;fontSize=11;fontColor=default;labelBackgroundColor=default;endArrow=none;endFill=0;" parent="1" source="iwcDW4btiEjeqznmIjvd-24" edge="1">
          <mxGeometry relative="1" as="geometry">
            <mxPoint x="-190" y="240" as="targetPoint" />
          </mxGeometry>
        </mxCell>
        <mxCell id="iwcDW4btiEjeqznmIjvd-24" value="" style="pointerEvents=1;verticalLabelPosition=bottom;shadow=0;dashed=0;align=center;html=1;verticalAlign=top;shape=mxgraph.electrical.resistors.resistor_1;direction=south;" parent="1" vertex="1">
          <mxGeometry x="-200" y="260" width="20" height="100" as="geometry" />
        </mxCell>
        <mxCell id="iwcDW4btiEjeqznmIjvd-26" style="edgeStyle=orthogonalEdgeStyle;rounded=0;orthogonalLoop=1;jettySize=auto;html=1;exitX=1;exitY=0.5;exitDx=0;exitDy=0;exitPerimeter=0;entryX=0;entryY=0.5;entryDx=0;entryDy=0;entryPerimeter=0;endArrow=none;endFill=0;" parent="1" source="8Se8d8TxG7XIVdDQDwcc-56" target="iwcDW4btiEjeqznmIjvd-16" edge="1">
          <mxGeometry relative="1" as="geometry" />
        </mxCell>
        <mxCell id="iwcDW4btiEjeqznmIjvd-27" style="edgeStyle=orthogonalEdgeStyle;rounded=0;orthogonalLoop=1;jettySize=auto;html=1;exitX=1;exitY=0.5;exitDx=0;exitDy=0;exitPerimeter=0;entryX=0;entryY=0.5;entryDx=0;entryDy=0;entryPerimeter=0;endArrow=none;endFill=0;" parent="1" source="iwcDW4btiEjeqznmIjvd-23" target="iwcDW4btiEjeqznmIjvd-17" edge="1">
          <mxGeometry relative="1" as="geometry" />
        </mxCell>
        <mxCell id="iwcDW4btiEjeqznmIjvd-28" style="edgeStyle=orthogonalEdgeStyle;shape=connector;rounded=0;orthogonalLoop=1;jettySize=auto;html=1;exitX=1;exitY=0.5;exitDx=0;exitDy=0;exitPerimeter=0;entryX=0;entryY=0.5;entryDx=0;entryDy=0;entryPerimeter=0;strokeColor=default;align=center;verticalAlign=middle;fontFamily=Helvetica;fontSize=11;fontColor=default;labelBackgroundColor=default;endArrow=none;endFill=0;" parent="1" source="8Se8d8TxG7XIVdDQDwcc-60" target="iwcDW4btiEjeqznmIjvd-18" edge="1">
          <mxGeometry relative="1" as="geometry" />
        </mxCell>
        <mxCell id="iwcDW4btiEjeqznmIjvd-34" style="edgeStyle=orthogonalEdgeStyle;shape=connector;rounded=0;orthogonalLoop=1;jettySize=auto;html=1;exitX=0;exitY=0.5;exitDx=0;exitDy=0;exitPerimeter=0;strokeColor=default;align=center;verticalAlign=middle;fontFamily=Helvetica;fontSize=11;fontColor=default;labelBackgroundColor=default;endArrow=none;endFill=0;" parent="1" source="8Se8d8TxG7XIVdDQDwcc-62" edge="1">
          <mxGeometry relative="1" as="geometry">
            <mxPoint x="-30" y="380" as="targetPoint" />
            <Array as="points">
              <mxPoint x="-30" y="240" />
              <mxPoint x="-30" y="382" />
            </Array>
          </mxGeometry>
        </mxCell>
        <mxCell id="iwcDW4btiEjeqznmIjvd-31" style="edgeStyle=orthogonalEdgeStyle;shape=connector;rounded=0;orthogonalLoop=1;jettySize=auto;html=1;entryX=0;entryY=0.5;entryDx=0;entryDy=0;entryPerimeter=0;strokeColor=default;align=center;verticalAlign=middle;fontFamily=Helvetica;fontSize=11;fontColor=default;labelBackgroundColor=default;endArrow=none;endFill=0;" parent="1" source="8Se8d8TxG7XIVdDQDwcc-73" target="iwcDW4btiEjeqznmIjvd-22" edge="1">
          <mxGeometry relative="1" as="geometry">
            <mxPoint x="-190" y="240" as="sourcePoint" />
          </mxGeometry>
        </mxCell>
        <mxCell id="iwcDW4btiEjeqznmIjvd-50" value="3V3" style="shape=stencil(rZPBDoIwDIafZve5Ee8G9T3KqLIwNjKmyNs7qDESmAdCwqX/R7+ypTCZdxW0yAS30CCTZyaERwPD4agqsBZNDCKtCGVU9bMKuhZVoOgJXkNhkEgXvKux12X49GtboddhpPLC+Cm+Mz4yVy7OUkE7283ID48y0Db28hfJBA0ZqOJUtdHfYEBP6YFSJq4btdleWj7Tir202XatzGOSuniZF6Dqu3cPWy67kuzmPK6AL9bG0FL8OaYftylxb3xtAefLmdIm504nWnz4lNLPMQVv);whiteSpace=wrap;html=1;points=[[0,0.5,0,0,0],[0.5,0,0,0,0],[0.5,1,0,0,0],[1,0.5,0,0,0]];strokeColor=default;fillColor=#5C5C5C;fillStyle=solid;fillOpacity=90;strokeOpacity=100;" parent="1" vertex="1">
          <mxGeometry x="1129" y="-40" width="40" height="40" as="geometry" />
        </mxCell>
        <mxCell id="iwcDW4btiEjeqznmIjvd-51" value="5V" style="shape=stencil(rZPBDoIwDIafZve5Ee8G9T3KqLIwNjKmyNs7qDESmAdCwqX/R7+ypTCZdxW0yAS30CCTZyaERwPD4agqsBZNDCKtCGVU9bMKuhZVoOgJXkNhkEgXvKux12X49GtboddhpPLC+Cm+Mz4yVy7OUkE7283ID48y0Db28hfJBA0ZqOJUtdHfYEBP6YFSJq4btdleWj7Tir202XatzGOSuniZF6Dqu3cPWy67kuzmPK6AL9bG0FL8OaYftylxb3xtAefLmdIm504nWnz4lNLPMQVv);whiteSpace=wrap;html=1;points=[[0,0.5,0,0,0],[0.5,0,0,0,0],[0.5,1,0,0,0],[1,0.5,0,0,0]];" parent="1" vertex="1">
          <mxGeometry x="1089" width="40" height="40" as="geometry" />
        </mxCell>
        <mxCell id="iwcDW4btiEjeqznmIjvd-52" value="SDA" style="shape=stencil(rZPBDoIwDIafZve5Ee8G9T3KqLIwNjKmyNs7qDESmAdCwqX/R7+ypTCZdxW0yAS30CCTZyaERwPD4agqsBZNDCKtCGVU9bMKuhZVoOgJXkNhkEgXvKux12X49GtboddhpPLC+Cm+Mz4yVy7OUkE7283ID48y0Db28hfJBA0ZqOJUtdHfYEBP6YFSJq4btdleWj7Tir202XatzGOSuniZF6Dqu3cPWy67kuzmPK6AL9bG0FL8OaYftylxb3xtAefLmdIm504nWnz4lNLPMQVv);whiteSpace=wrap;html=1;points=[[0,0.5,0,0,0],[0.5,0,0,0,0],[0.5,1,0,0,0],[1,0.5,0,0,0]];" parent="1" vertex="1">
          <mxGeometry x="1089" y="-40" width="40" height="40" as="geometry" />
        </mxCell>
        <mxCell id="iwcDW4btiEjeqznmIjvd-53" value="GND" style="shape=stencil(rZPBDoIwDIafZve5Ee8G9T3KqLIwNjKmyNs7qDESmAdCwqX/R7+ypTCZdxW0yAS30CCTZyaERwPD4agqsBZNDCKtCGVU9bMKuhZVoOgJXkNhkEgXvKux12X49GtboddhpPLC+Cm+Mz4yVy7OUkE7283ID48y0Db28hfJBA0ZqOJUtdHfYEBP6YFSJq4btdleWj7Tir202XatzGOSuniZF6Dqu3cPWy67kuzmPK6AL9bG0FL8OaYftylxb3xtAefLmdIm504nWnz4lNLPMQVv);whiteSpace=wrap;html=1;points=[[0,0.5,0,0,0],[0.5,0,0,0,0],[0.5,1,0,0,0],[1,0.5,0,0,0]];" parent="1" vertex="1">
          <mxGeometry x="1049" width="40" height="40" as="geometry" />
        </mxCell>
        <mxCell id="iwcDW4btiEjeqznmIjvd-54" value="SCL" style="shape=stencil(rZPBDoIwDIafZve5Ee8G9T3KqLIwNjKmyNs7qDESmAdCwqX/R7+ypTCZdxW0yAS30CCTZyaERwPD4agqsBZNDCKtCGVU9bMKuhZVoOgJXkNhkEgXvKux12X49GtboddhpPLC+Cm+Mz4yVy7OUkE7283ID48y0Db28hfJBA0ZqOJUtdHfYEBP6YFSJq4btdleWj7Tir202XatzGOSuniZF6Dqu3cPWy67kuzmPK6AL9bG0FL8OaYftylxb3xtAefLmdIm504nWnz4lNLPMQVv);whiteSpace=wrap;html=1;points=[[0,0.5,0,0,0],[0.5,0,0,0,0],[0.5,1,0,0,0],[1,0.5,0,0,0]];" parent="1" vertex="1">
          <mxGeometry x="1049" y="-40" width="40" height="40" as="geometry" />
        </mxCell>
        <mxCell id="iwcDW4btiEjeqznmIjvd-55" value="" style="shape=stencil(rZPBDoIwDIafZve5Ee8G9T3KqLIwNjKmyNs7qDESmAdCwqX/R7+ypTCZdxW0yAS30CCTZyaERwPD4agqsBZNDCKtCGVU9bMKuhZVoOgJXkNhkEgXvKux12X49GtboddhpPLC+Cm+Mz4yVy7OUkE7283ID48y0Db28hfJBA0ZqOJUtdHfYEBP6YFSJq4btdleWj7Tir202XatzGOSuniZF6Dqu3cPWy67kuzmPK6AL9bG0FL8OaYftylxb3xtAefLmdIm504nWnz4lNLPMQVv);whiteSpace=wrap;html=1;points=[[0,0.5,0,0,0],[0.5,0,0,0,0],[0.5,1,0,0,0],[1,0.5,0,0,0]];" parent="1" vertex="1">
          <mxGeometry x="1009" width="40" height="40" as="geometry" />
        </mxCell>
        <mxCell id="iwcDW4btiEjeqznmIjvd-56" value="" style="shape=stencil(rZPBDoIwDIafZve5Ee8G9T3KqLIwNjKmyNs7qDESmAdCwqX/R7+ypTCZdxW0yAS30CCTZyaERwPD4agqsBZNDCKtCGVU9bMKuhZVoOgJXkNhkEgXvKux12X49GtboddhpPLC+Cm+Mz4yVy7OUkE7283ID48y0Db28hfJBA0ZqOJUtdHfYEBP6YFSJq4btdleWj7Tir202XatzGOSuniZF6Dqu3cPWy67kuzmPK6AL9bG0FL8OaYftylxb3xtAefLmdIm504nWnz4lNLPMQVv);whiteSpace=wrap;html=1;points=[[0,0.5,0,0,0],[0.5,0,0,0,0],[0.5,1,0,0,0],[1,0.5,0,0,0]];" parent="1" vertex="1">
          <mxGeometry x="1009" y="-40" width="40" height="40" as="geometry" />
        </mxCell>
        <mxCell id="iwcDW4btiEjeqznmIjvd-57" value="GP15" style="shape=stencil(rZPBDoIwDIafZve5Ee8G9T3KqLIwNjKmyNs7qDESmAdCwqX/R7+ypTCZdxW0yAS30CCTZyaERwPD4agqsBZNDCKtCGVU9bMKuhZVoOgJXkNhkEgXvKux12X49GtboddhpPLC+Cm+Mz4yVy7OUkE7283ID48y0Db28hfJBA0ZqOJUtdHfYEBP6YFSJq4btdleWj7Tir202XatzGOSuniZF6Dqu3cPWy67kuzmPK6AL9bG0FL8OaYftylxb3xtAefLmdIm504nWnz4lNLPMQVv);whiteSpace=wrap;html=1;points=[[0,0.5,0,0,0],[0.5,0,0,0,0],[0.5,1,0,0,0],[1,0.5,0,0,0]];" parent="1" vertex="1">
          <mxGeometry x="969" width="40" height="40" as="geometry" />
        </mxCell>
        <mxCell id="iwcDW4btiEjeqznmIjvd-58" value="GND" style="shape=stencil(rZPBDoIwDIafZve5Ee8G9T3KqLIwNjKmyNs7qDESmAdCwqX/R7+ypTCZdxW0yAS30CCTZyaERwPD4agqsBZNDCKtCGVU9bMKuhZVoOgJXkNhkEgXvKux12X49GtboddhpPLC+Cm+Mz4yVy7OUkE7283ID48y0Db28hfJBA0ZqOJUtdHfYEBP6YFSJq4btdleWj7Tir202XatzGOSuniZF6Dqu3cPWy67kuzmPK6AL9bG0FL8OaYftylxb3xtAefLmdIm504nWnz4lNLPMQVv);whiteSpace=wrap;html=1;points=[[0,0.5,0,0,0],[0.5,0,0,0,0],[0.5,1,0,0,0],[1,0.5,0,0,0]];" parent="1" vertex="1">
          <mxGeometry x="969" y="-40" width="40" height="40" as="geometry" />
        </mxCell>
        <mxCell id="iwcDW4btiEjeqznmIjvd-59" value="GP18" style="shape=stencil(rZPBDoIwDIafZve5Ee8G9T3KqLIwNjKmyNs7qDESmAdCwqX/R7+ypTCZdxW0yAS30CCTZyaERwPD4agqsBZNDCKtCGVU9bMKuhZVoOgJXkNhkEgXvKux12X49GtboddhpPLC+Cm+Mz4yVy7OUkE7283ID48y0Db28hfJBA0ZqOJUtdHfYEBP6YFSJq4btdleWj7Tir202XatzGOSuniZF6Dqu3cPWy67kuzmPK6AL9bG0FL8OaYftylxb3xtAefLmdIm504nWnz4lNLPMQVv);whiteSpace=wrap;html=1;points=[[0,0.5,0,0,0],[0.5,0,0,0,0],[0.5,1,0,0,0],[1,0.5,0,0,0]];" parent="1" vertex="1">
          <mxGeometry x="929" width="40" height="40" as="geometry" />
        </mxCell>
        <mxCell id="iwcDW4btiEjeqznmIjvd-60" value="GP17" style="shape=stencil(rZPBDoIwDIafZve5Ee8G9T3KqLIwNjKmyNs7qDESmAdCwqX/R7+ypTCZdxW0yAS30CCTZyaERwPD4agqsBZNDCKtCGVU9bMKuhZVoOgJXkNhkEgXvKux12X49GtboddhpPLC+Cm+Mz4yVy7OUkE7283ID48y0Db28hfJBA0ZqOJUtdHfYEBP6YFSJq4btdleWj7Tir202XatzGOSuniZF6Dqu3cPWy67kuzmPK6AL9bG0FL8OaYftylxb3xtAefLmdIm504nWnz4lNLPMQVv);whiteSpace=wrap;html=1;points=[[0,0.5,0,0,0],[0.5,0,0,0,0],[0.5,1,0,0,0],[1,0.5,0,0,0]];" parent="1" vertex="1">
          <mxGeometry x="929" y="-40" width="40" height="40" as="geometry" />
        </mxCell>
        <mxCell id="iwcDW4btiEjeqznmIjvd-61" value="GND&lt;div&gt;A&lt;/div&gt;" style="shape=stencil(rZPBDoIwDIafZve5Ee8G9T3KqLIwNjKmyNs7qDESmAdCwqX/R7+ypTCZdxW0yAS30CCTZyaERwPD4agqsBZNDCKtCGVU9bMKuhZVoOgJXkNhkEgXvKux12X49GtboddhpPLC+Cm+Mz4yVy7OUkE7283ID48y0Db28hfJBA0ZqOJUtdHfYEBP6YFSJq4btdleWj7Tir202XatzGOSuniZF6Dqu3cPWy67kuzmPK6AL9bG0FL8OaYftylxb3xtAefLmdIm504nWnz4lNLPMQVv);whiteSpace=wrap;html=1;points=[[0,0.5,0,0,0],[0.5,0,0,0,0],[0.5,1,0,0,0],[1,0.5,0,0,0]];" parent="1" vertex="1">
          <mxGeometry x="889" width="40" height="40" as="geometry" />
        </mxCell>
        <mxCell id="iwcDW4btiEjeqznmIjvd-62" value="GP27" style="shape=stencil(rZPBDoIwDIafZve5Ee8G9T3KqLIwNjKmyNs7qDESmAdCwqX/R7+ypTCZdxW0yAS30CCTZyaERwPD4agqsBZNDCKtCGVU9bMKuhZVoOgJXkNhkEgXvKux12X49GtboddhpPLC+Cm+Mz4yVy7OUkE7283ID48y0Db28hfJBA0ZqOJUtdHfYEBP6YFSJq4btdleWj7Tir202XatzGOSuniZF6Dqu3cPWy67kuzmPK6AL9bG0FL8OaYftylxb3xtAefLmdIm504nWnz4lNLPMQVv);whiteSpace=wrap;html=1;points=[[0,0.5,0,0,0],[0.5,0,0,0,0],[0.5,1,0,0,0],[1,0.5,0,0,0]];" parent="1" vertex="1">
          <mxGeometry x="889" y="-40" width="40" height="40" as="geometry" />
        </mxCell>
        <mxCell id="iwcDW4btiEjeqznmIjvd-63" value="GP23" style="shape=stencil(rZPBDoIwDIafZve5Ee8G9T3KqLIwNjKmyNs7qDESmAdCwqX/R7+ypTCZdxW0yAS30CCTZyaERwPD4agqsBZNDCKtCGVU9bMKuhZVoOgJXkNhkEgXvKux12X49GtboddhpPLC+Cm+Mz4yVy7OUkE7283ID48y0Db28hfJBA0ZqOJUtdHfYEBP6YFSJq4btdleWj7Tir202XatzGOSuniZF6Dqu3cPWy67kuzmPK6AL9bG0FL8OaYftylxb3xtAefLmdIm504nWnz4lNLPMQVv);whiteSpace=wrap;html=1;points=[[0,0.5,0,0,0],[0.5,0,0,0,0],[0.5,1,0,0,0],[1,0.5,0,0,0]];" parent="1" vertex="1">
          <mxGeometry x="849" width="40" height="40" as="geometry" />
        </mxCell>
        <mxCell id="iwcDW4btiEjeqznmIjvd-64" value="GP22" style="shape=stencil(rZPBDoIwDIafZve5Ee8G9T3KqLIwNjKmyNs7qDESmAdCwqX/R7+ypTCZdxW0yAS30CCTZyaERwPD4agqsBZNDCKtCGVU9bMKuhZVoOgJXkNhkEgXvKux12X49GtboddhpPLC+Cm+Mz4yVy7OUkE7283ID48y0Db28hfJBA0ZqOJUtdHfYEBP6YFSJq4btdleWj7Tir202XatzGOSuniZF6Dqu3cPWy67kuzmPK6AL9bG0FL8OaYftylxb3xtAefLmdIm504nWnz4lNLPMQVv);whiteSpace=wrap;html=1;points=[[0,0.5,0,0,0],[0.5,0,0,0,0],[0.5,1,0,0,0],[1,0.5,0,0,0]];" parent="1" vertex="1">
          <mxGeometry x="849" y="-40" width="41" height="40" as="geometry" />
        </mxCell>
        <mxCell id="iwcDW4btiEjeqznmIjvd-65" value="GP24" style="shape=stencil(rZPBDoIwDIafZve5Ee8G9T3KqLIwNjKmyNs7qDESmAdCwqX/R7+ypTCZdxW0yAS30CCTZyaERwPD4agqsBZNDCKtCGVU9bMKuhZVoOgJXkNhkEgXvKux12X49GtboddhpPLC+Cm+Mz4yVy7OUkE7283ID48y0Db28hfJBA0ZqOJUtdHfYEBP6YFSJq4btdleWj7Tir202XatzGOSuniZF6Dqu3cPWy67kuzmPK6AL9bG0FL8OaYftylxb3xtAefLmdIm504nWnz4lNLPMQVv);whiteSpace=wrap;html=1;points=[[0,0.5,0,0,0],[0.5,0,0,0,0],[0.5,1,0,0,0],[1,0.5,0,0,0]];" parent="1" vertex="1">
          <mxGeometry x="809" width="40" height="40" as="geometry" />
        </mxCell>
        <mxCell id="iwcDW4btiEjeqznmIjvd-66" value="3V3&lt;div&gt;A&lt;/div&gt;" style="shape=stencil(rZPBDoIwDIafZve5Ee8G9T3KqLIwNjKmyNs7qDESmAdCwqX/R7+ypTCZdxW0yAS30CCTZyaERwPD4agqsBZNDCKtCGVU9bMKuhZVoOgJXkNhkEgXvKux12X49GtboddhpPLC+Cm+Mz4yVy7OUkE7283ID48y0Db28hfJBA0ZqOJUtdHfYEBP6YFSJq4btdleWj7Tir202XatzGOSuniZF6Dqu3cPWy67kuzmPK6AL9bG0FL8OaYftylxb3xtAefLmdIm504nWnz4lNLPMQVv);whiteSpace=wrap;html=1;points=[[0,0.5,0,0,0],[0.5,0,0,0,0],[0.5,1,0,0,0],[1,0.5,0,0,0]];" parent="1" vertex="1">
          <mxGeometry x="809" y="-40" width="40" height="40" as="geometry" />
        </mxCell>
        <mxCell id="iwcDW4btiEjeqznmIjvd-67" value="" style="shape=stencil(rZPBDoIwDIafZve5Ee8G9T3KqLIwNjKmyNs7qDESmAdCwqX/R7+ypTCZdxW0yAS30CCTZyaERwPD4agqsBZNDCKtCGVU9bMKuhZVoOgJXkNhkEgXvKux12X49GtboddhpPLC+Cm+Mz4yVy7OUkE7283ID48y0Db28hfJBA0ZqOJUtdHfYEBP6YFSJq4btdleWj7Tir202XatzGOSuniZF6Dqu3cPWy67kuzmPK6AL9bG0FL8OaYftylxb3xtAefLmdIm504nWnz4lNLPMQVv);whiteSpace=wrap;html=1;points=[[0,0.5,0,0,0],[0.5,0,0,0,0],[0.5,1,0,0,0],[1,0.5,0,0,0]];" parent="1" vertex="1">
          <mxGeometry x="769" width="40" height="40" as="geometry" />
        </mxCell>
        <mxCell id="iwcDW4btiEjeqznmIjvd-68" value="GP10" style="shape=stencil(rZPBDoIwDIafZve5Ee8G9T3KqLIwNjKmyNs7qDESmAdCwqX/R7+ypTCZdxW0yAS30CCTZyaERwPD4agqsBZNDCKtCGVU9bMKuhZVoOgJXkNhkEgXvKux12X49GtboddhpPLC+Cm+Mz4yVy7OUkE7283ID48y0Db28hfJBA0ZqOJUtdHfYEBP6YFSJq4btdleWj7Tir202XatzGOSuniZF6Dqu3cPWy67kuzmPK6AL9bG0FL8OaYftylxb3xtAefLmdIm504nWnz4lNLPMQVv);whiteSpace=wrap;html=1;points=[[0,0.5,0,0,0],[0.5,0,0,0,0],[0.5,1,0,0,0],[1,0.5,0,0,0]];" parent="1" vertex="1">
          <mxGeometry x="769" y="-40" width="40" height="40" as="geometry" />
        </mxCell>
        <mxCell id="iwcDW4btiEjeqznmIjvd-69" value="GP25" style="shape=stencil(rZPBDoIwDIafZve5Ee8G9T3KqLIwNjKmyNs7qDESmAdCwqX/R7+ypTCZdxW0yAS30CCTZyaERwPD4agqsBZNDCKtCGVU9bMKuhZVoOgJXkNhkEgXvKux12X49GtboddhpPLC+Cm+Mz4yVy7OUkE7283ID48y0Db28hfJBA0ZqOJUtdHfYEBP6YFSJq4btdleWj7Tir202XatzGOSuniZF6Dqu3cPWy67kuzmPK6AL9bG0FL8OaYftylxb3xtAefLmdIm504nWnz4lNLPMQVv);whiteSpace=wrap;html=1;points=[[0,0.5,0,0,0],[0.5,0,0,0,0],[0.5,1,0,0,0],[1,0.5,0,0,0]];" parent="1" vertex="1">
          <mxGeometry x="729" width="40" height="40" as="geometry" />
        </mxCell>
        <mxCell id="iwcDW4btiEjeqznmIjvd-70" value="GP9" style="shape=stencil(rZPBDoIwDIafZve5Ee8G9T3KqLIwNjKmyNs7qDESmAdCwqX/R7+ypTCZdxW0yAS30CCTZyaERwPD4agqsBZNDCKtCGVU9bMKuhZVoOgJXkNhkEgXvKux12X49GtboddhpPLC+Cm+Mz4yVy7OUkE7283ID48y0Db28hfJBA0ZqOJUtdHfYEBP6YFSJq4btdleWj7Tir202XatzGOSuniZF6Dqu3cPWy67kuzmPK6AL9bG0FL8OaYftylxb3xtAefLmdIm504nWnz4lNLPMQVv);whiteSpace=wrap;html=1;points=[[0,0.5,0,0,0],[0.5,0,0,0,0],[0.5,1,0,0,0],[1,0.5,0,0,0]];" parent="1" vertex="1">
          <mxGeometry x="729" y="-40" width="40" height="40" as="geometry" />
        </mxCell>
        <mxCell id="iwcDW4btiEjeqznmIjvd-71" value="" style="shape=stencil(rZPBDoIwDIafZve5Ee8G9T3KqLIwNjKmyNs7qDESmAdCwqX/R7+ypTCZdxW0yAS30CCTZyaERwPD4agqsBZNDCKtCGVU9bMKuhZVoOgJXkNhkEgXvKux12X49GtboddhpPLC+Cm+Mz4yVy7OUkE7283ID48y0Db28hfJBA0ZqOJUtdHfYEBP6YFSJq4btdleWj7Tir202XatzGOSuniZF6Dqu3cPWy67kuzmPK6AL9bG0FL8OaYftylxb3xtAefLmdIm504nWnz4lNLPMQVv);whiteSpace=wrap;html=1;points=[[0,0.5,0,0,0],[0.5,0,0,0,0],[0.5,1,0,0,0],[1,0.5,0,0,0]];" parent="1" vertex="1">
          <mxGeometry x="689" width="40" height="40" as="geometry" />
        </mxCell>
        <mxCell id="iwcDW4btiEjeqznmIjvd-72" value="" style="shape=stencil(rZPBDoIwDIafZve5Ee8G9T3KqLIwNjKmyNs7qDESmAdCwqX/R7+ypTCZdxW0yAS30CCTZyaERwPD4agqsBZNDCKtCGVU9bMKuhZVoOgJXkNhkEgXvKux12X49GtboddhpPLC+Cm+Mz4yVy7OUkE7283ID48y0Db28hfJBA0ZqOJUtdHfYEBP6YFSJq4btdleWj7Tir202XatzGOSuniZF6Dqu3cPWy67kuzmPK6AL9bG0FL8OaYftylxb3xtAefLmdIm504nWnz4lNLPMQVv);whiteSpace=wrap;html=1;points=[[0,0.5,0,0,0],[0.5,0,0,0,0],[0.5,1,0,0,0],[1,0.5,0,0,0]];" parent="1" vertex="1">
          <mxGeometry x="689" y="-40" width="40" height="40" as="geometry" />
        </mxCell>
        <mxCell id="iwcDW4btiEjeqznmIjvd-73" value="" style="shape=stencil(rZPBDoIwDIafZve5Ee8G9T3KqLIwNjKmyNs7qDESmAdCwqX/R7+ypTCZdxW0yAS30CCTZyaERwPD4agqsBZNDCKtCGVU9bMKuhZVoOgJXkNhkEgXvKux12X49GtboddhpPLC+Cm+Mz4yVy7OUkE7283ID48y0Db28hfJBA0ZqOJUtdHfYEBP6YFSJq4btdleWj7Tir202XatzGOSuniZF6Dqu3cPWy67kuzmPK6AL9bG0FL8OaYftylxb3xtAefLmdIm504nWnz4lNLPMQVv);whiteSpace=wrap;html=1;points=[[0,0.5,0,0,0],[0.5,0,0,0,0],[0.5,1,0,0,0],[1,0.5,0,0,0]];" parent="1" vertex="1">
          <mxGeometry x="649" width="40" height="40" as="geometry" />
        </mxCell>
        <mxCell id="iwcDW4btiEjeqznmIjvd-74" value="" style="shape=stencil(rZPBDoIwDIafZve5Ee8G9T3KqLIwNjKmyNs7qDESmAdCwqX/R7+ypTCZdxW0yAS30CCTZyaERwPD4agqsBZNDCKtCGVU9bMKuhZVoOgJXkNhkEgXvKux12X49GtboddhpPLC+Cm+Mz4yVy7OUkE7283ID48y0Db28hfJBA0ZqOJUtdHfYEBP6YFSJq4btdleWj7Tir202XatzGOSuniZF6Dqu3cPWy67kuzmPK6AL9bG0FL8OaYftylxb3xtAefLmdIm504nWnz4lNLPMQVv);whiteSpace=wrap;html=1;points=[[0,0.5,0,0,0],[0.5,0,0,0,0],[0.5,1,0,0,0],[1,0.5,0,0,0]];" parent="1" vertex="1">
          <mxGeometry x="649" y="-40" width="40" height="40" as="geometry" />
        </mxCell>
        <mxCell id="iwcDW4btiEjeqznmIjvd-75" value="" style="shape=stencil(rZPBDoIwDIafZve5Ee8G9T3KqLIwNjKmyNs7qDESmAdCwqX/R7+ypTCZdxW0yAS30CCTZyaERwPD4agqsBZNDCKtCGVU9bMKuhZVoOgJXkNhkEgXvKux12X49GtboddhpPLC+Cm+Mz4yVy7OUkE7283ID48y0Db28hfJBA0ZqOJUtdHfYEBP6YFSJq4btdleWj7Tir202XatzGOSuniZF6Dqu3cPWy67kuzmPK6AL9bG0FL8OaYftylxb3xtAefLmdIm504nWnz4lNLPMQVv);whiteSpace=wrap;html=1;points=[[0,0.5,0,0,0],[0.5,0,0,0,0],[0.5,1,0,0,0],[1,0.5,0,0,0]];" parent="1" vertex="1">
          <mxGeometry x="609" width="40" height="40" as="geometry" />
        </mxCell>
        <mxCell id="iwcDW4btiEjeqznmIjvd-76" value="" style="shape=stencil(rZPBDoIwDIafZve5Ee8G9T3KqLIwNjKmyNs7qDESmAdCwqX/R7+ypTCZdxW0yAS30CCTZyaERwPD4agqsBZNDCKtCGVU9bMKuhZVoOgJXkNhkEgXvKux12X49GtboddhpPLC+Cm+Mz4yVy7OUkE7283ID48y0Db28hfJBA0ZqOJUtdHfYEBP6YFSJq4btdleWj7Tir202XatzGOSuniZF6Dqu3cPWy67kuzmPK6AL9bG0FL8OaYftylxb3xtAefLmdIm504nWnz4lNLPMQVv);whiteSpace=wrap;html=1;points=[[0,0.5,0,0,0],[0.5,0,0,0,0],[0.5,1,0,0,0],[1,0.5,0,0,0]];" parent="1" vertex="1">
          <mxGeometry x="609" y="-40" width="40" height="40" as="geometry" />
        </mxCell>
        <mxCell id="iwcDW4btiEjeqznmIjvd-77" value="" style="shape=stencil(rZPBDoIwDIafZve5Ee8G9T3KqLIwNjKmyNs7qDESmAdCwqX/R7+ypTCZdxW0yAS30CCTZyaERwPD4agqsBZNDCKtCGVU9bMKuhZVoOgJXkNhkEgXvKux12X49GtboddhpPLC+Cm+Mz4yVy7OUkE7283ID48y0Db28hfJBA0ZqOJUtdHfYEBP6YFSJq4btdleWj7Tir202XatzGOSuniZF6Dqu3cPWy67kuzmPK6AL9bG0FL8OaYftylxb3xtAefLmdIm504nWnz4lNLPMQVv);whiteSpace=wrap;html=1;points=[[0,0.5,0,0,0],[0.5,0,0,0,0],[0.5,1,0,0,0],[1,0.5,0,0,0]];" parent="1" vertex="1">
          <mxGeometry x="569" width="40" height="40" as="geometry" />
        </mxCell>
        <mxCell id="iwcDW4btiEjeqznmIjvd-78" value="" style="shape=stencil(rZPBDoIwDIafZve5Ee8G9T3KqLIwNjKmyNs7qDESmAdCwqX/R7+ypTCZdxW0yAS30CCTZyaERwPD4agqsBZNDCKtCGVU9bMKuhZVoOgJXkNhkEgXvKux12X49GtboddhpPLC+Cm+Mz4yVy7OUkE7283ID48y0Db28hfJBA0ZqOJUtdHfYEBP6YFSJq4btdleWj7Tir202XatzGOSuniZF6Dqu3cPWy67kuzmPK6AL9bG0FL8OaYftylxb3xtAefLmdIm504nWnz4lNLPMQVv);whiteSpace=wrap;html=1;points=[[0,0.5,0,0,0],[0.5,0,0,0,0],[0.5,1,0,0,0],[1,0.5,0,0,0]];" parent="1" vertex="1">
          <mxGeometry x="569" y="-40" width="40" height="40" as="geometry" />
        </mxCell>
        <mxCell id="iwcDW4btiEjeqznmIjvd-79" value="" style="shape=stencil(rZPBDoIwDIafZve5Ee8G9T3KqLIwNjKmyNs7qDESmAdCwqX/R7+ypTCZdxW0yAS30CCTZyaERwPD4agqsBZNDCKtCGVU9bMKuhZVoOgJXkNhkEgXvKux12X49GtboddhpPLC+Cm+Mz4yVy7OUkE7283ID48y0Db28hfJBA0ZqOJUtdHfYEBP6YFSJq4btdleWj7Tir202XatzGOSuniZF6Dqu3cPWy67kuzmPK6AL9bG0FL8OaYftylxb3xtAefLmdIm504nWnz4lNLPMQVv);whiteSpace=wrap;html=1;points=[[0,0.5,0,0,0],[0.5,0,0,0,0],[0.5,1,0,0,0],[1,0.5,0,0,0]];" parent="1" vertex="1">
          <mxGeometry x="529" width="40" height="40" as="geometry" />
        </mxCell>
        <mxCell id="iwcDW4btiEjeqznmIjvd-80" value="" style="shape=stencil(rZPBDoIwDIafZve5Ee8G9T3KqLIwNjKmyNs7qDESmAdCwqX/R7+ypTCZdxW0yAS30CCTZyaERwPD4agqsBZNDCKtCGVU9bMKuhZVoOgJXkNhkEgXvKux12X49GtboddhpPLC+Cm+Mz4yVy7OUkE7283ID48y0Db28hfJBA0ZqOJUtdHfYEBP6YFSJq4btdleWj7Tir202XatzGOSuniZF6Dqu3cPWy67kuzmPK6AL9bG0FL8OaYftylxb3xtAefLmdIm504nWnz4lNLPMQVv);whiteSpace=wrap;html=1;points=[[0,0.5,0,0,0],[0.5,0,0,0,0],[0.5,1,0,0,0],[1,0.5,0,0,0]];" parent="1" vertex="1">
          <mxGeometry x="529" y="-40" width="40" height="40" as="geometry" />
        </mxCell>
        <mxCell id="iwcDW4btiEjeqznmIjvd-81" value="ADR" style="shape=stencil(rZPBDoIwDIafZve5Ee8G9T3KqLIwNjKmyNs7qDESmAdCwqX/R7+ypTCZdxW0yAS30CCTZyaERwPD4agqsBZNDCKtCGVU9bMKuhZVoOgJXkNhkEgXvKux12X49GtboddhpPLC+Cm+Mz4yVy7OUkE7283ID48y0Db28hfJBA0ZqOJUtdHfYEBP6YFSJq4btdleWj7Tir202XatzGOSuniZF6Dqu3cPWy67kuzmPK6AL9bG0FL8OaYftylxb3xtAefLmdIm504nWnz4lNLPMQVv);whiteSpace=wrap;html=1;points=[[0,0.5,0,0,0],[0.5,0,0,0,0],[0.5,1,0,0,0],[1,0.5,0,0,0]];" parent="1" vertex="1">
          <mxGeometry x="870" y="290" width="40" height="40" as="geometry" />
        </mxCell>
        <mxCell id="iwcDW4btiEjeqznmIjvd-82" value="ALM" style="shape=stencil(rZPBDoIwDIafZve5Ee8G9T3KqLIwNjKmyNs7qDESmAdCwqX/R7+ypTCZdxW0yAS30CCTZyaERwPD4agqsBZNDCKtCGVU9bMKuhZVoOgJXkNhkEgXvKux12X49GtboddhpPLC+Cm+Mz4yVy7OUkE7283ID48y0Db28hfJBA0ZqOJUtdHfYEBP6YFSJq4btdleWj7Tir202XatzGOSuniZF6Dqu3cPWy67kuzmPK6AL9bG0FL8OaYftylxb3xtAefLmdIm504nWnz4lNLPMQVv);whiteSpace=wrap;html=1;points=[[0,0.5,0,0,0],[0.5,0,0,0,0],[0.5,1,0,0,0],[1,0.5,0,0,0]];" parent="1" vertex="1">
          <mxGeometry x="810" y="290" width="40" height="40" as="geometry" />
        </mxCell>
        <mxCell id="iwcDW4btiEjeqznmIjvd-83" value="A0" style="shape=stencil(rZPBDoIwDIafZve5Ee8G9T3KqLIwNjKmyNs7qDESmAdCwqX/R7+ypTCZdxW0yAS30CCTZyaERwPD4agqsBZNDCKtCGVU9bMKuhZVoOgJXkNhkEgXvKux12X49GtboddhpPLC+Cm+Mz4yVy7OUkE7283ID48y0Db28hfJBA0ZqOJUtdHfYEBP6YFSJq4btdleWj7Tir202XatzGOSuniZF6Dqu3cPWy67kuzmPK6AL9bG0FL8OaYftylxb3xtAefLmdIm504nWnz4lNLPMQVv);whiteSpace=wrap;html=1;points=[[0,0.5,0,0,0],[0.5,0,0,0,0],[0.5,1,0,0,0],[1,0.5,0,0,0]];" parent="1" vertex="1">
          <mxGeometry x="750" y="290" width="40" height="40" as="geometry" />
        </mxCell>
        <mxCell id="iwcDW4btiEjeqznmIjvd-84" value="A1" style="shape=stencil(rZPBDoIwDIafZve5Ee8G9T3KqLIwNjKmyNs7qDESmAdCwqX/R7+ypTCZdxW0yAS30CCTZyaERwPD4agqsBZNDCKtCGVU9bMKuhZVoOgJXkNhkEgXvKux12X49GtboddhpPLC+Cm+Mz4yVy7OUkE7283ID48y0Db28hfJBA0ZqOJUtdHfYEBP6YFSJq4btdleWj7Tir202XatzGOSuniZF6Dqu3cPWy67kuzmPK6AL9bG0FL8OaYftylxb3xtAefLmdIm504nWnz4lNLPMQVv);whiteSpace=wrap;html=1;points=[[0,0.5,0,0,0],[0.5,0,0,0,0],[0.5,1,0,0,0],[1,0.5,0,0,0]];" parent="1" vertex="1">
          <mxGeometry x="690" y="290" width="40" height="40" as="geometry" />
        </mxCell>
        <mxCell id="iwcDW4btiEjeqznmIjvd-85" value="A2" style="shape=stencil(rZPBDoIwDIafZve5Ee8G9T3KqLIwNjKmyNs7qDESmAdCwqX/R7+ypTCZdxW0yAS30CCTZyaERwPD4agqsBZNDCKtCGVU9bMKuhZVoOgJXkNhkEgXvKux12X49GtboddhpPLC+Cm+Mz4yVy7OUkE7283ID48y0Db28hfJBA0ZqOJUtdHfYEBP6YFSJq4btdleWj7Tir202XatzGOSuniZF6Dqu3cPWy67kuzmPK6AL9bG0FL8OaYftylxb3xtAefLmdIm504nWnz4lNLPMQVv);whiteSpace=wrap;html=1;points=[[0,0.5,0,0,0],[0.5,0,0,0,0],[0.5,1,0,0,0],[1,0.5,0,0,0]];" parent="1" vertex="1">
          <mxGeometry x="630" y="290" width="40" height="40" as="geometry" />
        </mxCell>
        <mxCell id="iwcDW4btiEjeqznmIjvd-86" value="A3" style="shape=stencil(rZPBDoIwDIafZve5Ee8G9T3KqLIwNjKmyNs7qDESmAdCwqX/R7+ypTCZdxW0yAS30CCTZyaERwPD4agqsBZNDCKtCGVU9bMKuhZVoOgJXkNhkEgXvKux12X49GtboddhpPLC+Cm+Mz4yVy7OUkE7283ID48y0Db28hfJBA0ZqOJUtdHfYEBP6YFSJq4btdleWj7Tir202XatzGOSuniZF6Dqu3cPWy67kuzmPK6AL9bG0FL8OaYftylxb3xtAefLmdIm504nWnz4lNLPMQVv);whiteSpace=wrap;html=1;points=[[0,0.5,0,0,0],[0.5,0,0,0,0],[0.5,1,0,0,0],[1,0.5,0,0,0]];" parent="1" vertex="1">
          <mxGeometry x="570" y="290" width="40" height="40" as="geometry" />
        </mxCell>
        <mxCell id="iwcDW4btiEjeqznmIjvd-87" value="SCL" style="shape=stencil(rZPBDoIwDIafZve5Ee8G9T3KqLIwNjKmyNs7qDESmAdCwqX/R7+ypTCZdxW0yAS30CCTZyaERwPD4agqsBZNDCKtCGVU9bMKuhZVoOgJXkNhkEgXvKux12X49GtboddhpPLC+Cm+Mz4yVy7OUkE7283ID48y0Db28hfJBA0ZqOJUtdHfYEBP6YFSJq4btdleWj7Tir202XatzGOSuniZF6Dqu3cPWy67kuzmPK6AL9bG0FL8OaYftylxb3xtAefLmdIm504nWnz4lNLPMQVv);whiteSpace=wrap;html=1;points=[[0,0.5,0,0,0],[0.5,0,0,0,0],[0.5,1,0,0,0],[1,0.5,0,0,0]];" parent="1" vertex="1">
          <mxGeometry x="993.5" y="290" width="40" height="40" as="geometry" />
        </mxCell>
        <mxCell id="iwcDW4btiEjeqznmIjvd-88" value="SDA" style="shape=stencil(rZPBDoIwDIafZve5Ee8G9T3KqLIwNjKmyNs7qDESmAdCwqX/R7+ypTCZdxW0yAS30CCTZyaERwPD4agqsBZNDCKtCGVU9bMKuhZVoOgJXkNhkEgXvKux12X49GtboddhpPLC+Cm+Mz4yVy7OUkE7283ID48y0Db28hfJBA0ZqOJUtdHfYEBP6YFSJq4btdleWj7Tir202XatzGOSuniZF6Dqu3cPWy67kuzmPK6AL9bG0FL8OaYftylxb3xtAefLmdIm504nWnz4lNLPMQVv);whiteSpace=wrap;html=1;points=[[0,0.5,0,0,0],[0.5,0,0,0,0],[0.5,1,0,0,0],[1,0.5,0,0,0]];" parent="1" vertex="1">
          <mxGeometry x="933.5" y="290" width="40" height="40" as="geometry" />
        </mxCell>
        <mxCell id="iwcDW4btiEjeqznmIjvd-89" value="VDD" style="shape=stencil(rZPBDoIwDIafZve5Ee8G9T3KqLIwNjKmyNs7qDESmAdCwqX/R7+ypTCZdxW0yAS30CCTZyaERwPD4agqsBZNDCKtCGVU9bMKuhZVoOgJXkNhkEgXvKux12X49GtboddhpPLC+Cm+Mz4yVy7OUkE7283ID48y0Db28hfJBA0ZqOJUtdHfYEBP6YFSJq4btdleWj7Tir202XatzGOSuniZF6Dqu3cPWy67kuzmPK6AL9bG0FL8OaYftylxb3xtAefLmdIm504nWnz4lNLPMQVv);whiteSpace=wrap;html=1;points=[[0,0.5,0,0,0],[0.5,0,0,0,0],[0.5,1,0,0,0],[1,0.5,0,0,0]];" parent="1" vertex="1">
          <mxGeometry x="1110" y="290" width="40" height="40" as="geometry" />
        </mxCell>
        <mxCell id="iwcDW4btiEjeqznmIjvd-90" value="GND" style="shape=stencil(rZPBDoIwDIafZve5Ee8G9T3KqLIwNjKmyNs7qDESmAdCwqX/R7+ypTCZdxW0yAS30CCTZyaERwPD4agqsBZNDCKtCGVU9bMKuhZVoOgJXkNhkEgXvKux12X49GtboddhpPLC+Cm+Mz4yVy7OUkE7283ID48y0Db28hfJBA0ZqOJUtdHfYEBP6YFSJq4btdleWj7Tir202XatzGOSuniZF6Dqu3cPWy67kuzmPK6AL9bG0FL8OaYftylxb3xtAefLmdIm504nWnz4lNLPMQVv);whiteSpace=wrap;html=1;points=[[0,0.5,0,0,0],[0.5,0,0,0,0],[0.5,1,0,0,0],[1,0.5,0,0,0]];" parent="1" vertex="1">
          <mxGeometry x="1050" y="290" width="40" height="40" as="geometry" />
        </mxCell>
        <mxCell id="iwcDW4btiEjeqznmIjvd-91" value="VDD" style="shape=stencil(rZPBDoIwDIafZve5Ee8G9T3KqLIwNjKmyNs7qDESmAdCwqX/R7+ypTCZdxW0yAS30CCTZyaERwPD4agqsBZNDCKtCGVU9bMKuhZVoOgJXkNhkEgXvKux12X49GtboddhpPLC+Cm+Mz4yVy7OUkE7283ID48y0Db28hfJBA0ZqOJUtdHfYEBP6YFSJq4btdleWj7Tir202XatzGOSuniZF6Dqu3cPWy67kuzmPK6AL9bG0FL8OaYftylxb3xtAefLmdIm504nWnz4lNLPMQVv);whiteSpace=wrap;html=1;points=[[0,0.5,0,0,0],[0.5,0,0,0,0],[0.5,1,0,0,0],[1,0.5,0,0,0]];" parent="1" vertex="1">
          <mxGeometry x="1110" y="470" width="40" height="40" as="geometry" />
        </mxCell>
        <mxCell id="iwcDW4btiEjeqznmIjvd-152" style="shape=connector;rounded=0;orthogonalLoop=1;jettySize=auto;html=1;exitX=0.5;exitY=1;exitDx=0;exitDy=0;exitPerimeter=0;strokeColor=default;align=center;verticalAlign=middle;fontFamily=Helvetica;fontSize=11;fontColor=default;labelBackgroundColor=default;endArrow=none;endFill=0;edgeStyle=orthogonalEdgeStyle;entryX=0.5;entryY=0;entryDx=0;entryDy=0;entryPerimeter=0;curved=1;" parent="1" source="iwcDW4btiEjeqznmIjvd-92" target="iwcDW4btiEjeqznmIjvd-117" edge="1">
          <mxGeometry relative="1" as="geometry">
            <Array as="points">
              <mxPoint x="1070" y="570" />
              <mxPoint x="1130" y="570" />
            </Array>
          </mxGeometry>
        </mxCell>
        <mxCell id="iwcDW4btiEjeqznmIjvd-92" value="GND" style="shape=stencil(rZPBDoIwDIafZve5Ee8G9T3KqLIwNjKmyNs7qDESmAdCwqX/R7+ypTCZdxW0yAS30CCTZyaERwPD4agqsBZNDCKtCGVU9bMKuhZVoOgJXkNhkEgXvKux12X49GtboddhpPLC+Cm+Mz4yVy7OUkE7283ID48y0Db28hfJBA0ZqOJUtdHfYEBP6YFSJq4btdleWj7Tir202XatzGOSuniZF6Dqu3cPWy67kuzmPK6AL9bG0FL8OaYftylxb3xtAefLmdIm504nWnz4lNLPMQVv);whiteSpace=wrap;html=1;points=[[0,0.5,0,0,0],[0.5,0,0,0,0],[0.5,1,0,0,0],[1,0.5,0,0,0]];" parent="1" vertex="1">
          <mxGeometry x="1050" y="470" width="40" height="40" as="geometry" />
        </mxCell>
        <mxCell id="iwcDW4btiEjeqznmIjvd-93" value="SCL" style="shape=stencil(rZPBDoIwDIafZve5Ee8G9T3KqLIwNjKmyNs7qDESmAdCwqX/R7+ypTCZdxW0yAS30CCTZyaERwPD4agqsBZNDCKtCGVU9bMKuhZVoOgJXkNhkEgXvKux12X49GtboddhpPLC+Cm+Mz4yVy7OUkE7283ID48y0Db28hfJBA0ZqOJUtdHfYEBP6YFSJq4btdleWj7Tir202XatzGOSuniZF6Dqu3cPWy67kuzmPK6AL9bG0FL8OaYftylxb3xtAefLmdIm504nWnz4lNLPMQVv);whiteSpace=wrap;html=1;points=[[0,0.5,0,0,0],[0.5,0,0,0,0],[0.5,1,0,0,0],[1,0.5,0,0,0]];" parent="1" vertex="1">
          <mxGeometry x="993.5" y="470" width="40" height="40" as="geometry" />
        </mxCell>
        <mxCell id="iwcDW4btiEjeqznmIjvd-94" value="SDA" style="shape=stencil(rZPBDoIwDIafZve5Ee8G9T3KqLIwNjKmyNs7qDESmAdCwqX/R7+ypTCZdxW0yAS30CCTZyaERwPD4agqsBZNDCKtCGVU9bMKuhZVoOgJXkNhkEgXvKux12X49GtboddhpPLC+Cm+Mz4yVy7OUkE7283ID48y0Db28hfJBA0ZqOJUtdHfYEBP6YFSJq4btdleWj7Tir202XatzGOSuniZF6Dqu3cPWy67kuzmPK6AL9bG0FL8OaYftylxb3xtAefLmdIm504nWnz4lNLPMQVv);whiteSpace=wrap;html=1;points=[[0,0.5,0,0,0],[0.5,0,0,0,0],[0.5,1,0,0,0],[1,0.5,0,0,0]];" parent="1" vertex="1">
          <mxGeometry x="933.5" y="470" width="40" height="40" as="geometry" />
        </mxCell>
        <mxCell id="iwcDW4btiEjeqznmIjvd-95" value="5" style="shape=stencil(rZPBDoIwDIafZve5Ee8G9T3KqLIwNjKmyNs7qDESmAdCwqX/R7+ypTCZdxW0yAS30CCTZyaERwPD4agqsBZNDCKtCGVU9bMKuhZVoOgJXkNhkEgXvKux12X49GtboddhpPLC+Cm+Mz4yVy7OUkE7283ID48y0Db28hfJBA0ZqOJUtdHfYEBP6YFSJq4btdleWj7Tir202XatzGOSuniZF6Dqu3cPWy67kuzmPK6AL9bG0FL8OaYftylxb3xtAefLmdIm504nWnz4lNLPMQVv);whiteSpace=wrap;html=1;points=[[0,0.5,0,0,0],[0.5,0,0,0,0],[0.5,1,0,0,0],[1,0.5,0,0,0]];" parent="1" vertex="1">
          <mxGeometry x="90" y="660" width="40" height="40" as="geometry" />
        </mxCell>
        <mxCell id="iwcDW4btiEjeqznmIjvd-96" value="2" style="shape=stencil(rZPBDoIwDIafZve5Ee8G9T3KqLIwNjKmyNs7qDESmAdCwqX/R7+ypTCZdxW0yAS30CCTZyaERwPD4agqsBZNDCKtCGVU9bMKuhZVoOgJXkNhkEgXvKux12X49GtboddhpPLC+Cm+Mz4yVy7OUkE7283ID48y0Db28hfJBA0ZqOJUtdHfYEBP6YFSJq4btdleWj7Tir202XatzGOSuniZF6Dqu3cPWy67kuzmPK6AL9bG0FL8OaYftylxb3xtAefLmdIm504nWnz4lNLPMQVv);whiteSpace=wrap;html=1;points=[[0,0.5,0,0,0],[0.5,0,0,0,0],[0.5,1,0,0,0],[1,0.5,0,0,0]];" parent="1" vertex="1">
          <mxGeometry x="90" y="380" width="40" height="40" as="geometry" />
        </mxCell>
        <mxCell id="iwcDW4btiEjeqznmIjvd-97" value="3" style="shape=stencil(rZPBDoIwDIafZve5Ee8G9T3KqLIwNjKmyNs7qDESmAdCwqX/R7+ypTCZdxW0yAS30CCTZyaERwPD4agqsBZNDCKtCGVU9bMKuhZVoOgJXkNhkEgXvKux12X49GtboddhpPLC+Cm+Mz4yVy7OUkE7283ID48y0Db28hfJBA0ZqOJUtdHfYEBP6YFSJq4btdleWj7Tir202XatzGOSuniZF6Dqu3cPWy67kuzmPK6AL9bG0FL8OaYftylxb3xtAefLmdIm504nWnz4lNLPMQVv);whiteSpace=wrap;html=1;points=[[0,0.5,0,0,0],[0.5,0,0,0,0],[0.5,1,0,0,0],[1,0.5,0,0,0]];" parent="1" vertex="1">
          <mxGeometry x="90" y="450" width="40" height="40" as="geometry" />
        </mxCell>
        <mxCell id="iwcDW4btiEjeqznmIjvd-98" value="4" style="shape=stencil(rZPBDoIwDIafZve5Ee8G9T3KqLIwNjKmyNs7qDESmAdCwqX/R7+ypTCZdxW0yAS30CCTZyaERwPD4agqsBZNDCKtCGVU9bMKuhZVoOgJXkNhkEgXvKux12X49GtboddhpPLC+Cm+Mz4yVy7OUkE7283ID48y0Db28hfJBA0ZqOJUtdHfYEBP6YFSJq4btdleWj7Tir202XatzGOSuniZF6Dqu3cPWy67kuzmPK6AL9bG0FL8OaYftylxb3xtAefLmdIm504nWnz4lNLPMQVv);whiteSpace=wrap;html=1;points=[[0,0.5,0,0,0],[0.5,0,0,0,0],[0.5,1,0,0,0],[1,0.5,0,0,0]];" parent="1" vertex="1">
          <mxGeometry x="90" y="520" width="40" height="40" as="geometry" />
        </mxCell>
        <mxCell id="iwcDW4btiEjeqznmIjvd-110" style="edgeStyle=orthogonalEdgeStyle;shape=connector;rounded=0;orthogonalLoop=1;jettySize=auto;html=1;exitX=0;exitY=0.5;exitDx=0;exitDy=0;exitPerimeter=0;strokeColor=default;align=center;verticalAlign=middle;fontFamily=Helvetica;fontSize=11;fontColor=default;labelBackgroundColor=default;endArrow=none;endFill=0;" parent="1" source="iwcDW4btiEjeqznmIjvd-100" edge="1">
          <mxGeometry relative="1" as="geometry">
            <mxPoint x="-30" y="240" as="targetPoint" />
            <Array as="points">
              <mxPoint x="60" y="330" />
              <mxPoint x="60" y="240" />
            </Array>
          </mxGeometry>
        </mxCell>
        <mxCell id="iwcDW4btiEjeqznmIjvd-100" value="1" style="shape=stencil(rZPBDoIwDIafZve5Ee8G9T3KqLIwNjKmyNs7qDESmAdCwqX/R7+ypTCZdxW0yAS30CCTZyaERwPD4agqsBZNDCKtCGVU9bMKuhZVoOgJXkNhkEgXvKux12X49GtboddhpPLC+Cm+Mz4yVy7OUkE7283ID48y0Db28hfJBA0ZqOJUtdHfYEBP6YFSJq4btdleWj7Tir202XatzGOSuniZF6Dqu3cPWy67kuzmPK6AL9bG0FL8OaYftylxb3xtAefLmdIm504nWnz4lNLPMQVv);whiteSpace=wrap;html=1;points=[[0,0.5,0,0,0],[0.5,0,0,0,0],[0.5,1,0,0,0],[1,0.5,0,0,0]];" parent="1" vertex="1">
          <mxGeometry x="90" y="310" width="40" height="40" as="geometry" />
        </mxCell>
        <mxCell id="iwcDW4btiEjeqznmIjvd-130" style="edgeStyle=orthogonalEdgeStyle;shape=connector;rounded=0;orthogonalLoop=1;jettySize=auto;html=1;exitX=1;exitY=0.5;exitDx=0;exitDy=0;exitPerimeter=0;strokeColor=default;align=center;verticalAlign=middle;fontFamily=Helvetica;fontSize=11;fontColor=default;labelBackgroundColor=default;endArrow=none;endFill=0;" parent="1" source="iwcDW4btiEjeqznmIjvd-101" edge="1">
          <mxGeometry relative="1" as="geometry">
            <mxPoint x="-150" y="470" as="targetPoint" />
          </mxGeometry>
        </mxCell>
        <mxCell id="iwcDW4btiEjeqznmIjvd-101" value="" style="shape=stencil(rZPBDoIwDIafZve5Ee8G9T3KqLIwNjKmyNs7qDESmAdCwqX/R7+ypTCZdxW0yAS30CCTZyaERwPD4agqsBZNDCKtCGVU9bMKuhZVoOgJXkNhkEgXvKux12X49GtboddhpPLC+Cm+Mz4yVy7OUkE7283ID48y0Db28hfJBA0ZqOJUtdHfYEBP6YFSJq4btdleWj7Tir202XatzGOSuniZF6Dqu3cPWy67kuzmPK6AL9bG0FL8OaYftylxb3xtAefLmdIm504nWnz4lNLPMQVv);whiteSpace=wrap;html=1;points=[[0,0.5,0,0,0],[0.5,0,0,0,0],[0.5,1,0,0,0],[1,0.5,0,0,0]];" parent="1" vertex="1">
          <mxGeometry x="-310" y="450" width="40" height="40" as="geometry" />
        </mxCell>
        <mxCell id="iwcDW4btiEjeqznmIjvd-131" style="edgeStyle=orthogonalEdgeStyle;shape=connector;rounded=0;orthogonalLoop=1;jettySize=auto;html=1;exitX=1;exitY=0.5;exitDx=0;exitDy=0;exitPerimeter=0;strokeColor=default;align=center;verticalAlign=middle;fontFamily=Helvetica;fontSize=11;fontColor=default;labelBackgroundColor=default;endArrow=none;endFill=0;" parent="1" source="iwcDW4btiEjeqznmIjvd-102" edge="1">
          <mxGeometry relative="1" as="geometry">
            <mxPoint x="-190" y="539.8823529411766" as="targetPoint" />
          </mxGeometry>
        </mxCell>
        <mxCell id="iwcDW4btiEjeqznmIjvd-102" value="" style="shape=stencil(rZPBDoIwDIafZve5Ee8G9T3KqLIwNjKmyNs7qDESmAdCwqX/R7+ypTCZdxW0yAS30CCTZyaERwPD4agqsBZNDCKtCGVU9bMKuhZVoOgJXkNhkEgXvKux12X49GtboddhpPLC+Cm+Mz4yVy7OUkE7283ID48y0Db28hfJBA0ZqOJUtdHfYEBP6YFSJq4btdleWj7Tir202XatzGOSuniZF6Dqu3cPWy67kuzmPK6AL9bG0FL8OaYftylxb3xtAefLmdIm504nWnz4lNLPMQVv);whiteSpace=wrap;html=1;points=[[0,0.5,0,0,0],[0.5,0,0,0,0],[0.5,1,0,0,0],[1,0.5,0,0,0]];" parent="1" vertex="1">
          <mxGeometry x="-310" y="520" width="40" height="40" as="geometry" />
        </mxCell>
        <mxCell id="iwcDW4btiEjeqznmIjvd-132" style="edgeStyle=orthogonalEdgeStyle;shape=connector;rounded=0;orthogonalLoop=1;jettySize=auto;html=1;exitX=0.5;exitY=1;exitDx=0;exitDy=0;exitPerimeter=0;strokeColor=default;align=center;verticalAlign=middle;fontFamily=Helvetica;fontSize=11;fontColor=default;labelBackgroundColor=default;endArrow=none;endFill=0;" parent="1" source="iwcDW4btiEjeqznmIjvd-103" edge="1">
          <mxGeometry relative="1" as="geometry">
            <mxPoint x="-110" y="800" as="targetPoint" />
            <Array as="points">
              <mxPoint x="-290" y="800" />
            </Array>
          </mxGeometry>
        </mxCell>
        <mxCell id="iwcDW4btiEjeqznmIjvd-103" value="" style="shape=stencil(rZPBDoIwDIafZve5Ee8G9T3KqLIwNjKmyNs7qDESmAdCwqX/R7+ypTCZdxW0yAS30CCTZyaERwPD4agqsBZNDCKtCGVU9bMKuhZVoOgJXkNhkEgXvKux12X49GtboddhpPLC+Cm+Mz4yVy7OUkE7283ID48y0Db28hfJBA0ZqOJUtdHfYEBP6YFSJq4btdleWj7Tir202XatzGOSuniZF6Dqu3cPWy67kuzmPK6AL9bG0FL8OaYftylxb3xtAefLmdIm504nWnz4lNLPMQVv);whiteSpace=wrap;html=1;points=[[0,0.5,0,0,0],[0.5,0,0,0,0],[0.5,1,0,0,0],[1,0.5,0,0,0]];" parent="1" vertex="1">
          <mxGeometry x="-310" y="590" width="40" height="40" as="geometry" />
        </mxCell>
        <mxCell id="iwcDW4btiEjeqznmIjvd-125" style="edgeStyle=orthogonalEdgeStyle;shape=connector;rounded=0;orthogonalLoop=1;jettySize=auto;html=1;exitX=0;exitY=0.5;exitDx=0;exitDy=0;exitPerimeter=0;strokeColor=default;align=center;verticalAlign=middle;fontFamily=Helvetica;fontSize=11;fontColor=default;labelBackgroundColor=default;endArrow=none;endFill=0;strokeWidth=4;" parent="1" source="iwcDW4btiEjeqznmIjvd-104" edge="1">
          <mxGeometry relative="1" as="geometry">
            <mxPoint x="-390" y="400" as="targetPoint" />
          </mxGeometry>
        </mxCell>
        <mxCell id="iwcDW4btiEjeqznmIjvd-129" style="edgeStyle=orthogonalEdgeStyle;shape=connector;rounded=0;orthogonalLoop=1;jettySize=auto;html=1;exitX=1;exitY=0.5;exitDx=0;exitDy=0;exitPerimeter=0;strokeColor=default;align=center;verticalAlign=middle;fontFamily=Helvetica;fontSize=11;fontColor=default;labelBackgroundColor=default;endArrow=none;endFill=0;" parent="1" source="iwcDW4btiEjeqznmIjvd-104" edge="1">
          <mxGeometry relative="1" as="geometry">
            <mxPoint x="-110" y="399.8823529411766" as="targetPoint" />
          </mxGeometry>
        </mxCell>
        <mxCell id="iwcDW4btiEjeqznmIjvd-104" value="" style="shape=stencil(rZPBDoIwDIafZve5Ee8G9T3KqLIwNjKmyNs7qDESmAdCwqX/R7+ypTCZdxW0yAS30CCTZyaERwPD4agqsBZNDCKtCGVU9bMKuhZVoOgJXkNhkEgXvKux12X49GtboddhpPLC+Cm+Mz4yVy7OUkE7283ID48y0Db28hfJBA0ZqOJUtdHfYEBP6YFSJq4btdleWj7Tir202XatzGOSuniZF6Dqu3cPWy67kuzmPK6AL9bG0FL8OaYftylxb3xtAefLmdIm504nWnz4lNLPMQVv);whiteSpace=wrap;html=1;points=[[0,0.5,0,0,0],[0.5,0,0,0,0],[0.5,1,0,0,0],[1,0.5,0,0,0]];" parent="1" vertex="1">
          <mxGeometry x="-310" y="380" width="40" height="40" as="geometry" />
        </mxCell>
        <mxCell id="iwcDW4btiEjeqznmIjvd-106" style="edgeStyle=orthogonalEdgeStyle;shape=connector;rounded=0;orthogonalLoop=1;jettySize=auto;html=1;exitX=1;exitY=0.5;exitDx=0;exitDy=0;exitPerimeter=0;entryX=0;entryY=0.5;entryDx=0;entryDy=0;entryPerimeter=0;strokeColor=default;align=center;verticalAlign=middle;fontFamily=Helvetica;fontSize=11;fontColor=default;labelBackgroundColor=default;endArrow=none;endFill=0;" parent="1" source="iwcDW4btiEjeqznmIjvd-16" target="iwcDW4btiEjeqznmIjvd-96" edge="1">
          <mxGeometry relative="1" as="geometry" />
        </mxCell>
        <mxCell id="iwcDW4btiEjeqznmIjvd-107" style="edgeStyle=orthogonalEdgeStyle;shape=connector;rounded=0;orthogonalLoop=1;jettySize=auto;html=1;exitX=1;exitY=0.5;exitDx=0;exitDy=0;exitPerimeter=0;entryX=0;entryY=0.499;entryDx=0;entryDy=0;entryPerimeter=0;strokeColor=default;align=center;verticalAlign=middle;fontFamily=Helvetica;fontSize=11;fontColor=default;labelBackgroundColor=default;endArrow=none;endFill=0;" parent="1" source="iwcDW4btiEjeqznmIjvd-17" target="iwcDW4btiEjeqznmIjvd-97" edge="1">
          <mxGeometry relative="1" as="geometry" />
        </mxCell>
        <mxCell id="iwcDW4btiEjeqznmIjvd-108" style="edgeStyle=orthogonalEdgeStyle;shape=connector;rounded=0;orthogonalLoop=1;jettySize=auto;html=1;exitX=1;exitY=0.5;exitDx=0;exitDy=0;exitPerimeter=0;entryX=0;entryY=0.5;entryDx=0;entryDy=0;entryPerimeter=0;strokeColor=default;align=center;verticalAlign=middle;fontFamily=Helvetica;fontSize=11;fontColor=default;labelBackgroundColor=default;endArrow=none;endFill=0;" parent="1" source="iwcDW4btiEjeqznmIjvd-18" target="iwcDW4btiEjeqznmIjvd-98" edge="1">
          <mxGeometry relative="1" as="geometry" />
        </mxCell>
        <mxCell id="iwcDW4btiEjeqznmIjvd-16" value="" style="verticalLabelPosition=bottom;shadow=0;dashed=0;align=center;html=1;verticalAlign=top;shape=mxgraph.electrical.logic_gates.schmitt_trigger;" parent="1" vertex="1">
          <mxGeometry x="-70" y="370" width="100" height="60" as="geometry" />
        </mxCell>
        <mxCell id="iwcDW4btiEjeqznmIjvd-112" value="" style="endArrow=none;html=1;rounded=0;strokeColor=default;align=center;verticalAlign=middle;fontFamily=Helvetica;fontSize=11;fontColor=default;labelBackgroundColor=default;edgeStyle=orthogonalEdgeStyle;entryX=0.399;entryY=0.827;entryDx=0;entryDy=0;entryPerimeter=0;" parent="1" target="iwcDW4btiEjeqznmIjvd-21" edge="1">
          <mxGeometry width="50" height="50" relative="1" as="geometry">
            <mxPoint x="-30" y="800" as="sourcePoint" />
            <mxPoint x="-10" y="760" as="targetPoint" />
            <Array as="points">
              <mxPoint x="-30" y="790" />
              <mxPoint x="-30" y="790" />
            </Array>
          </mxGeometry>
        </mxCell>
        <mxCell id="iwcDW4btiEjeqznmIjvd-115" value="Q" style="shape=stencil(rZPBDoIwDIafZve5Ee8G9T3KqLIwNjKmyNs7qDESmAdCwqX/R7+ypTCZdxW0yAS30CCTZyaERwPD4agqsBZNDCKtCGVU9bMKuhZVoOgJXkNhkEgXvKux12X49GtboddhpPLC+Cm+Mz4yVy7OUkE7283ID48y0Db28hfJBA0ZqOJUtdHfYEBP6YFSJq4btdleWj7Tir202XatzGOSuniZF6Dqu3cPWy67kuzmPK6AL9bG0FL8OaYftylxb3xtAefLmdIm504nWnz4lNLPMQVv);whiteSpace=wrap;html=1;points=[[0,0.5,0,0,0],[0.5,0,0,0,0],[0.5,1,0,0,0],[1,0.5,0,0,0]];" parent="1" vertex="1">
          <mxGeometry x="990" y="600" width="40" height="40" as="geometry" />
        </mxCell>
        <mxCell id="iwcDW4btiEjeqznmIjvd-116" value="VDD" style="shape=stencil(rZPBDoIwDIafZve5Ee8G9T3KqLIwNjKmyNs7qDESmAdCwqX/R7+ypTCZdxW0yAS30CCTZyaERwPD4agqsBZNDCKtCGVU9bMKuhZVoOgJXkNhkEgXvKux12X49GtboddhpPLC+Cm+Mz4yVy7OUkE7283ID48y0Db28hfJBA0ZqOJUtdHfYEBP6YFSJq4btdleWj7Tir202XatzGOSuniZF6Dqu3cPWy67kuzmPK6AL9bG0FL8OaYftylxb3xtAefLmdIm504nWnz4lNLPMQVv);whiteSpace=wrap;html=1;points=[[0,0.5,0,0,0],[0.5,0,0,0,0],[0.5,1,0,0,0],[1,0.5,0,0,0]];" parent="1" vertex="1">
          <mxGeometry x="1050" y="600" width="40" height="40" as="geometry" />
        </mxCell>
        <mxCell id="iwcDW4btiEjeqznmIjvd-117" value="GND" style="shape=stencil(rZPBDoIwDIafZve5Ee8G9T3KqLIwNjKmyNs7qDESmAdCwqX/R7+ypTCZdxW0yAS30CCTZyaERwPD4agqsBZNDCKtCGVU9bMKuhZVoOgJXkNhkEgXvKux12X49GtboddhpPLC+Cm+Mz4yVy7OUkE7283ID48y0Db28hfJBA0ZqOJUtdHfYEBP6YFSJq4btdleWj7Tir202XatzGOSuniZF6Dqu3cPWy67kuzmPK6AL9bG0FL8OaYftylxb3xtAefLmdIm504nWnz4lNLPMQVv);whiteSpace=wrap;html=1;points=[[0,0.5,0,0,0],[0.5,0,0,0,0],[0.5,1,0,0,0],[1,0.5,0,0,0]];" parent="1" vertex="1">
          <mxGeometry x="1110" y="600" width="40" height="40" as="geometry" />
        </mxCell>
        <mxCell id="iwcDW4btiEjeqznmIjvd-118" value="Q" style="shape=stencil(rZPBDoIwDIafZve5Ee8G9T3KqLIwNjKmyNs7qDESmAdCwqX/R7+ypTCZdxW0yAS30CCTZyaERwPD4agqsBZNDCKtCGVU9bMKuhZVoOgJXkNhkEgXvKux12X49GtboddhpPLC+Cm+Mz4yVy7OUkE7283ID48y0Db28hfJBA0ZqOJUtdHfYEBP6YFSJq4btdleWj7Tir202XatzGOSuniZF6Dqu3cPWy67kuzmPK6AL9bG0FL8OaYftylxb3xtAefLmdIm504nWnz4lNLPMQVv);whiteSpace=wrap;html=1;points=[[0,0.5,0,0,0],[0.5,0,0,0,0],[0.5,1,0,0,0],[1,0.5,0,0,0]];" parent="1" vertex="1">
          <mxGeometry x="990" y="670" width="40" height="40" as="geometry" />
        </mxCell>
        <mxCell id="iwcDW4btiEjeqznmIjvd-119" value="VDD" style="shape=stencil(rZPBDoIwDIafZve5Ee8G9T3KqLIwNjKmyNs7qDESmAdCwqX/R7+ypTCZdxW0yAS30CCTZyaERwPD4agqsBZNDCKtCGVU9bMKuhZVoOgJXkNhkEgXvKux12X49GtboddhpPLC+Cm+Mz4yVy7OUkE7283ID48y0Db28hfJBA0ZqOJUtdHfYEBP6YFSJq4btdleWj7Tir202XatzGOSuniZF6Dqu3cPWy67kuzmPK6AL9bG0FL8OaYftylxb3xtAefLmdIm504nWnz4lNLPMQVv);whiteSpace=wrap;html=1;points=[[0,0.5,0,0,0],[0.5,0,0,0,0],[0.5,1,0,0,0],[1,0.5,0,0,0]];" parent="1" vertex="1">
          <mxGeometry x="1050" y="670" width="40" height="40" as="geometry" />
        </mxCell>
        <mxCell id="iwcDW4btiEjeqznmIjvd-120" value="GND" style="shape=stencil(rZPBDoIwDIafZve5Ee8G9T3KqLIwNjKmyNs7qDESmAdCwqX/R7+ypTCZdxW0yAS30CCTZyaERwPD4agqsBZNDCKtCGVU9bMKuhZVoOgJXkNhkEgXvKux12X49GtboddhpPLC+Cm+Mz4yVy7OUkE7283ID48y0Db28hfJBA0ZqOJUtdHfYEBP6YFSJq4btdleWj7Tir202XatzGOSuniZF6Dqu3cPWy67kuzmPK6AL9bG0FL8OaYftylxb3xtAefLmdIm504nWnz4lNLPMQVv);whiteSpace=wrap;html=1;points=[[0,0.5,0,0,0],[0.5,0,0,0,0],[0.5,1,0,0,0],[1,0.5,0,0,0]];" parent="1" vertex="1">
          <mxGeometry x="1110" y="670" width="40" height="40" as="geometry" />
        </mxCell>
        <mxCell id="iwcDW4btiEjeqznmIjvd-121" value="Q" style="shape=stencil(rZPBDoIwDIafZve5Ee8G9T3KqLIwNjKmyNs7qDESmAdCwqX/R7+ypTCZdxW0yAS30CCTZyaERwPD4agqsBZNDCKtCGVU9bMKuhZVoOgJXkNhkEgXvKux12X49GtboddhpPLC+Cm+Mz4yVy7OUkE7283ID48y0Db28hfJBA0ZqOJUtdHfYEBP6YFSJq4btdleWj7Tir202XatzGOSuniZF6Dqu3cPWy67kuzmPK6AL9bG0FL8OaYftylxb3xtAefLmdIm504nWnz4lNLPMQVv);whiteSpace=wrap;html=1;points=[[0,0.5,0,0,0],[0.5,0,0,0,0],[0.5,1,0,0,0],[1,0.5,0,0,0]];" parent="1" vertex="1">
          <mxGeometry x="990" y="750" width="40" height="40" as="geometry" />
        </mxCell>
        <mxCell id="iwcDW4btiEjeqznmIjvd-122" value="VDD" style="shape=stencil(rZPBDoIwDIafZve5Ee8G9T3KqLIwNjKmyNs7qDESmAdCwqX/R7+ypTCZdxW0yAS30CCTZyaERwPD4agqsBZNDCKtCGVU9bMKuhZVoOgJXkNhkEgXvKux12X49GtboddhpPLC+Cm+Mz4yVy7OUkE7283ID48y0Db28hfJBA0ZqOJUtdHfYEBP6YFSJq4btdleWj7Tir202XatzGOSuniZF6Dqu3cPWy67kuzmPK6AL9bG0FL8OaYftylxb3xtAefLmdIm504nWnz4lNLPMQVv);whiteSpace=wrap;html=1;points=[[0,0.5,0,0,0],[0.5,0,0,0,0],[0.5,1,0,0,0],[1,0.5,0,0,0]];" parent="1" vertex="1">
          <mxGeometry x="1050" y="750" width="40" height="40" as="geometry" />
        </mxCell>
        <mxCell id="iwcDW4btiEjeqznmIjvd-123" value="GND" style="shape=stencil(rZPBDoIwDIafZve5Ee8G9T3KqLIwNjKmyNs7qDESmAdCwqX/R7+ypTCZdxW0yAS30CCTZyaERwPD4agqsBZNDCKtCGVU9bMKuhZVoOgJXkNhkEgXvKux12X49GtboddhpPLC+Cm+Mz4yVy7OUkE7283ID48y0Db28hfJBA0ZqOJUtdHfYEBP6YFSJq4btdleWj7Tir202XatzGOSuniZF6Dqu3cPWy67kuzmPK6AL9bG0FL8OaYftylxb3xtAefLmdIm504nWnz4lNLPMQVv);whiteSpace=wrap;html=1;points=[[0,0.5,0,0,0],[0.5,0,0,0,0],[0.5,1,0,0,0],[1,0.5,0,0,0]];" parent="1" vertex="1">
          <mxGeometry x="1110" y="750" width="40" height="40" as="geometry" />
        </mxCell>
        <mxCell id="iwcDW4btiEjeqznmIjvd-126" style="edgeStyle=orthogonalEdgeStyle;shape=connector;rounded=0;orthogonalLoop=1;jettySize=auto;html=1;exitX=0;exitY=0.5;exitDx=0;exitDy=0;exitPerimeter=0;strokeColor=default;align=center;verticalAlign=middle;fontFamily=Helvetica;fontSize=11;fontColor=default;labelBackgroundColor=default;endArrow=none;endFill=0;strokeWidth=4;" parent="1" edge="1">
          <mxGeometry relative="1" as="geometry">
            <mxPoint x="-430" y="470" as="targetPoint" />
            <mxPoint x="-310" y="469.53" as="sourcePoint" />
          </mxGeometry>
        </mxCell>
        <mxCell id="iwcDW4btiEjeqznmIjvd-127" style="edgeStyle=orthogonalEdgeStyle;shape=connector;rounded=0;orthogonalLoop=1;jettySize=auto;html=1;exitX=0;exitY=0.5;exitDx=0;exitDy=0;exitPerimeter=0;strokeColor=default;align=center;verticalAlign=middle;fontFamily=Helvetica;fontSize=11;fontColor=default;labelBackgroundColor=default;endArrow=none;endFill=0;strokeWidth=4;" parent="1" edge="1">
          <mxGeometry relative="1" as="geometry">
            <mxPoint x="-490" y="539" as="targetPoint" />
            <mxPoint x="-310" y="539.53" as="sourcePoint" />
          </mxGeometry>
        </mxCell>
        <mxCell id="iwcDW4btiEjeqznmIjvd-128" style="edgeStyle=orthogonalEdgeStyle;shape=connector;rounded=0;orthogonalLoop=1;jettySize=auto;html=1;exitX=0;exitY=0.5;exitDx=0;exitDy=0;exitPerimeter=0;strokeColor=default;align=center;verticalAlign=middle;fontFamily=Helvetica;fontSize=11;fontColor=default;labelBackgroundColor=default;endArrow=none;endFill=0;strokeWidth=4;" parent="1" edge="1">
          <mxGeometry relative="1" as="geometry">
            <mxPoint x="-490" y="609.4123529411766" as="targetPoint" />
            <mxPoint x="-310" y="609.53" as="sourcePoint" />
          </mxGeometry>
        </mxCell>
        <mxCell id="iwcDW4btiEjeqznmIjvd-138" style="edgeStyle=orthogonalEdgeStyle;shape=connector;rounded=0;orthogonalLoop=1;jettySize=auto;html=1;exitX=0.5;exitY=1;exitDx=0;exitDy=0;exitPerimeter=0;entryX=0.5;entryY=0;entryDx=0;entryDy=0;entryPerimeter=0;strokeColor=default;align=center;verticalAlign=middle;fontFamily=Helvetica;fontSize=11;fontColor=default;labelBackgroundColor=default;endArrow=none;endFill=0;" parent="1" source="iwcDW4btiEjeqznmIjvd-89" target="iwcDW4btiEjeqznmIjvd-91" edge="1">
          <mxGeometry relative="1" as="geometry" />
        </mxCell>
        <mxCell id="iwcDW4btiEjeqznmIjvd-140" style="edgeStyle=orthogonalEdgeStyle;shape=connector;rounded=0;orthogonalLoop=1;jettySize=auto;html=1;exitX=0.5;exitY=1;exitDx=0;exitDy=0;exitPerimeter=0;entryX=0.5;entryY=0;entryDx=0;entryDy=0;entryPerimeter=0;strokeColor=default;align=center;verticalAlign=middle;fontFamily=Helvetica;fontSize=11;fontColor=default;labelBackgroundColor=default;endArrow=none;endFill=0;" parent="1" source="iwcDW4btiEjeqznmIjvd-116" target="iwcDW4btiEjeqznmIjvd-119" edge="1">
          <mxGeometry relative="1" as="geometry" />
        </mxCell>
        <mxCell id="iwcDW4btiEjeqznmIjvd-141" style="edgeStyle=orthogonalEdgeStyle;shape=connector;rounded=0;orthogonalLoop=1;jettySize=auto;html=1;exitX=0.5;exitY=1;exitDx=0;exitDy=0;exitPerimeter=0;entryX=0.5;entryY=0;entryDx=0;entryDy=0;entryPerimeter=0;strokeColor=default;align=center;verticalAlign=middle;fontFamily=Helvetica;fontSize=11;fontColor=default;labelBackgroundColor=default;endArrow=none;endFill=0;" parent="1" source="iwcDW4btiEjeqznmIjvd-119" target="iwcDW4btiEjeqznmIjvd-122" edge="1">
          <mxGeometry relative="1" as="geometry" />
        </mxCell>
        <mxCell id="iwcDW4btiEjeqznmIjvd-143" style="edgeStyle=orthogonalEdgeStyle;shape=connector;rounded=0;orthogonalLoop=1;jettySize=auto;html=1;exitX=0.5;exitY=1;exitDx=0;exitDy=0;exitPerimeter=0;entryX=0.5;entryY=0;entryDx=0;entryDy=0;entryPerimeter=0;strokeColor=default;align=center;verticalAlign=middle;fontFamily=Helvetica;fontSize=11;fontColor=default;labelBackgroundColor=default;endArrow=none;endFill=0;" parent="1" source="iwcDW4btiEjeqznmIjvd-117" target="iwcDW4btiEjeqznmIjvd-120" edge="1">
          <mxGeometry relative="1" as="geometry" />
        </mxCell>
        <mxCell id="iwcDW4btiEjeqznmIjvd-144" style="edgeStyle=orthogonalEdgeStyle;shape=connector;rounded=0;orthogonalLoop=1;jettySize=auto;html=1;exitX=0.5;exitY=1;exitDx=0;exitDy=0;exitPerimeter=0;entryX=0.5;entryY=0;entryDx=0;entryDy=0;entryPerimeter=0;strokeColor=default;align=center;verticalAlign=middle;fontFamily=Helvetica;fontSize=11;fontColor=default;labelBackgroundColor=default;endArrow=none;endFill=0;" parent="1" source="iwcDW4btiEjeqznmIjvd-120" target="iwcDW4btiEjeqznmIjvd-123" edge="1">
          <mxGeometry relative="1" as="geometry" />
        </mxCell>
        <mxCell id="iwcDW4btiEjeqznmIjvd-145" style="edgeStyle=orthogonalEdgeStyle;shape=connector;rounded=0;orthogonalLoop=1;jettySize=auto;html=1;exitX=0.5;exitY=1;exitDx=0;exitDy=0;exitPerimeter=0;entryX=0.5;entryY=0;entryDx=0;entryDy=0;entryPerimeter=0;strokeColor=default;align=center;verticalAlign=middle;fontFamily=Helvetica;fontSize=11;fontColor=default;labelBackgroundColor=default;endArrow=none;endFill=0;" parent="1" source="iwcDW4btiEjeqznmIjvd-90" target="iwcDW4btiEjeqznmIjvd-92" edge="1">
          <mxGeometry relative="1" as="geometry" />
        </mxCell>
        <mxCell id="iwcDW4btiEjeqznmIjvd-146" style="edgeStyle=orthogonalEdgeStyle;shape=connector;rounded=0;orthogonalLoop=1;jettySize=auto;html=1;exitX=0.5;exitY=1;exitDx=0;exitDy=0;exitPerimeter=0;entryX=0.5;entryY=0;entryDx=0;entryDy=0;entryPerimeter=0;strokeColor=default;align=center;verticalAlign=middle;fontFamily=Helvetica;fontSize=11;fontColor=default;labelBackgroundColor=default;endArrow=none;endFill=0;" parent="1" source="iwcDW4btiEjeqznmIjvd-87" target="iwcDW4btiEjeqznmIjvd-93" edge="1">
          <mxGeometry relative="1" as="geometry" />
        </mxCell>
        <mxCell id="iwcDW4btiEjeqznmIjvd-148" style="edgeStyle=orthogonalEdgeStyle;shape=connector;rounded=0;orthogonalLoop=1;jettySize=auto;html=1;exitX=0.5;exitY=0;exitDx=0;exitDy=0;exitPerimeter=0;entryX=0.5;entryY=1;entryDx=0;entryDy=0;entryPerimeter=0;strokeColor=default;align=center;verticalAlign=middle;fontFamily=Helvetica;fontSize=11;fontColor=default;labelBackgroundColor=default;endArrow=none;endFill=0;" parent="1" source="iwcDW4btiEjeqznmIjvd-94" target="iwcDW4btiEjeqznmIjvd-88" edge="1">
          <mxGeometry relative="1" as="geometry" />
        </mxCell>
        <mxCell id="iwcDW4btiEjeqznmIjvd-149" value="&lt;font style=&quot;font-size: 18px;&quot;&gt;BME280&lt;/font&gt;" style="text;strokeColor=none;align=center;fillColor=none;html=1;verticalAlign=middle;whiteSpace=wrap;rounded=0;fontFamily=Helvetica;fontSize=11;fontColor=default;labelBackgroundColor=default;" parent="1" vertex="1">
          <mxGeometry x="930" y="520" width="60" height="30" as="geometry" />
        </mxCell>
        <mxCell id="iwcDW4btiEjeqznmIjvd-150" value="&lt;font style=&quot;font-size: 18px;&quot;&gt;ADC&lt;/font&gt;" style="text;strokeColor=none;align=center;fillColor=#b1ddf0;html=1;verticalAlign=middle;whiteSpace=wrap;rounded=0;fontFamily=Helvetica;fontSize=11;labelBackgroundColor=default;fillStyle=solid;" parent="1" vertex="1">
          <mxGeometry x="560" y="370" width="60" height="30" as="geometry" />
        </mxCell>
        <mxCell id="iwcDW4btiEjeqznmIjvd-153" style="edgeStyle=orthogonalEdgeStyle;shape=connector;rounded=0;orthogonalLoop=1;jettySize=auto;html=1;exitX=0.5;exitY=1;exitDx=0;exitDy=0;exitPerimeter=0;entryX=0.5;entryY=0;entryDx=0;entryDy=0;entryPerimeter=0;strokeColor=default;align=center;verticalAlign=middle;fontFamily=Helvetica;fontSize=11;fontColor=default;labelBackgroundColor=default;endArrow=none;endFill=0;curved=1;" parent="1" source="iwcDW4btiEjeqznmIjvd-91" target="iwcDW4btiEjeqznmIjvd-116" edge="1">
          <mxGeometry relative="1" as="geometry">
            <Array as="points">
              <mxPoint x="1130" y="570" />
              <mxPoint x="1070" y="570" />
            </Array>
          </mxGeometry>
        </mxCell>
        <mxCell id="iwcDW4btiEjeqznmIjvd-154" style="edgeStyle=orthogonalEdgeStyle;shape=connector;rounded=0;orthogonalLoop=1;jettySize=auto;html=1;exitX=0.5;exitY=1;exitDx=0;exitDy=0;exitPerimeter=0;entryX=0;entryY=0.5;entryDx=0;entryDy=0;entryPerimeter=0;strokeColor=default;align=center;verticalAlign=middle;fontFamily=Helvetica;fontSize=11;fontColor=default;labelBackgroundColor=default;endArrow=none;endFill=0;" parent="1" source="iwcDW4btiEjeqznmIjvd-83" target="iwcDW4btiEjeqznmIjvd-115" edge="1">
          <mxGeometry relative="1" as="geometry" />
        </mxCell>
        <mxCell id="iwcDW4btiEjeqznmIjvd-156" style="edgeStyle=orthogonalEdgeStyle;shape=connector;rounded=0;orthogonalLoop=1;jettySize=auto;html=1;exitX=0;exitY=0.5;exitDx=0;exitDy=0;exitPerimeter=0;entryX=0.5;entryY=1;entryDx=0;entryDy=0;entryPerimeter=0;strokeColor=default;align=center;verticalAlign=middle;fontFamily=Helvetica;fontSize=11;fontColor=default;labelBackgroundColor=default;endArrow=none;endFill=0;" parent="1" source="iwcDW4btiEjeqznmIjvd-118" target="iwcDW4btiEjeqznmIjvd-84" edge="1">
          <mxGeometry relative="1" as="geometry" />
        </mxCell>
        <mxCell id="iwcDW4btiEjeqznmIjvd-157" style="edgeStyle=orthogonalEdgeStyle;shape=connector;rounded=0;orthogonalLoop=1;jettySize=auto;html=1;exitX=0;exitY=0.5;exitDx=0;exitDy=0;exitPerimeter=0;entryX=0.5;entryY=1;entryDx=0;entryDy=0;entryPerimeter=0;strokeColor=default;align=center;verticalAlign=middle;fontFamily=Helvetica;fontSize=11;fontColor=default;labelBackgroundColor=default;endArrow=none;endFill=0;" parent="1" source="iwcDW4btiEjeqznmIjvd-121" target="iwcDW4btiEjeqznmIjvd-85" edge="1">
          <mxGeometry relative="1" as="geometry" />
        </mxCell>
        <mxCell id="8Se8d8TxG7XIVdDQDwcc-54" style="edgeStyle=orthogonalEdgeStyle;shape=connector;rounded=0;orthogonalLoop=1;jettySize=auto;html=1;exitX=0.5;exitY=1;exitDx=0;exitDy=0;exitPerimeter=0;strokeColor=default;align=center;verticalAlign=middle;fontFamily=Helvetica;fontSize=11;fontColor=default;labelBackgroundColor=default;startArrow=none;startFill=0;endArrow=none;endFill=0;curved=1;" parent="1" source="g6izaSV6HPuNyHcQO4aN-1" target="vi9AejaFBc3eNM1fVHRH-39" edge="1">
          <mxGeometry relative="1" as="geometry" />
        </mxCell>
        <mxCell id="g6izaSV6HPuNyHcQO4aN-1" value="L" style="shape=stencil(rZPBDoIwDIafZve5Ee8G9T3KqLIwNjKmyNs7qDESmAdCwqX/R7+ypTCZdxW0yAS30CCTZyaERwPD4agqsBZNDCKtCGVU9bMKuhZVoOgJXkNhkEgXvKux12X49GtboddhpPLC+Cm+Mz4yVy7OUkE7283ID48y0Db28hfJBA0ZqOJUtdHfYEBP6YFSJq4btdleWj7Tir202XatzGOSuniZF6Dqu3cPWy67kuzmPK6AL9bG0FL8OaYftylxb3xtAefLmdIm504nWnz4lNLPMQVv);whiteSpace=wrap;html=1;points=[[0,0.5,0,0,0],[0.5,0,0,0,0],[0.5,1,0,0,0],[1,0.5,0,0,0]];" parent="1" vertex="1">
          <mxGeometry x="1029" y="1000" width="40" height="40" as="geometry" />
        </mxCell>
        <mxCell id="8Se8d8TxG7XIVdDQDwcc-98" style="edgeStyle=orthogonalEdgeStyle;shape=connector;rounded=0;orthogonalLoop=1;jettySize=auto;html=1;exitX=0.5;exitY=1;exitDx=0;exitDy=0;exitPerimeter=0;entryX=0.5;entryY=0;entryDx=0;entryDy=0;strokeColor=default;align=center;verticalAlign=middle;fontFamily=Helvetica;fontSize=11;fontColor=default;labelBackgroundColor=default;startArrow=none;startFill=0;endArrow=none;endFill=0;curved=1;" parent="1" source="g6izaSV6HPuNyHcQO4aN-2" target="vi9AejaFBc3eNM1fVHRH-38" edge="1">
          <mxGeometry relative="1" as="geometry" />
        </mxCell>
        <mxCell id="g6izaSV6HPuNyHcQO4aN-2" value="HEAT" style="shape=stencil(rZPBDoIwDIafZve5Ee8G9T3KqLIwNjKmyNs7qDESmAdCwqX/R7+ypTCZdxW0yAS30CCTZyaERwPD4agqsBZNDCKtCGVU9bMKuhZVoOgJXkNhkEgXvKux12X49GtboddhpPLC+Cm+Mz4yVy7OUkE7283ID48y0Db28hfJBA0ZqOJUtdHfYEBP6YFSJq4btdleWj7Tir202XatzGOSuniZF6Dqu3cPWy67kuzmPK6AL9bG0FL8OaYftylxb3xtAefLmdIm504nWnz4lNLPMQVv);whiteSpace=wrap;html=1;points=[[0,0.5,0,0,0],[0.5,0,0,0,0],[0.5,1,0,0,0],[1,0.5,0,0,0]];" parent="1" vertex="1">
          <mxGeometry x="959" y="1000" width="40" height="40" as="geometry" />
        </mxCell>
        <mxCell id="8Se8d8TxG7XIVdDQDwcc-99" style="edgeStyle=orthogonalEdgeStyle;shape=connector;rounded=0;orthogonalLoop=1;jettySize=auto;html=1;exitX=0.5;exitY=1;exitDx=0;exitDy=0;exitPerimeter=0;entryX=0.5;entryY=0;entryDx=0;entryDy=0;strokeColor=default;align=center;verticalAlign=middle;fontFamily=Helvetica;fontSize=11;fontColor=default;labelBackgroundColor=default;startArrow=none;startFill=0;endArrow=none;endFill=0;curved=1;" parent="1" source="g6izaSV6HPuNyHcQO4aN-3" target="vi9AejaFBc3eNM1fVHRH-37" edge="1">
          <mxGeometry relative="1" as="geometry" />
        </mxCell>
        <mxCell id="g6izaSV6HPuNyHcQO4aN-3" value="HUM" style="shape=stencil(rZPBDoIwDIafZve5Ee8G9T3KqLIwNjKmyNs7qDESmAdCwqX/R7+ypTCZdxW0yAS30CCTZyaERwPD4agqsBZNDCKtCGVU9bMKuhZVoOgJXkNhkEgXvKux12X49GtboddhpPLC+Cm+Mz4yVy7OUkE7283ID48y0Db28hfJBA0ZqOJUtdHfYEBP6YFSJq4btdleWj7Tir202XatzGOSuniZF6Dqu3cPWy67kuzmPK6AL9bG0FL8OaYftylxb3xtAefLmdIm504nWnz4lNLPMQVv);whiteSpace=wrap;html=1;points=[[0,0.5,0,0,0],[0.5,0,0,0,0],[0.5,1,0,0,0],[1,0.5,0,0,0]];" parent="1" vertex="1">
          <mxGeometry x="889" y="1000" width="40" height="40" as="geometry" />
        </mxCell>
        <mxCell id="8Se8d8TxG7XIVdDQDwcc-100" style="edgeStyle=orthogonalEdgeStyle;shape=connector;rounded=0;orthogonalLoop=1;jettySize=auto;html=1;exitX=0.5;exitY=1;exitDx=0;exitDy=0;exitPerimeter=0;entryX=0.5;entryY=0;entryDx=0;entryDy=0;strokeColor=default;align=center;verticalAlign=middle;fontFamily=Helvetica;fontSize=11;fontColor=default;labelBackgroundColor=default;startArrow=none;startFill=0;endArrow=none;endFill=0;curved=1;" parent="1" source="g6izaSV6HPuNyHcQO4aN-4" target="vi9AejaFBc3eNM1fVHRH-36" edge="1">
          <mxGeometry relative="1" as="geometry" />
        </mxCell>
        <mxCell id="g6izaSV6HPuNyHcQO4aN-4" value="P1" style="shape=stencil(rZPBDoIwDIafZve5Ee8G9T3KqLIwNjKmyNs7qDESmAdCwqX/R7+ypTCZdxW0yAS30CCTZyaERwPD4agqsBZNDCKtCGVU9bMKuhZVoOgJXkNhkEgXvKux12X49GtboddhpPLC+Cm+Mz4yVy7OUkE7283ID48y0Db28hfJBA0ZqOJUtdHfYEBP6YFSJq4btdleWj7Tir202XatzGOSuniZF6Dqu3cPWy67kuzmPK6AL9bG0FL8OaYftylxb3xtAefLmdIm504nWnz4lNLPMQVv);whiteSpace=wrap;html=1;points=[[0,0.5,0,0,0],[0.5,0,0,0,0],[0.5,1,0,0,0],[1,0.5,0,0,0]];" parent="1" vertex="1">
          <mxGeometry x="819" y="1000" width="40" height="40" as="geometry" />
        </mxCell>
        <mxCell id="8cJeTlkvCRH7ZC2_ET7F-3" style="shape=connector;rounded=0;orthogonalLoop=1;jettySize=auto;html=1;exitX=0.5;exitY=1;exitDx=0;exitDy=0;exitPerimeter=0;entryX=0.5;entryY=0;entryDx=0;entryDy=0;strokeColor=default;align=center;verticalAlign=middle;fontFamily=Helvetica;fontSize=11;fontColor=default;labelBackgroundColor=default;endArrow=none;endFill=0;edgeStyle=orthogonalEdgeStyle;curved=1;" parent="1" source="g6izaSV6HPuNyHcQO4aN-5" target="vi9AejaFBc3eNM1fVHRH-35" edge="1">
          <mxGeometry relative="1" as="geometry" />
        </mxCell>
        <mxCell id="g6izaSV6HPuNyHcQO4aN-5" value="P2" style="shape=stencil(rZPBDoIwDIafZve5Ee8G9T3KqLIwNjKmyNs7qDESmAdCwqX/R7+ypTCZdxW0yAS30CCTZyaERwPD4agqsBZNDCKtCGVU9bMKuhZVoOgJXkNhkEgXvKux12X49GtboddhpPLC+Cm+Mz4yVy7OUkE7283ID48y0Db28hfJBA0ZqOJUtdHfYEBP6YFSJq4btdleWj7Tir202XatzGOSuniZF6Dqu3cPWy67kuzmPK6AL9bG0FL8OaYftylxb3xtAefLmdIm504nWnz4lNLPMQVv);whiteSpace=wrap;html=1;points=[[0,0.5,0,0,0],[0.5,0,0,0,0],[0.5,1,0,0,0],[1,0.5,0,0,0]];" parent="1" vertex="1">
          <mxGeometry x="749" y="1000" width="40" height="40" as="geometry" />
        </mxCell>
        <mxCell id="8cJeTlkvCRH7ZC2_ET7F-4" style="edgeStyle=orthogonalEdgeStyle;shape=connector;rounded=0;orthogonalLoop=1;jettySize=auto;html=1;exitX=0.5;exitY=1;exitDx=0;exitDy=0;exitPerimeter=0;entryX=0.5;entryY=0;entryDx=0;entryDy=0;strokeColor=default;align=center;verticalAlign=middle;fontFamily=Helvetica;fontSize=11;fontColor=default;labelBackgroundColor=default;endArrow=none;endFill=0;curved=1;" parent="1" source="g6izaSV6HPuNyHcQO4aN-6" target="vi9AejaFBc3eNM1fVHRH-34" edge="1">
          <mxGeometry relative="1" as="geometry" />
        </mxCell>
        <mxCell id="g6izaSV6HPuNyHcQO4aN-6" value="EAF" style="shape=stencil(rZPBDoIwDIafZve5Ee8G9T3KqLIwNjKmyNs7qDESmAdCwqX/R7+ypTCZdxW0yAS30CCTZyaERwPD4agqsBZNDCKtCGVU9bMKuhZVoOgJXkNhkEgXvKux12X49GtboddhpPLC+Cm+Mz4yVy7OUkE7283ID48y0Db28hfJBA0ZqOJUtdHfYEBP6YFSJq4btdleWj7Tir202XatzGOSuniZF6Dqu3cPWy67kuzmPK6AL9bG0FL8OaYftylxb3xtAefLmdIm504nWnz4lNLPMQVv);whiteSpace=wrap;html=1;points=[[0,0.5,0,0,0],[0.5,0,0,0,0],[0.5,1,0,0,0],[1,0.5,0,0,0]];" parent="1" vertex="1">
          <mxGeometry x="679" y="1000" width="40" height="40" as="geometry" />
        </mxCell>
        <mxCell id="8cJeTlkvCRH7ZC2_ET7F-5" style="shape=connector;rounded=0;orthogonalLoop=1;jettySize=auto;html=1;exitX=0.5;exitY=1;exitDx=0;exitDy=0;exitPerimeter=0;entryX=0.5;entryY=0;entryDx=0;entryDy=0;strokeColor=default;align=center;verticalAlign=middle;fontFamily=Helvetica;fontSize=11;fontColor=default;labelBackgroundColor=default;endArrow=none;endFill=0;edgeStyle=orthogonalEdgeStyle;curved=1;" parent="1" source="g6izaSV6HPuNyHcQO4aN-7" target="vi9AejaFBc3eNM1fVHRH-33" edge="1">
          <mxGeometry relative="1" as="geometry" />
        </mxCell>
        <mxCell id="g6izaSV6HPuNyHcQO4aN-7" value="FAN" style="shape=stencil(rZPBDoIwDIafZve5Ee8G9T3KqLIwNjKmyNs7qDESmAdCwqX/R7+ypTCZdxW0yAS30CCTZyaERwPD4agqsBZNDCKtCGVU9bMKuhZVoOgJXkNhkEgXvKux12X49GtboddhpPLC+Cm+Mz4yVy7OUkE7283ID48y0Db28hfJBA0ZqOJUtdHfYEBP6YFSJq4btdleWj7Tir202XatzGOSuniZF6Dqu3cPWy67kuzmPK6AL9bG0FL8OaYftylxb3xtAefLmdIm504nWnz4lNLPMQVv);whiteSpace=wrap;html=1;points=[[0,0.5,0,0,0],[0.5,0,0,0,0],[0.5,1,0,0,0],[1,0.5,0,0,0]];" parent="1" vertex="1">
          <mxGeometry x="609" y="1000" width="40" height="40" as="geometry" />
        </mxCell>
        <mxCell id="8Se8d8TxG7XIVdDQDwcc-3" value="3V3" style="shape=stencil(rZPBDoIwDIafZve5Ee8G9T3KqLIwNjKmyNs7qDESmAdCwqX/R7+ypTCZdxW0yAS30CCTZyaERwPD4agqsBZNDCKtCGVU9bMKuhZVoOgJXkNhkEgXvKux12X49GtboddhpPLC+Cm+Mz4yVy7OUkE7283ID48y0Db28hfJBA0ZqOJUtdHfYEBP6YFSJq4btdleWj7Tir202XatzGOSuniZF6Dqu3cPWy67kuzmPK6AL9bG0FL8OaYftylxb3xtAefLmdIm504nWnz4lNLPMQVv);whiteSpace=wrap;html=1;points=[[0,0.5,0,0,0],[0.5,0,0,0,0],[0.5,1,0,0,0],[1,0.5,0,0,0]];" parent="1" vertex="1">
          <mxGeometry x="1110" y="160" width="40" height="40" as="geometry" />
        </mxCell>
        <mxCell id="8Se8d8TxG7XIVdDQDwcc-4" value="GND" style="shape=stencil(rZPBDoIwDIafZve5Ee8G9T3KqLIwNjKmyNs7qDESmAdCwqX/R7+ypTCZdxW0yAS30CCTZyaERwPD4agqsBZNDCKtCGVU9bMKuhZVoOgJXkNhkEgXvKux12X49GtboddhpPLC+Cm+Mz4yVy7OUkE7283ID48y0Db28hfJBA0ZqOJUtdHfYEBP6YFSJq4btdleWj7Tir202XatzGOSuniZF6Dqu3cPWy67kuzmPK6AL9bG0FL8OaYftylxb3xtAefLmdIm504nWnz4lNLPMQVv);whiteSpace=wrap;html=1;points=[[0,0.5,0,0,0],[0.5,0,0,0,0],[0.5,1,0,0,0],[1,0.5,0,0,0]];" parent="1" vertex="1">
          <mxGeometry x="1050" y="160" width="40" height="40" as="geometry" />
        </mxCell>
        <mxCell id="8Se8d8TxG7XIVdDQDwcc-5" value="SCL" style="shape=stencil(rZPBDoIwDIafZve5Ee8G9T3KqLIwNjKmyNs7qDESmAdCwqX/R7+ypTCZdxW0yAS30CCTZyaERwPD4agqsBZNDCKtCGVU9bMKuhZVoOgJXkNhkEgXvKux12X49GtboddhpPLC+Cm+Mz4yVy7OUkE7283ID48y0Db28hfJBA0ZqOJUtdHfYEBP6YFSJq4btdleWj7Tir202XatzGOSuniZF6Dqu3cPWy67kuzmPK6AL9bG0FL8OaYftylxb3xtAefLmdIm504nWnz4lNLPMQVv);whiteSpace=wrap;html=1;points=[[0,0.5,0,0,0],[0.5,0,0,0,0],[0.5,1,0,0,0],[1,0.5,0,0,0]];" parent="1" vertex="1">
          <mxGeometry x="993.5" y="160" width="40" height="40" as="geometry" />
        </mxCell>
        <mxCell id="8Se8d8TxG7XIVdDQDwcc-6" value="SDA" style="shape=stencil(rZPBDoIwDIafZve5Ee8G9T3KqLIwNjKmyNs7qDESmAdCwqX/R7+ypTCZdxW0yAS30CCTZyaERwPD4agqsBZNDCKtCGVU9bMKuhZVoOgJXkNhkEgXvKux12X49GtboddhpPLC+Cm+Mz4yVy7OUkE7283ID48y0Db28hfJBA0ZqOJUtdHfYEBP6YFSJq4btdleWj7Tir202XatzGOSuniZF6Dqu3cPWy67kuzmPK6AL9bG0FL8OaYftylxb3xtAefLmdIm504nWnz4lNLPMQVv);whiteSpace=wrap;html=1;points=[[0,0.5,0,0,0],[0.5,0,0,0,0],[0.5,1,0,0,0],[1,0.5,0,0,0]];" parent="1" vertex="1">
          <mxGeometry x="933.5" y="160" width="40" height="40" as="geometry" />
        </mxCell>
        <mxCell id="8Se8d8TxG7XIVdDQDwcc-7" value="GP15" style="shape=stencil(rZPBDoIwDIafZve5Ee8G9T3KqLIwNjKmyNs7qDESmAdCwqX/R7+ypTCZdxW0yAS30CCTZyaERwPD4agqsBZNDCKtCGVU9bMKuhZVoOgJXkNhkEgXvKux12X49GtboddhpPLC+Cm+Mz4yVy7OUkE7283ID48y0Db28hfJBA0ZqOJUtdHfYEBP6YFSJq4btdleWj7Tir202XatzGOSuniZF6Dqu3cPWy67kuzmPK6AL9bG0FL8OaYftylxb3xtAefLmdIm504nWnz4lNLPMQVv);whiteSpace=wrap;html=1;points=[[0,0.5,0,0,0],[0.5,0,0,0,0],[0.5,1,0,0,0],[1,0.5,0,0,0]];" parent="1" vertex="1">
          <mxGeometry x="869" y="160" width="40" height="40" as="geometry" />
        </mxCell>
        <mxCell id="8Se8d8TxG7XIVdDQDwcc-8" value="GP22" style="shape=stencil(rZPBDoIwDIafZve5Ee8G9T3KqLIwNjKmyNs7qDESmAdCwqX/R7+ypTCZdxW0yAS30CCTZyaERwPD4agqsBZNDCKtCGVU9bMKuhZVoOgJXkNhkEgXvKux12X49GtboddhpPLC+Cm+Mz4yVy7OUkE7283ID48y0Db28hfJBA0ZqOJUtdHfYEBP6YFSJq4btdleWj7Tir202XatzGOSuniZF6Dqu3cPWy67kuzmPK6AL9bG0FL8OaYftylxb3xtAefLmdIm504nWnz4lNLPMQVv);whiteSpace=wrap;html=1;points=[[0,0.5,0,0,0],[0.5,0,0,0,0],[0.5,1,0,0,0],[1,0.5,0,0,0]];" parent="1" vertex="1">
          <mxGeometry x="810" y="160" width="40" height="40" as="geometry" />
        </mxCell>
        <mxCell id="8Se8d8TxG7XIVdDQDwcc-9" value="GP27" style="shape=stencil(rZPBDoIwDIafZve5Ee8G9T3KqLIwNjKmyNs7qDESmAdCwqX/R7+ypTCZdxW0yAS30CCTZyaERwPD4agqsBZNDCKtCGVU9bMKuhZVoOgJXkNhkEgXvKux12X49GtboddhpPLC+Cm+Mz4yVy7OUkE7283ID48y0Db28hfJBA0ZqOJUtdHfYEBP6YFSJq4btdleWj7Tir202XatzGOSuniZF6Dqu3cPWy67kuzmPK6AL9bG0FL8OaYftylxb3xtAefLmdIm504nWnz4lNLPMQVv);whiteSpace=wrap;html=1;points=[[0,0.5,0,0,0],[0.5,0,0,0,0],[0.5,1,0,0,0],[1,0.5,0,0,0]];" parent="1" vertex="1">
          <mxGeometry x="750" y="160" width="40" height="40" as="geometry" />
        </mxCell>
        <mxCell id="8Se8d8TxG7XIVdDQDwcc-10" value="GP17" style="shape=stencil(rZPBDoIwDIafZve5Ee8G9T3KqLIwNjKmyNs7qDESmAdCwqX/R7+ypTCZdxW0yAS30CCTZyaERwPD4agqsBZNDCKtCGVU9bMKuhZVoOgJXkNhkEgXvKux12X49GtboddhpPLC+Cm+Mz4yVy7OUkE7283ID48y0Db28hfJBA0ZqOJUtdHfYEBP6YFSJq4btdleWj7Tir202XatzGOSuniZF6Dqu3cPWy67kuzmPK6AL9bG0FL8OaYftylxb3xtAefLmdIm504nWnz4lNLPMQVv);whiteSpace=wrap;html=1;points=[[0,0.5,0,0,0],[0.5,0,0,0,0],[0.5,1,0,0,0],[1,0.5,0,0,0]];" parent="1" vertex="1">
          <mxGeometry x="690" y="160" width="40" height="40" as="geometry" />
        </mxCell>
        <mxCell id="8cJeTlkvCRH7ZC2_ET7F-2" style="edgeStyle=orthogonalEdgeStyle;rounded=0;orthogonalLoop=1;jettySize=auto;html=1;exitX=0.5;exitY=1;exitDx=0;exitDy=0;exitPerimeter=0;entryX=0;entryY=0.5;entryDx=0;entryDy=0;endArrow=none;endFill=0;" parent="1" source="8Se8d8TxG7XIVdDQDwcc-11" target="vi9AejaFBc3eNM1fVHRH-81" edge="1">
          <mxGeometry relative="1" as="geometry">
            <Array as="points">
              <mxPoint x="650" y="240" />
              <mxPoint x="450" y="240" />
              <mxPoint x="450" y="840" />
              <mxPoint x="769" y="840" />
            </Array>
          </mxGeometry>
        </mxCell>
        <mxCell id="8Se8d8TxG7XIVdDQDwcc-11" value="GP9" style="shape=stencil(rZPBDoIwDIafZve5Ee8G9T3KqLIwNjKmyNs7qDESmAdCwqX/R7+ypTCZdxW0yAS30CCTZyaERwPD4agqsBZNDCKtCGVU9bMKuhZVoOgJXkNhkEgXvKux12X49GtboddhpPLC+Cm+Mz4yVy7OUkE7283ID48y0Db28hfJBA0ZqOJUtdHfYEBP6YFSJq4btdleWj7Tir202XatzGOSuniZF6Dqu3cPWy67kuzmPK6AL9bG0FL8OaYftylxb3xtAefLmdIm504nWnz4lNLPMQVv);whiteSpace=wrap;html=1;points=[[0,0.5,0,0,0],[0.5,0,0,0,0],[0.5,1,0,0,0],[1,0.5,0,0,0]];" parent="1" vertex="1">
          <mxGeometry x="630" y="160" width="40" height="40" as="geometry" />
        </mxCell>
        <mxCell id="8Se8d8TxG7XIVdDQDwcc-12" value="5V" style="shape=stencil(rZPBDoIwDIafZve5Ee8G9T3KqLIwNjKmyNs7qDESmAdCwqX/R7+ypTCZdxW0yAS30CCTZyaERwPD4agqsBZNDCKtCGVU9bMKuhZVoOgJXkNhkEgXvKux12X49GtboddhpPLC+Cm+Mz4yVy7OUkE7283ID48y0Db28hfJBA0ZqOJUtdHfYEBP6YFSJq4btdleWj7Tir202XatzGOSuniZF6Dqu3cPWy67kuzmPK6AL9bG0FL8OaYftylxb3xtAefLmdIm504nWnz4lNLPMQVv);whiteSpace=wrap;html=1;points=[[0,0.5,0,0,0],[0.5,0,0,0,0],[0.5,1,0,0,0],[1,0.5,0,0,0]];" parent="1" vertex="1">
          <mxGeometry x="569" y="160" width="40" height="40" as="geometry" />
        </mxCell>
        <mxCell id="8Se8d8TxG7XIVdDQDwcc-14" style="edgeStyle=orthogonalEdgeStyle;rounded=0;orthogonalLoop=1;jettySize=auto;html=1;exitX=0.5;exitY=1;exitDx=0;exitDy=0;exitPerimeter=0;entryX=0.5;entryY=0;entryDx=0;entryDy=0;entryPerimeter=0;startArrow=none;startFill=0;endArrow=none;endFill=0;" parent="1" source="8Se8d8TxG7XIVdDQDwcc-3" target="iwcDW4btiEjeqznmIjvd-89" edge="1">
          <mxGeometry relative="1" as="geometry" />
        </mxCell>
        <mxCell id="8Se8d8TxG7XIVdDQDwcc-15" style="edgeStyle=orthogonalEdgeStyle;shape=connector;rounded=0;orthogonalLoop=1;jettySize=auto;html=1;exitX=0.5;exitY=1;exitDx=0;exitDy=0;exitPerimeter=0;entryX=0.5;entryY=0;entryDx=0;entryDy=0;entryPerimeter=0;strokeColor=default;align=center;verticalAlign=middle;fontFamily=Helvetica;fontSize=11;fontColor=default;labelBackgroundColor=default;startArrow=none;startFill=0;endArrow=none;endFill=0;" parent="1" source="8Se8d8TxG7XIVdDQDwcc-4" target="iwcDW4btiEjeqznmIjvd-90" edge="1">
          <mxGeometry relative="1" as="geometry" />
        </mxCell>
        <mxCell id="8Se8d8TxG7XIVdDQDwcc-16" style="edgeStyle=orthogonalEdgeStyle;shape=connector;rounded=0;orthogonalLoop=1;jettySize=auto;html=1;exitX=0.5;exitY=1;exitDx=0;exitDy=0;exitPerimeter=0;entryX=0.5;entryY=0;entryDx=0;entryDy=0;entryPerimeter=0;strokeColor=default;align=center;verticalAlign=middle;fontFamily=Helvetica;fontSize=11;fontColor=default;labelBackgroundColor=default;startArrow=none;startFill=0;endArrow=none;endFill=0;" parent="1" source="8Se8d8TxG7XIVdDQDwcc-5" target="iwcDW4btiEjeqznmIjvd-87" edge="1">
          <mxGeometry relative="1" as="geometry" />
        </mxCell>
        <mxCell id="8Se8d8TxG7XIVdDQDwcc-17" style="edgeStyle=orthogonalEdgeStyle;shape=connector;rounded=0;orthogonalLoop=1;jettySize=auto;html=1;exitX=0.5;exitY=1;exitDx=0;exitDy=0;exitPerimeter=0;entryX=0.5;entryY=0;entryDx=0;entryDy=0;entryPerimeter=0;strokeColor=default;align=center;verticalAlign=middle;fontFamily=Helvetica;fontSize=11;fontColor=default;labelBackgroundColor=default;startArrow=none;startFill=0;endArrow=none;endFill=0;" parent="1" source="8Se8d8TxG7XIVdDQDwcc-6" target="iwcDW4btiEjeqznmIjvd-88" edge="1">
          <mxGeometry relative="1" as="geometry" />
        </mxCell>
        <mxCell id="8Se8d8TxG7XIVdDQDwcc-24" style="edgeStyle=orthogonalEdgeStyle;shape=connector;rounded=0;orthogonalLoop=1;jettySize=auto;html=1;exitX=1;exitY=0.5;exitDx=0;exitDy=0;entryX=0.5;entryY=0;entryDx=0;entryDy=0;entryPerimeter=0;strokeColor=default;align=center;verticalAlign=middle;fontFamily=Helvetica;fontSize=11;fontColor=default;labelBackgroundColor=default;startArrow=none;startFill=0;endArrow=none;endFill=0;" parent="1" source="vi9AejaFBc3eNM1fVHRH-85" target="g6izaSV6HPuNyHcQO4aN-1" edge="1">
          <mxGeometry relative="1" as="geometry" />
        </mxCell>
        <mxCell id="8Se8d8TxG7XIVdDQDwcc-25" style="edgeStyle=orthogonalEdgeStyle;shape=connector;rounded=0;orthogonalLoop=1;jettySize=auto;html=1;exitX=1;exitY=0.5;exitDx=0;exitDy=0;entryX=0.5;entryY=0;entryDx=0;entryDy=0;entryPerimeter=0;strokeColor=default;align=center;verticalAlign=middle;fontFamily=Helvetica;fontSize=11;fontColor=default;labelBackgroundColor=default;startArrow=none;startFill=0;endArrow=none;endFill=0;" parent="1" source="vi9AejaFBc3eNM1fVHRH-84" target="g6izaSV6HPuNyHcQO4aN-2" edge="1">
          <mxGeometry relative="1" as="geometry" />
        </mxCell>
        <mxCell id="8Se8d8TxG7XIVdDQDwcc-26" style="edgeStyle=orthogonalEdgeStyle;shape=connector;rounded=0;orthogonalLoop=1;jettySize=auto;html=1;exitX=1;exitY=0.5;exitDx=0;exitDy=0;entryX=0.5;entryY=0;entryDx=0;entryDy=0;entryPerimeter=0;strokeColor=default;align=center;verticalAlign=middle;fontFamily=Helvetica;fontSize=11;fontColor=default;labelBackgroundColor=default;startArrow=none;startFill=0;endArrow=none;endFill=0;" parent="1" source="vi9AejaFBc3eNM1fVHRH-83" target="g6izaSV6HPuNyHcQO4aN-3" edge="1">
          <mxGeometry relative="1" as="geometry" />
        </mxCell>
        <mxCell id="8Se8d8TxG7XIVdDQDwcc-27" style="edgeStyle=orthogonalEdgeStyle;shape=connector;rounded=0;orthogonalLoop=1;jettySize=auto;html=1;exitX=1;exitY=0.5;exitDx=0;exitDy=0;entryX=0.5;entryY=0;entryDx=0;entryDy=0;entryPerimeter=0;strokeColor=default;align=center;verticalAlign=middle;fontFamily=Helvetica;fontSize=11;fontColor=default;labelBackgroundColor=default;startArrow=none;startFill=0;endArrow=none;endFill=0;" parent="1" source="vi9AejaFBc3eNM1fVHRH-82" target="g6izaSV6HPuNyHcQO4aN-4" edge="1">
          <mxGeometry relative="1" as="geometry" />
        </mxCell>
        <mxCell id="8Se8d8TxG7XIVdDQDwcc-28" style="edgeStyle=orthogonalEdgeStyle;shape=connector;rounded=0;orthogonalLoop=1;jettySize=auto;html=1;exitX=1;exitY=0.5;exitDx=0;exitDy=0;entryX=0.5;entryY=0;entryDx=0;entryDy=0;entryPerimeter=0;strokeColor=default;align=center;verticalAlign=middle;fontFamily=Helvetica;fontSize=11;fontColor=default;labelBackgroundColor=default;startArrow=none;startFill=0;endArrow=none;endFill=0;" parent="1" source="vi9AejaFBc3eNM1fVHRH-81" target="g6izaSV6HPuNyHcQO4aN-5" edge="1">
          <mxGeometry relative="1" as="geometry" />
        </mxCell>
        <mxCell id="8Se8d8TxG7XIVdDQDwcc-29" style="edgeStyle=orthogonalEdgeStyle;shape=connector;rounded=0;orthogonalLoop=1;jettySize=auto;html=1;exitX=1;exitY=0.5;exitDx=0;exitDy=0;entryX=0.5;entryY=0;entryDx=0;entryDy=0;entryPerimeter=0;strokeColor=default;align=center;verticalAlign=middle;fontFamily=Helvetica;fontSize=11;fontColor=default;labelBackgroundColor=default;startArrow=none;startFill=0;endArrow=none;endFill=0;" parent="1" source="vi9AejaFBc3eNM1fVHRH-80" target="g6izaSV6HPuNyHcQO4aN-6" edge="1">
          <mxGeometry relative="1" as="geometry" />
        </mxCell>
        <mxCell id="8Se8d8TxG7XIVdDQDwcc-30" style="edgeStyle=orthogonalEdgeStyle;shape=connector;rounded=0;orthogonalLoop=1;jettySize=auto;html=1;exitX=1;exitY=0.5;exitDx=0;exitDy=0;entryX=0.5;entryY=0;entryDx=0;entryDy=0;entryPerimeter=0;strokeColor=default;align=center;verticalAlign=middle;fontFamily=Helvetica;fontSize=11;fontColor=default;labelBackgroundColor=default;startArrow=none;startFill=0;endArrow=none;endFill=0;" parent="1" source="vi9AejaFBc3eNM1fVHRH-79" target="g6izaSV6HPuNyHcQO4aN-7" edge="1">
          <mxGeometry relative="1" as="geometry" />
        </mxCell>
        <mxCell id="8Se8d8TxG7XIVdDQDwcc-87" style="shape=connector;rounded=0;orthogonalLoop=1;jettySize=auto;html=1;exitX=0.5;exitY=1;exitDx=0;exitDy=0;exitPerimeter=0;entryX=0.5;entryY=0;entryDx=0;entryDy=0;strokeColor=default;align=center;verticalAlign=middle;fontFamily=Helvetica;fontSize=11;fontColor=default;labelBackgroundColor=default;startArrow=none;startFill=0;endArrow=none;endFill=0;edgeStyle=orthogonalEdgeStyle;curved=1;" parent="1" source="8Se8d8TxG7XIVdDQDwcc-34" target="vi9AejaFBc3eNM1fVHRH-40" edge="1">
          <mxGeometry relative="1" as="geometry" />
        </mxCell>
        <mxCell id="8Se8d8TxG7XIVdDQDwcc-34" value="GND" style="shape=stencil(rZPBDoIwDIafZve5Ee8G9T3KqLIwNjKmyNs7qDESmAdCwqX/R7+ypTCZdxW0yAS30CCTZyaERwPD4agqsBZNDCKtCGVU9bMKuhZVoOgJXkNhkEgXvKux12X49GtboddhpPLC+Cm+Mz4yVy7OUkE7283ID48y0Db28hfJBA0ZqOJUtdHfYEBP6YFSJq4btdleWj7Tir202XatzGOSuniZF6Dqu3cPWy67kuzmPK6AL9bG0FL8OaYftylxb3xtAefLmdIm504nWnz4lNLPMQVv);whiteSpace=wrap;html=1;points=[[0,0.5,0,0,0],[0.5,0,0,0,0],[0.5,1,0,0,0],[1,0.5,0,0,0]];" parent="1" vertex="1">
          <mxGeometry x="1210" y="1000" width="40" height="40" as="geometry" />
        </mxCell>
        <mxCell id="8Se8d8TxG7XIVdDQDwcc-53" style="edgeStyle=orthogonalEdgeStyle;shape=connector;rounded=0;orthogonalLoop=1;jettySize=auto;html=1;exitX=0.5;exitY=1;exitDx=0;exitDy=0;exitPerimeter=0;strokeColor=default;align=center;verticalAlign=middle;fontFamily=Helvetica;fontSize=11;fontColor=default;labelBackgroundColor=default;startArrow=none;startFill=0;endArrow=none;endFill=0;curved=1;" parent="1" source="8Se8d8TxG7XIVdDQDwcc-35" target="vi9AejaFBc3eNM1fVHRH-31" edge="1">
          <mxGeometry relative="1" as="geometry" />
        </mxCell>
        <mxCell id="8Se8d8TxG7XIVdDQDwcc-35" value="5V" style="shape=stencil(rZPBDoIwDIafZve5Ee8G9T3KqLIwNjKmyNs7qDESmAdCwqX/R7+ypTCZdxW0yAS30CCTZyaERwPD4agqsBZNDCKtCGVU9bMKuhZVoOgJXkNhkEgXvKux12X49GtboddhpPLC+Cm+Mz4yVy7OUkE7283ID48y0Db28hfJBA0ZqOJUtdHfYEBP6YFSJq4btdleWj7Tir202XatzGOSuniZF6Dqu3cPWy67kuzmPK6AL9bG0FL8OaYftylxb3xtAefLmdIm504nWnz4lNLPMQVv);whiteSpace=wrap;html=1;points=[[0,0.5,0,0,0],[0.5,0,0,0,0],[0.5,1,0,0,0],[1,0.5,0,0,0]];" parent="1" vertex="1">
          <mxGeometry x="330" y="1000" width="40" height="40" as="geometry" />
        </mxCell>
        <mxCell id="8Se8d8TxG7XIVdDQDwcc-36" value="5V" style="shape=stencil(rZPBDoIwDIafZve5Ee8G9T3KqLIwNjKmyNs7qDESmAdCwqX/R7+ypTCZdxW0yAS30CCTZyaERwPD4agqsBZNDCKtCGVU9bMKuhZVoOgJXkNhkEgXvKux12X49GtboddhpPLC+Cm+Mz4yVy7OUkE7283ID48y0Db28hfJBA0ZqOJUtdHfYEBP6YFSJq4btdleWj7Tir202XatzGOSuniZF6Dqu3cPWy67kuzmPK6AL9bG0FL8OaYftylxb3xtAefLmdIm504nWnz4lNLPMQVv);whiteSpace=wrap;html=1;points=[[0,0.5,0,0,0],[0.5,0,0,0,0],[0.5,1,0,0,0],[1,0.5,0,0,0]];" parent="1" vertex="1">
          <mxGeometry x="260" y="1000" width="40" height="40" as="geometry" />
        </mxCell>
        <mxCell id="8Se8d8TxG7XIVdDQDwcc-37" value="" style="edgeStyle=none;orthogonalLoop=1;jettySize=auto;html=1;rounded=0;strokeColor=default;align=center;verticalAlign=middle;fontFamily=Helvetica;fontSize=11;fontColor=default;labelBackgroundColor=default;startArrow=none;startFill=0;endArrow=block;endFill=0;exitX=0.497;exitY=0.24;exitDx=0;exitDy=0;exitPerimeter=0;" parent="1" source="vi9AejaFBc3eNM1fVHRH-85" edge="1">
          <mxGeometry width="80" relative="1" as="geometry">
            <mxPoint x="1070" y="929.71" as="sourcePoint" />
            <mxPoint x="1120" y="930" as="targetPoint" />
            <Array as="points" />
          </mxGeometry>
        </mxCell>
        <mxCell id="8Se8d8TxG7XIVdDQDwcc-42" value="" style="edgeStyle=none;orthogonalLoop=1;jettySize=auto;html=1;rounded=0;strokeColor=default;align=center;verticalAlign=middle;fontFamily=Helvetica;fontSize=11;fontColor=default;labelBackgroundColor=default;startArrow=none;startFill=0;endArrow=block;endFill=0;exitX=0.5;exitY=1;exitDx=0;exitDy=0;exitPerimeter=0;" parent="1" source="iwcDW4btiEjeqznmIjvd-123" edge="1">
          <mxGeometry width="80" relative="1" as="geometry">
            <mxPoint x="1150" y="840" as="sourcePoint" />
            <mxPoint x="1130" y="840" as="targetPoint" />
            <Array as="points" />
          </mxGeometry>
        </mxCell>
        <mxCell id="8Se8d8TxG7XIVdDQDwcc-44" value="" style="edgeStyle=none;orthogonalLoop=1;jettySize=auto;html=1;rounded=0;strokeColor=default;align=center;verticalAlign=middle;fontFamily=Helvetica;fontSize=11;fontColor=default;labelBackgroundColor=default;startArrow=none;startFill=0;endArrow=classic;endFill=1;exitX=0.5;exitY=0;exitDx=0;exitDy=0;exitPerimeter=0;" parent="1" source="8Se8d8TxG7XIVdDQDwcc-36" edge="1">
          <mxGeometry width="80" relative="1" as="geometry">
            <mxPoint x="290" y="940" as="sourcePoint" />
            <mxPoint x="280" y="920" as="targetPoint" />
            <Array as="points" />
          </mxGeometry>
        </mxCell>
        <mxCell id="8Se8d8TxG7XIVdDQDwcc-45" value="" style="edgeStyle=none;orthogonalLoop=1;jettySize=auto;html=1;rounded=0;strokeColor=default;align=center;verticalAlign=middle;fontFamily=Helvetica;fontSize=11;fontColor=default;labelBackgroundColor=default;startArrow=none;startFill=0;endArrow=classic;endFill=1;exitX=0.5;exitY=0;exitDx=0;exitDy=0;exitPerimeter=0;" parent="1" edge="1">
          <mxGeometry width="80" relative="1" as="geometry">
            <mxPoint x="349.76" y="1000" as="sourcePoint" />
            <mxPoint x="349.76" y="920" as="targetPoint" />
            <Array as="points" />
          </mxGeometry>
        </mxCell>
        <mxCell id="8Se8d8TxG7XIVdDQDwcc-46" value="" style="edgeStyle=none;orthogonalLoop=1;jettySize=auto;html=1;rounded=0;strokeColor=default;align=center;verticalAlign=middle;fontFamily=Helvetica;fontSize=11;fontColor=default;labelBackgroundColor=default;startArrow=none;startFill=0;endArrow=block;endFill=0;exitX=0.5;exitY=0;exitDx=0;exitDy=0;exitPerimeter=0;" parent="1" edge="1">
          <mxGeometry width="80" relative="1" as="geometry">
            <mxPoint x="1230" y="1000" as="sourcePoint" />
            <mxPoint x="1230" y="920" as="targetPoint" />
            <Array as="points" />
          </mxGeometry>
        </mxCell>
        <mxCell id="8Se8d8TxG7XIVdDQDwcc-49" value="" style="edgeStyle=none;orthogonalLoop=1;jettySize=auto;html=1;rounded=0;strokeColor=default;align=center;verticalAlign=middle;fontFamily=Helvetica;fontSize=11;fontColor=default;labelBackgroundColor=default;startArrow=none;startFill=0;endArrow=classic;endFill=1;exitX=0.5;exitY=1;exitDx=0;exitDy=0;exitPerimeter=0;" parent="1" source="8Se8d8TxG7XIVdDQDwcc-12" edge="1">
          <mxGeometry width="80" relative="1" as="geometry">
            <mxPoint x="670" y="240" as="sourcePoint" />
            <mxPoint x="589" y="230" as="targetPoint" />
            <Array as="points" />
          </mxGeometry>
        </mxCell>
        <mxCell id="8Se8d8TxG7XIVdDQDwcc-55" style="edgeStyle=orthogonalEdgeStyle;shape=connector;rounded=0;orthogonalLoop=1;jettySize=auto;html=1;exitX=0;exitY=0.5;exitDx=0;exitDy=0;entryX=0.5;entryY=1;entryDx=0;entryDy=0;entryPerimeter=0;strokeColor=default;align=center;verticalAlign=middle;fontFamily=Helvetica;fontSize=11;fontColor=default;labelBackgroundColor=default;startArrow=none;startFill=0;endArrow=none;endFill=0;" parent="1" source="vi9AejaFBc3eNM1fVHRH-85" target="8Se8d8TxG7XIVdDQDwcc-7" edge="1">
          <mxGeometry relative="1" as="geometry">
            <Array as="points">
              <mxPoint x="1049" y="850" />
              <mxPoint x="1370" y="850" />
              <mxPoint x="1370" y="240" />
              <mxPoint x="889" y="240" />
            </Array>
          </mxGeometry>
        </mxCell>
        <mxCell id="8Se8d8TxG7XIVdDQDwcc-58" value="" style="edgeStyle=orthogonalEdgeStyle;rounded=0;orthogonalLoop=1;jettySize=auto;html=1;exitX=1;exitY=0.5;exitDx=0;exitDy=0;exitPerimeter=0;entryX=0.5;entryY=0;entryDx=0;entryDy=0;endArrow=none;endFill=0;" parent="1" source="iwcDW4btiEjeqznmIjvd-22" target="8Se8d8TxG7XIVdDQDwcc-56" edge="1">
          <mxGeometry relative="1" as="geometry">
            <mxPoint x="-110" y="360" as="sourcePoint" />
            <mxPoint x="-70" y="400" as="targetPoint" />
          </mxGeometry>
        </mxCell>
        <mxCell id="8Se8d8TxG7XIVdDQDwcc-56" value="" style="ellipse;whiteSpace=wrap;html=1;aspect=fixed;fontFamily=Helvetica;fontSize=11;fontColor=default;labelBackgroundColor=default;fillColor=#000000;" parent="1" vertex="1">
          <mxGeometry x="-120" y="390" width="20" height="20" as="geometry" />
        </mxCell>
        <mxCell id="8Se8d8TxG7XIVdDQDwcc-59" value="" style="ellipse;whiteSpace=wrap;html=1;aspect=fixed;fontFamily=Helvetica;fontSize=11;fontColor=default;labelBackgroundColor=default;fillColor=#000000;" parent="1" vertex="1">
          <mxGeometry x="-160" y="460" width="20" height="20" as="geometry" />
        </mxCell>
        <mxCell id="8Se8d8TxG7XIVdDQDwcc-61" value="" style="edgeStyle=orthogonalEdgeStyle;shape=connector;rounded=0;orthogonalLoop=1;jettySize=auto;html=1;exitX=1;exitY=0.5;exitDx=0;exitDy=0;exitPerimeter=0;entryX=0.5;entryY=0;entryDx=0;entryDy=0;strokeColor=default;align=center;verticalAlign=middle;fontFamily=Helvetica;fontSize=11;fontColor=default;labelBackgroundColor=default;endArrow=none;endFill=0;" parent="1" source="iwcDW4btiEjeqznmIjvd-24" target="8Se8d8TxG7XIVdDQDwcc-60" edge="1">
          <mxGeometry relative="1" as="geometry">
            <mxPoint x="-190" y="360" as="sourcePoint" />
            <mxPoint x="-70" y="540" as="targetPoint" />
          </mxGeometry>
        </mxCell>
        <mxCell id="8Se8d8TxG7XIVdDQDwcc-60" value="" style="ellipse;whiteSpace=wrap;html=1;aspect=fixed;fontFamily=Helvetica;fontSize=11;fontColor=default;labelBackgroundColor=default;fillColor=#000000;" parent="1" vertex="1">
          <mxGeometry x="-200" y="530" width="20" height="20" as="geometry" />
        </mxCell>
        <mxCell id="8Se8d8TxG7XIVdDQDwcc-63" value="" style="edgeStyle=orthogonalEdgeStyle;shape=connector;rounded=0;orthogonalLoop=1;jettySize=auto;html=1;exitX=0;exitY=0.5;exitDx=0;exitDy=0;exitPerimeter=0;strokeColor=default;align=center;verticalAlign=middle;fontFamily=Helvetica;fontSize=11;fontColor=default;labelBackgroundColor=default;endArrow=none;endFill=0;" parent="1" source="iwcDW4btiEjeqznmIjvd-22" target="8Se8d8TxG7XIVdDQDwcc-62" edge="1">
          <mxGeometry relative="1" as="geometry">
            <mxPoint x="-30" y="380" as="targetPoint" />
            <Array as="points">
              <mxPoint x="-110" y="240" />
            </Array>
            <mxPoint x="-110" y="260" as="sourcePoint" />
          </mxGeometry>
        </mxCell>
        <mxCell id="8Se8d8TxG7XIVdDQDwcc-62" value="" style="ellipse;whiteSpace=wrap;html=1;aspect=fixed;fontFamily=Helvetica;fontSize=11;fontColor=default;labelBackgroundColor=default;fillColor=#000000;" parent="1" vertex="1">
          <mxGeometry x="-40" y="230" width="20" height="20" as="geometry" />
        </mxCell>
        <mxCell id="8Se8d8TxG7XIVdDQDwcc-65" value="" style="edgeStyle=orthogonalEdgeStyle;shape=connector;rounded=0;orthogonalLoop=1;jettySize=auto;html=1;exitX=0;exitY=0.5;exitDx=0;exitDy=0;exitPerimeter=0;entryX=0;entryY=0.5;entryDx=0;entryDy=0;entryPerimeter=0;strokeColor=default;align=center;verticalAlign=middle;fontFamily=Helvetica;fontSize=11;fontColor=default;labelBackgroundColor=default;endArrow=none;endFill=0;" parent="1" source="iwcDW4btiEjeqznmIjvd-20" target="8Se8d8TxG7XIVdDQDwcc-64" edge="1">
          <mxGeometry relative="1" as="geometry">
            <Array as="points">
              <mxPoint x="-110" y="680" />
              <mxPoint x="-110" y="750" />
            </Array>
            <mxPoint x="-70" y="680" as="sourcePoint" />
            <mxPoint x="-70" y="750" as="targetPoint" />
          </mxGeometry>
        </mxCell>
        <mxCell id="8Se8d8TxG7XIVdDQDwcc-69" style="edgeStyle=orthogonalEdgeStyle;shape=connector;rounded=0;orthogonalLoop=1;jettySize=auto;html=1;exitX=0.5;exitY=1;exitDx=0;exitDy=0;entryX=0;entryY=0.5;entryDx=0;entryDy=0;strokeColor=default;align=center;verticalAlign=middle;fontFamily=Helvetica;fontSize=11;fontColor=default;labelBackgroundColor=default;startArrow=none;startFill=0;endArrow=none;endFill=0;" parent="1" source="8Se8d8TxG7XIVdDQDwcc-64" target="8Se8d8TxG7XIVdDQDwcc-66" edge="1">
          <mxGeometry relative="1" as="geometry" />
        </mxCell>
        <mxCell id="8Se8d8TxG7XIVdDQDwcc-64" value="" style="ellipse;whiteSpace=wrap;html=1;aspect=fixed;fontFamily=Helvetica;fontSize=11;fontColor=default;labelBackgroundColor=default;fillColor=#000000;" parent="1" vertex="1">
          <mxGeometry x="-120" y="740" width="20" height="20" as="geometry" />
        </mxCell>
        <mxCell id="8Se8d8TxG7XIVdDQDwcc-66" value="" style="ellipse;whiteSpace=wrap;html=1;aspect=fixed;fontFamily=Helvetica;fontSize=11;fontColor=default;labelBackgroundColor=default;fillColor=#000000;" parent="1" vertex="1">
          <mxGeometry x="-40" y="790" width="20" height="20" as="geometry" />
        </mxCell>
        <mxCell id="8Se8d8TxG7XIVdDQDwcc-68" style="edgeStyle=orthogonalEdgeStyle;shape=connector;rounded=0;orthogonalLoop=1;jettySize=auto;html=1;exitX=1;exitY=0.5;exitDx=0;exitDy=0;entryX=0;entryY=0.5;entryDx=0;entryDy=0;entryPerimeter=0;strokeColor=default;align=center;verticalAlign=middle;fontFamily=Helvetica;fontSize=11;fontColor=default;labelBackgroundColor=default;startArrow=none;startFill=0;endArrow=none;endFill=0;" parent="1" source="8Se8d8TxG7XIVdDQDwcc-64" target="iwcDW4btiEjeqznmIjvd-21" edge="1">
          <mxGeometry relative="1" as="geometry" />
        </mxCell>
        <mxCell id="8Se8d8TxG7XIVdDQDwcc-70" value="" style="ellipse;whiteSpace=wrap;html=1;aspect=fixed;fontFamily=Helvetica;fontSize=11;fontColor=default;labelBackgroundColor=default;fillColor=#000000;" parent="1" vertex="1">
          <mxGeometry x="-120" y="790" width="20" height="20" as="geometry" />
        </mxCell>
        <mxCell id="8Se8d8TxG7XIVdDQDwcc-71" style="edgeStyle=orthogonalEdgeStyle;shape=connector;rounded=0;orthogonalLoop=1;jettySize=auto;html=1;exitX=1;exitY=0.5;exitDx=0;exitDy=0;entryX=0.5;entryY=1;entryDx=0;entryDy=0;entryPerimeter=0;strokeColor=default;align=center;verticalAlign=middle;fontFamily=Helvetica;fontSize=11;fontColor=default;labelBackgroundColor=default;startArrow=none;startFill=0;endArrow=none;endFill=0;" parent="1" source="8Se8d8TxG7XIVdDQDwcc-66" target="iwcDW4btiEjeqznmIjvd-95" edge="1">
          <mxGeometry relative="1" as="geometry" />
        </mxCell>
        <mxCell id="8Se8d8TxG7XIVdDQDwcc-72" value="" style="ellipse;whiteSpace=wrap;html=1;aspect=fixed;fontFamily=Helvetica;fontSize=11;fontColor=default;labelBackgroundColor=default;fillColor=#000000;" parent="1" vertex="1">
          <mxGeometry x="-120" y="230" width="20" height="20" as="geometry" />
        </mxCell>
        <mxCell id="8Se8d8TxG7XIVdDQDwcc-74" value="" style="edgeStyle=orthogonalEdgeStyle;shape=connector;rounded=0;orthogonalLoop=1;jettySize=auto;html=1;entryX=0;entryY=0.5;entryDx=0;entryDy=0;entryPerimeter=0;strokeColor=default;align=center;verticalAlign=middle;fontFamily=Helvetica;fontSize=11;fontColor=default;labelBackgroundColor=default;endArrow=none;endFill=0;" parent="1" target="8Se8d8TxG7XIVdDQDwcc-73" edge="1">
          <mxGeometry relative="1" as="geometry">
            <mxPoint x="-190" y="240" as="sourcePoint" />
            <mxPoint x="-110" y="260" as="targetPoint" />
          </mxGeometry>
        </mxCell>
        <mxCell id="8Se8d8TxG7XIVdDQDwcc-73" value="" style="ellipse;whiteSpace=wrap;html=1;aspect=fixed;fontFamily=Helvetica;fontSize=11;fontColor=default;labelBackgroundColor=default;fillColor=#000000;" parent="1" vertex="1">
          <mxGeometry x="-160" y="230" width="20" height="20" as="geometry" />
        </mxCell>
        <mxCell id="8Se8d8TxG7XIVdDQDwcc-75" style="shape=connector;rounded=0;orthogonalLoop=1;jettySize=auto;html=1;exitX=1;exitY=0.5;exitDx=0;exitDy=0;exitPerimeter=0;strokeColor=default;align=center;verticalAlign=middle;fontFamily=Helvetica;fontSize=11;fontColor=default;labelBackgroundColor=default;startArrow=none;startFill=0;endArrow=classic;endFill=1;" parent="1" source="iwcDW4btiEjeqznmIjvd-100" target="djXzOtQZecK_oDZqtTW9-11" edge="1">
          <mxGeometry relative="1" as="geometry">
            <mxPoint x="160" y="320" as="targetPoint" />
          </mxGeometry>
        </mxCell>
        <mxCell id="8Se8d8TxG7XIVdDQDwcc-77" style="shape=connector;rounded=0;orthogonalLoop=1;jettySize=auto;html=1;exitX=1;exitY=0.5;exitDx=0;exitDy=0;exitPerimeter=0;strokeColor=default;align=center;verticalAlign=middle;fontFamily=Helvetica;fontSize=11;fontColor=default;labelBackgroundColor=default;startArrow=none;startFill=0;endArrow=classic;endFill=1;entryX=0;entryY=0.5;entryDx=0;entryDy=0;" parent="1" source="iwcDW4btiEjeqznmIjvd-95" target="djXzOtQZecK_oDZqtTW9-12" edge="1">
          <mxGeometry relative="1" as="geometry">
            <mxPoint x="160" y="680" as="targetPoint" />
          </mxGeometry>
        </mxCell>
        <mxCell id="8Se8d8TxG7XIVdDQDwcc-78" style="shape=connector;rounded=0;orthogonalLoop=1;jettySize=auto;html=1;entryX=1;entryY=0.5;entryDx=0;entryDy=0;entryPerimeter=0;strokeColor=#2D7600;align=center;verticalAlign=middle;fontFamily=Helvetica;fontSize=11;fontColor=default;labelBackgroundColor=default;startArrow=classic;startFill=1;endArrow=none;endFill=0;fillColor=#60a917;exitX=0;exitY=0.5;exitDx=0;exitDy=0;" parent="1" source="djXzOtQZecK_oDZqtTW9-7" target="iwcDW4btiEjeqznmIjvd-96" edge="1">
          <mxGeometry relative="1" as="geometry">
            <mxPoint x="200" y="390" as="sourcePoint" />
          </mxGeometry>
        </mxCell>
        <mxCell id="8Se8d8TxG7XIVdDQDwcc-79" style="shape=connector;rounded=0;orthogonalLoop=1;jettySize=auto;html=1;entryX=1;entryY=0.5;entryDx=0;entryDy=0;entryPerimeter=0;strokeColor=#B09500;align=center;verticalAlign=middle;fontFamily=Helvetica;fontSize=11;fontColor=default;labelBackgroundColor=default;startArrow=classic;startFill=1;endArrow=none;endFill=0;fillColor=#e3c800;" parent="1" source="djXzOtQZecK_oDZqtTW9-8" target="iwcDW4btiEjeqznmIjvd-97" edge="1">
          <mxGeometry relative="1" as="geometry">
            <mxPoint x="180" y="460" as="sourcePoint" />
          </mxGeometry>
        </mxCell>
        <mxCell id="8Se8d8TxG7XIVdDQDwcc-80" style="shape=connector;rounded=0;orthogonalLoop=1;jettySize=auto;html=1;entryX=1;entryY=0.5;entryDx=0;entryDy=0;entryPerimeter=0;strokeColor=#314354;align=center;verticalAlign=middle;fontFamily=Helvetica;fontSize=11;fontColor=default;labelBackgroundColor=default;startArrow=classic;startFill=1;endArrow=none;endFill=0;fillColor=#647687;exitX=0;exitY=0.5;exitDx=0;exitDy=0;" parent="1" source="djXzOtQZecK_oDZqtTW9-9" target="iwcDW4btiEjeqznmIjvd-98" edge="1">
          <mxGeometry relative="1" as="geometry">
            <mxPoint x="180" y="530" as="sourcePoint" />
          </mxGeometry>
        </mxCell>
        <mxCell id="8Se8d8TxG7XIVdDQDwcc-81" value="1M" style="text;strokeColor=none;align=center;fillColor=none;html=1;verticalAlign=middle;whiteSpace=wrap;rounded=0;fontFamily=Helvetica;fontSize=14;fontColor=default;labelBackgroundColor=default;" parent="1" vertex="1">
          <mxGeometry x="-240" y="250" width="60" height="30" as="geometry" />
        </mxCell>
        <mxCell id="8Se8d8TxG7XIVdDQDwcc-82" value="1M" style="text;strokeColor=none;align=center;fillColor=none;html=1;verticalAlign=middle;whiteSpace=wrap;rounded=0;fontFamily=Helvetica;fontSize=14;fontColor=default;labelBackgroundColor=default;" parent="1" vertex="1">
          <mxGeometry x="-200" y="250" width="60" height="30" as="geometry" />
        </mxCell>
        <mxCell id="8Se8d8TxG7XIVdDQDwcc-83" value="1M" style="text;strokeColor=none;align=center;fillColor=none;html=1;verticalAlign=middle;whiteSpace=wrap;rounded=0;fontFamily=Helvetica;fontSize=14;fontColor=default;labelBackgroundColor=default;" parent="1" vertex="1">
          <mxGeometry x="-160" y="250" width="60" height="30" as="geometry" />
        </mxCell>
        <mxCell id="djXzOtQZecK_oDZqtTW9-36" style="edgeStyle=orthogonalEdgeStyle;rounded=0;orthogonalLoop=1;jettySize=auto;html=1;exitX=0.5;exitY=1;exitDx=0;exitDy=0;endArrow=none;endFill=0;" edge="1" parent="1" source="8Se8d8TxG7XIVdDQDwcc-85" target="vi9AejaFBc3eNM1fVHRH-21">
          <mxGeometry relative="1" as="geometry">
            <Array as="points">
              <mxPoint x="870" y="1670" />
              <mxPoint x="910" y="1670" />
            </Array>
          </mxGeometry>
        </mxCell>
        <mxCell id="8Se8d8TxG7XIVdDQDwcc-85" value="PUMP1" style="ellipse;whiteSpace=wrap;html=1;aspect=fixed;fontFamily=Helvetica;fontSize=11;fontColor=default;labelBackgroundColor=default;flipH=1;flipV=1;" parent="1" vertex="1">
          <mxGeometry x="840" y="1570" width="60" height="60" as="geometry" />
        </mxCell>
        <mxCell id="8Se8d8TxG7XIVdDQDwcc-90" value="GND" style="text;strokeColor=none;align=center;fillColor=none;html=1;verticalAlign=middle;whiteSpace=wrap;rounded=0;fontFamily=Helvetica;fontSize=11;fontColor=default;labelBackgroundColor=default;" parent="1" vertex="1">
          <mxGeometry x="1119" y="915" width="60" height="30" as="geometry" />
        </mxCell>
        <mxCell id="8Se8d8TxG7XIVdDQDwcc-94" style="edgeStyle=orthogonalEdgeStyle;shape=connector;rounded=0;orthogonalLoop=1;jettySize=auto;html=1;exitX=0;exitY=0.5;exitDx=0;exitDy=0;entryX=0.5;entryY=1;entryDx=0;entryDy=0;entryPerimeter=0;strokeColor=default;align=center;verticalAlign=middle;fontFamily=Helvetica;fontSize=11;fontColor=default;labelBackgroundColor=default;startArrow=none;startFill=0;endArrow=none;endFill=0;" parent="1" source="vi9AejaFBc3eNM1fVHRH-82" target="8Se8d8TxG7XIVdDQDwcc-10" edge="1">
          <mxGeometry relative="1" as="geometry">
            <Array as="points">
              <mxPoint x="840" y="880" />
              <mxPoint x="840" y="830" />
              <mxPoint x="470" y="830" />
              <mxPoint x="470" y="250" />
              <mxPoint x="710" y="250" />
            </Array>
          </mxGeometry>
        </mxCell>
        <mxCell id="8Se8d8TxG7XIVdDQDwcc-96" style="edgeStyle=orthogonalEdgeStyle;shape=connector;rounded=0;orthogonalLoop=1;jettySize=auto;html=1;exitX=0;exitY=0.5;exitDx=0;exitDy=0;entryX=0.5;entryY=1;entryDx=0;entryDy=0;entryPerimeter=0;strokeColor=default;align=center;verticalAlign=middle;fontFamily=Helvetica;fontSize=11;fontColor=default;labelBackgroundColor=default;startArrow=none;startFill=0;endArrow=none;endFill=0;" parent="1" source="vi9AejaFBc3eNM1fVHRH-84" target="8Se8d8TxG7XIVdDQDwcc-8" edge="1">
          <mxGeometry relative="1" as="geometry">
            <Array as="points">
              <mxPoint x="980" y="880" />
              <mxPoint x="980" y="810" />
              <mxPoint x="510" y="810" />
              <mxPoint x="510" y="270" />
              <mxPoint x="830" y="270" />
            </Array>
          </mxGeometry>
        </mxCell>
        <mxCell id="8Se8d8TxG7XIVdDQDwcc-107" value="&lt;font style=&quot;font-size: 18px;&quot;&gt;FAN&lt;/font&gt;" style="shape=mxgraph.electrical.electro-mechanical.motor_2;html=1;shadow=0;dashed=0;align=center;fontSize=30;strokeWidth=1;fontFamily=Helvetica;fontColor=default;labelBackgroundColor=default;direction=south;" parent="1" vertex="1">
          <mxGeometry x="420" y="1550" width="60" height="100" as="geometry" />
        </mxCell>
        <mxCell id="yakIqSLtauoL3HyNQ5ta-2" value="gn" style="text;strokeColor=none;align=center;fillColor=none;html=1;verticalAlign=middle;whiteSpace=wrap;rounded=0;" parent="1" vertex="1">
          <mxGeometry x="30" y="510" width="60" height="30" as="geometry" />
        </mxCell>
        <mxCell id="yakIqSLtauoL3HyNQ5ta-3" value="wh" style="text;strokeColor=none;align=center;fillColor=none;html=1;verticalAlign=middle;whiteSpace=wrap;rounded=0;" parent="1" vertex="1">
          <mxGeometry x="30" y="440" width="60" height="30" as="geometry" />
        </mxCell>
        <mxCell id="yakIqSLtauoL3HyNQ5ta-4" value="ye" style="text;strokeColor=none;align=center;fillColor=none;html=1;verticalAlign=middle;whiteSpace=wrap;rounded=0;" parent="1" vertex="1">
          <mxGeometry x="30" y="370" width="60" height="30" as="geometry" />
        </mxCell>
        <mxCell id="yakIqSLtauoL3HyNQ5ta-11" value="Water Level Sensor" style="text;strokeColor=none;align=center;fillColor=none;html=1;verticalAlign=middle;whiteSpace=wrap;rounded=0;" parent="1" vertex="1">
          <mxGeometry x="-310" y="812" width="130" height="30" as="geometry" />
        </mxCell>
        <mxCell id="8cJeTlkvCRH7ZC2_ET7F-6" value="3" style="shape=stencil(rZPBDoIwDIafZve5Ee8G9T3KqLIwNjKmyNs7qDESmAdCwqX/R7+ypTCZdxW0yAS30CCTZyaERwPD4agqsBZNDCKtCGVU9bMKuhZVoOgJXkNhkEgXvKux12X49GtboddhpPLC+Cm+Mz4yVy7OUkE7283ID48y0Db28hfJBA0ZqOJUtdHfYEBP6YFSJq4btdleWj7Tir202XatzGOSuniZF6Dqu3cPWy67kuzmPK6AL9bG0FL8OaYftylxb3xtAefLmdIm504nWnz4lNLPMQVv);whiteSpace=wrap;html=1;points=[[0,0.5,0,0,0],[0.5,0,0,0,0],[0.5,1,0,0,0],[1,0.5,0,0,0]];" parent="1" vertex="1">
          <mxGeometry x="260" y="780" width="40" height="40" as="geometry" />
        </mxCell>
        <mxCell id="8cJeTlkvCRH7ZC2_ET7F-10" style="edgeStyle=orthogonalEdgeStyle;shape=connector;rounded=0;orthogonalLoop=1;jettySize=auto;html=1;exitX=0.5;exitY=1;exitDx=0;exitDy=0;exitPerimeter=0;entryX=0;entryY=0.5;entryDx=0;entryDy=0;strokeColor=default;align=center;verticalAlign=middle;fontFamily=Helvetica;fontSize=11;fontColor=default;labelBackgroundColor=default;endArrow=none;endFill=0;" parent="1" source="8cJeTlkvCRH7ZC2_ET7F-7" target="vi9AejaFBc3eNM1fVHRH-79" edge="1">
          <mxGeometry relative="1" as="geometry">
            <Array as="points">
              <mxPoint x="340" y="860" />
              <mxPoint x="629" y="860" />
            </Array>
          </mxGeometry>
        </mxCell>
        <mxCell id="8cJeTlkvCRH7ZC2_ET7F-7" value="GP10" style="shape=stencil(rZPBDoIwDIafZve5Ee8G9T3KqLIwNjKmyNs7qDESmAdCwqX/R7+ypTCZdxW0yAS30CCTZyaERwPD4agqsBZNDCKtCGVU9bMKuhZVoOgJXkNhkEgXvKux12X49GtboddhpPLC+Cm+Mz4yVy7OUkE7283ID48y0Db28hfJBA0ZqOJUtdHfYEBP6YFSJq4btdleWj7Tir202XatzGOSuniZF6Dqu3cPWy67kuzmPK6AL9bG0FL8OaYftylxb3xtAefLmdIm504nWnz4lNLPMQVv);whiteSpace=wrap;html=1;points=[[0,0.5,0,0,0],[0.5,0,0,0,0],[0.5,1,0,0,0],[1,0.5,0,0,0]];" parent="1" vertex="1">
          <mxGeometry x="330" y="160" width="40" height="40" as="geometry" />
        </mxCell>
        <mxCell id="8cJeTlkvCRH7ZC2_ET7F-9" style="edgeStyle=orthogonalEdgeStyle;shape=connector;rounded=0;orthogonalLoop=1;jettySize=auto;html=1;exitX=0.5;exitY=1;exitDx=0;exitDy=0;exitPerimeter=0;entryX=0;entryY=0.5;entryDx=0;entryDy=0;strokeColor=default;align=center;verticalAlign=middle;fontFamily=Helvetica;fontSize=11;fontColor=default;labelBackgroundColor=default;endArrow=none;endFill=0;" parent="1" source="8cJeTlkvCRH7ZC2_ET7F-8" target="vi9AejaFBc3eNM1fVHRH-80" edge="1">
          <mxGeometry relative="1" as="geometry">
            <Array as="points">
              <mxPoint x="410" y="850" />
              <mxPoint x="699" y="850" />
            </Array>
          </mxGeometry>
        </mxCell>
        <mxCell id="8cJeTlkvCRH7ZC2_ET7F-8" value="GP25" style="shape=stencil(rZPBDoIwDIafZve5Ee8G9T3KqLIwNjKmyNs7qDESmAdCwqX/R7+ypTCZdxW0yAS30CCTZyaERwPD4agqsBZNDCKtCGVU9bMKuhZVoOgJXkNhkEgXvKux12X49GtboddhpPLC+Cm+Mz4yVy7OUkE7283ID48y0Db28hfJBA0ZqOJUtdHfYEBP6YFSJq4btdleWj7Tir202XatzGOSuniZF6Dqu3cPWy67kuzmPK6AL9bG0FL8OaYftylxb3xtAefLmdIm504nWnz4lNLPMQVv);whiteSpace=wrap;html=1;points=[[0,0.5,0,0,0],[0.5,0,0,0,0],[0.5,1,0,0,0],[1,0.5,0,0,0]];" parent="1" vertex="1">
          <mxGeometry x="390" y="160" width="40" height="40" as="geometry" />
        </mxCell>
        <mxCell id="djXzOtQZecK_oDZqtTW9-35" style="edgeStyle=orthogonalEdgeStyle;rounded=0;orthogonalLoop=1;jettySize=auto;html=1;exitX=0.5;exitY=1;exitDx=0;exitDy=0;entryX=0.5;entryY=1;entryDx=0;entryDy=0;endArrow=none;endFill=0;" edge="1" parent="1" source="8cJeTlkvCRH7ZC2_ET7F-16" target="vi9AejaFBc3eNM1fVHRH-18">
          <mxGeometry relative="1" as="geometry">
            <Array as="points">
              <mxPoint x="730" y="1670" />
              <mxPoint x="770" y="1670" />
            </Array>
          </mxGeometry>
        </mxCell>
        <mxCell id="8cJeTlkvCRH7ZC2_ET7F-16" value="PUMP2" style="ellipse;whiteSpace=wrap;html=1;aspect=fixed;fontFamily=Helvetica;fontSize=11;fontColor=default;labelBackgroundColor=default;flipH=1;flipV=1;" parent="1" vertex="1">
          <mxGeometry x="700" y="1570" width="60" height="60" as="geometry" />
        </mxCell>
        <mxCell id="8cJeTlkvCRH7ZC2_ET7F-22" value="Raspberry Pi Connector" style="text;strokeColor=none;align=center;fillColor=none;html=1;verticalAlign=middle;whiteSpace=wrap;rounded=0;fontFamily=Helvetica;fontSize=11;fontColor=default;labelBackgroundColor=default;" parent="1" vertex="1">
          <mxGeometry x="530" y="-70" width="90" height="30" as="geometry" />
        </mxCell>
        <mxCell id="djXzOtQZecK_oDZqtTW9-7" value="GP24" style="text;html=1;align=center;verticalAlign=middle;whiteSpace=wrap;rounded=0;" vertex="1" parent="1">
          <mxGeometry x="180" y="385" width="60" height="30" as="geometry" />
        </mxCell>
        <mxCell id="djXzOtQZecK_oDZqtTW9-8" value="GP23" style="text;html=1;align=center;verticalAlign=middle;whiteSpace=wrap;rounded=0;" vertex="1" parent="1">
          <mxGeometry x="180" y="455" width="60" height="30" as="geometry" />
        </mxCell>
        <mxCell id="djXzOtQZecK_oDZqtTW9-9" value="GP18" style="text;html=1;align=center;verticalAlign=middle;whiteSpace=wrap;rounded=0;" vertex="1" parent="1">
          <mxGeometry x="180" y="525" width="60" height="30" as="geometry" />
        </mxCell>
        <mxCell id="djXzOtQZecK_oDZqtTW9-11" value="3V3 A" style="text;html=1;align=center;verticalAlign=middle;whiteSpace=wrap;rounded=0;" vertex="1" parent="1">
          <mxGeometry x="180" y="315" width="60" height="30" as="geometry" />
        </mxCell>
        <mxCell id="djXzOtQZecK_oDZqtTW9-12" value="GND A" style="text;html=1;align=center;verticalAlign=middle;whiteSpace=wrap;rounded=0;" vertex="1" parent="1">
          <mxGeometry x="180" y="665" width="60" height="30" as="geometry" />
        </mxCell>
        <mxCell id="djXzOtQZecK_oDZqtTW9-13" value="&lt;font style=&quot;font-size: 18px;&quot;&gt;FAN&lt;/font&gt;" style="shape=mxgraph.electrical.electro-mechanical.motor_2;html=1;shadow=0;dashed=0;align=center;fontSize=30;strokeWidth=1;fontFamily=Helvetica;fontColor=default;labelBackgroundColor=default;direction=south;" vertex="1" parent="1">
          <mxGeometry x="560" y="1550" width="60" height="100" as="geometry" />
        </mxCell>
        <mxCell id="djXzOtQZecK_oDZqtTW9-14" style="edgeStyle=orthogonalEdgeStyle;rounded=0;orthogonalLoop=1;jettySize=auto;html=1;exitX=0.5;exitY=1;exitDx=0;exitDy=0;endArrow=none;endFill=0;" edge="1" parent="1" source="vi9AejaFBc3eNM1fVHRH-11" target="8Se8d8TxG7XIVdDQDwcc-107">
          <mxGeometry relative="1" as="geometry" />
        </mxCell>
        <mxCell id="djXzOtQZecK_oDZqtTW9-15" style="edgeStyle=orthogonalEdgeStyle;rounded=0;orthogonalLoop=1;jettySize=auto;html=1;exitX=0.5;exitY=1;exitDx=0;exitDy=0;entryX=0;entryY=0.5;entryDx=0;entryDy=0;entryPerimeter=0;endArrow=none;endFill=0;" edge="1" parent="1" source="vi9AejaFBc3eNM1fVHRH-14" target="djXzOtQZecK_oDZqtTW9-13">
          <mxGeometry relative="1" as="geometry" />
        </mxCell>
        <mxCell id="djXzOtQZecK_oDZqtTW9-16" style="edgeStyle=orthogonalEdgeStyle;rounded=0;orthogonalLoop=1;jettySize=auto;html=1;exitX=0.5;exitY=1;exitDx=0;exitDy=0;entryX=0.5;entryY=0;entryDx=0;entryDy=0;endArrow=none;endFill=0;" edge="1" parent="1" source="vi9AejaFBc3eNM1fVHRH-17" target="8cJeTlkvCRH7ZC2_ET7F-16">
          <mxGeometry relative="1" as="geometry" />
        </mxCell>
        <mxCell id="djXzOtQZecK_oDZqtTW9-17" style="edgeStyle=orthogonalEdgeStyle;rounded=0;orthogonalLoop=1;jettySize=auto;html=1;exitX=0.5;exitY=1;exitDx=0;exitDy=0;entryX=0.5;entryY=0;entryDx=0;entryDy=0;endArrow=none;endFill=0;" edge="1" parent="1" source="vi9AejaFBc3eNM1fVHRH-20" target="8Se8d8TxG7XIVdDQDwcc-85">
          <mxGeometry relative="1" as="geometry" />
        </mxCell>
        <mxCell id="djXzOtQZecK_oDZqtTW9-51" style="edgeStyle=orthogonalEdgeStyle;rounded=0;orthogonalLoop=1;jettySize=auto;html=1;exitX=0.25;exitY=1;exitDx=0;exitDy=0;" edge="1" parent="1" source="djXzOtQZecK_oDZqtTW9-18">
          <mxGeometry relative="1" as="geometry">
            <mxPoint x="980" y="1690" as="targetPoint" />
          </mxGeometry>
        </mxCell>
        <mxCell id="djXzOtQZecK_oDZqtTW9-18" value="SOCKET" style="rounded=1;whiteSpace=wrap;html=1;" vertex="1" parent="1">
          <mxGeometry x="950" y="1570" width="120" height="60" as="geometry" />
        </mxCell>
        <mxCell id="djXzOtQZecK_oDZqtTW9-20" value="SOCKET" style="rounded=1;whiteSpace=wrap;html=1;" vertex="1" parent="1">
          <mxGeometry x="1090" y="1570" width="120" height="60" as="geometry" />
        </mxCell>
        <mxCell id="djXzOtQZecK_oDZqtTW9-21" value="SOCKET" style="rounded=1;whiteSpace=wrap;html=1;" vertex="1" parent="1">
          <mxGeometry x="1230" y="1570" width="120" height="60" as="geometry" />
        </mxCell>
        <mxCell id="djXzOtQZecK_oDZqtTW9-22" style="edgeStyle=orthogonalEdgeStyle;rounded=0;orthogonalLoop=1;jettySize=auto;html=1;exitX=0.5;exitY=1;exitDx=0;exitDy=0;entryX=0.5;entryY=0;entryDx=0;entryDy=0;endArrow=none;endFill=0;" edge="1" parent="1" source="vi9AejaFBc3eNM1fVHRH-26" target="djXzOtQZecK_oDZqtTW9-20">
          <mxGeometry relative="1" as="geometry" />
        </mxCell>
        <mxCell id="djXzOtQZecK_oDZqtTW9-23" style="edgeStyle=orthogonalEdgeStyle;rounded=0;orthogonalLoop=1;jettySize=auto;html=1;exitX=0.5;exitY=1;exitDx=0;exitDy=0;entryX=0.5;entryY=0;entryDx=0;entryDy=0;endArrow=none;endFill=0;" edge="1" parent="1" source="vi9AejaFBc3eNM1fVHRH-23" target="djXzOtQZecK_oDZqtTW9-18">
          <mxGeometry relative="1" as="geometry" />
        </mxCell>
        <mxCell id="djXzOtQZecK_oDZqtTW9-24" style="edgeStyle=orthogonalEdgeStyle;rounded=0;orthogonalLoop=1;jettySize=auto;html=1;exitX=0.5;exitY=1;exitDx=0;exitDy=0;endArrow=none;endFill=0;" edge="1" parent="1" source="vi9AejaFBc3eNM1fVHRH-29" target="djXzOtQZecK_oDZqtTW9-21">
          <mxGeometry relative="1" as="geometry" />
        </mxCell>
        <mxCell id="djXzOtQZecK_oDZqtTW9-27" style="edgeStyle=orthogonalEdgeStyle;rounded=0;orthogonalLoop=1;jettySize=auto;html=1;exitX=0.5;exitY=0;exitDx=0;exitDy=0;entryX=0.5;entryY=1;entryDx=0;entryDy=0;" edge="1" parent="1" source="djXzOtQZecK_oDZqtTW9-25" target="vi9AejaFBc3eNM1fVHRH-12">
          <mxGeometry relative="1" as="geometry" />
        </mxCell>
        <mxCell id="djXzOtQZecK_oDZqtTW9-25" value="+12V" style="text;html=1;align=center;verticalAlign=middle;whiteSpace=wrap;rounded=0;" vertex="1" parent="1">
          <mxGeometry x="460" y="1360" width="60" height="30" as="geometry" />
        </mxCell>
        <mxCell id="djXzOtQZecK_oDZqtTW9-28" style="edgeStyle=orthogonalEdgeStyle;rounded=0;orthogonalLoop=1;jettySize=auto;html=1;exitX=0.5;exitY=0;exitDx=0;exitDy=0;entryX=0.5;entryY=1;entryDx=0;entryDy=0;" edge="1" parent="1" source="djXzOtQZecK_oDZqtTW9-26" target="vi9AejaFBc3eNM1fVHRH-15">
          <mxGeometry relative="1" as="geometry" />
        </mxCell>
        <mxCell id="djXzOtQZecK_oDZqtTW9-26" value="+5V" style="text;html=1;align=center;verticalAlign=middle;whiteSpace=wrap;rounded=0;" vertex="1" parent="1">
          <mxGeometry x="600" y="1360" width="60" height="30" as="geometry" />
        </mxCell>
        <mxCell id="djXzOtQZecK_oDZqtTW9-31" style="edgeStyle=orthogonalEdgeStyle;rounded=0;orthogonalLoop=1;jettySize=auto;html=1;exitX=0.5;exitY=0;exitDx=0;exitDy=0;entryX=0.5;entryY=1;entryDx=0;entryDy=0;" edge="1" parent="1" source="djXzOtQZecK_oDZqtTW9-29" target="vi9AejaFBc3eNM1fVHRH-16">
          <mxGeometry relative="1" as="geometry" />
        </mxCell>
        <mxCell id="djXzOtQZecK_oDZqtTW9-29" value="+5V" style="text;html=1;align=center;verticalAlign=middle;whiteSpace=wrap;rounded=0;" vertex="1" parent="1">
          <mxGeometry x="660" y="1360" width="60" height="30" as="geometry" />
        </mxCell>
        <mxCell id="djXzOtQZecK_oDZqtTW9-32" style="edgeStyle=orthogonalEdgeStyle;rounded=0;orthogonalLoop=1;jettySize=auto;html=1;exitX=0.5;exitY=0;exitDx=0;exitDy=0;entryX=0.5;entryY=1;entryDx=0;entryDy=0;" edge="1" parent="1" source="djXzOtQZecK_oDZqtTW9-30" target="vi9AejaFBc3eNM1fVHRH-19">
          <mxGeometry relative="1" as="geometry" />
        </mxCell>
        <mxCell id="djXzOtQZecK_oDZqtTW9-30" value="+5V" style="text;html=1;align=center;verticalAlign=middle;whiteSpace=wrap;rounded=0;" vertex="1" parent="1">
          <mxGeometry x="800" y="1360" width="60" height="30" as="geometry" />
        </mxCell>
        <mxCell id="djXzOtQZecK_oDZqtTW9-33" style="edgeStyle=orthogonalEdgeStyle;rounded=0;orthogonalLoop=1;jettySize=auto;html=1;exitX=0.5;exitY=1;exitDx=0;exitDy=0;entryX=1;entryY=0.5;entryDx=0;entryDy=0;entryPerimeter=0;endArrow=none;endFill=0;" edge="1" parent="1" source="vi9AejaFBc3eNM1fVHRH-10" target="8Se8d8TxG7XIVdDQDwcc-107">
          <mxGeometry relative="1" as="geometry">
            <Array as="points">
              <mxPoint x="410" y="1670" />
              <mxPoint x="450" y="1670" />
            </Array>
          </mxGeometry>
        </mxCell>
        <mxCell id="djXzOtQZecK_oDZqtTW9-34" style="edgeStyle=orthogonalEdgeStyle;rounded=0;orthogonalLoop=1;jettySize=auto;html=1;exitX=0.5;exitY=1;exitDx=0;exitDy=0;entryX=1;entryY=0.5;entryDx=0;entryDy=0;entryPerimeter=0;endArrow=none;endFill=0;" edge="1" parent="1" source="vi9AejaFBc3eNM1fVHRH-13" target="djXzOtQZecK_oDZqtTW9-13">
          <mxGeometry relative="1" as="geometry">
            <Array as="points">
              <mxPoint x="550" y="1670" />
              <mxPoint x="590" y="1670" />
            </Array>
          </mxGeometry>
        </mxCell>
        <mxCell id="djXzOtQZecK_oDZqtTW9-37" value="GND" style="text;html=1;align=center;verticalAlign=middle;whiteSpace=wrap;rounded=0;" vertex="1" parent="1">
          <mxGeometry x="350" y="1410" width="60" height="30" as="geometry" />
        </mxCell>
        <mxCell id="djXzOtQZecK_oDZqtTW9-38" style="rounded=0;orthogonalLoop=1;jettySize=auto;html=1;exitX=0.5;exitY=1;exitDx=0;exitDy=0;entryX=0.5;entryY=0;entryDx=0;entryDy=0;" edge="1" parent="1" source="vi9AejaFBc3eNM1fVHRH-10" target="djXzOtQZecK_oDZqtTW9-37">
          <mxGeometry relative="1" as="geometry" />
        </mxCell>
        <mxCell id="djXzOtQZecK_oDZqtTW9-39" value="GND" style="text;html=1;align=center;verticalAlign=middle;whiteSpace=wrap;rounded=0;" vertex="1" parent="1">
          <mxGeometry x="490" y="1410" width="60" height="30" as="geometry" />
        </mxCell>
        <mxCell id="djXzOtQZecK_oDZqtTW9-40" style="rounded=0;orthogonalLoop=1;jettySize=auto;html=1;exitX=0.5;exitY=1;exitDx=0;exitDy=0;entryX=0.5;entryY=0;entryDx=0;entryDy=0;" edge="1" parent="1" target="djXzOtQZecK_oDZqtTW9-39">
          <mxGeometry relative="1" as="geometry">
            <mxPoint x="550" y="1320" as="sourcePoint" />
          </mxGeometry>
        </mxCell>
        <mxCell id="djXzOtQZecK_oDZqtTW9-41" value="GND" style="text;html=1;align=center;verticalAlign=middle;whiteSpace=wrap;rounded=0;" vertex="1" parent="1">
          <mxGeometry x="769" y="1410" width="60" height="30" as="geometry" />
        </mxCell>
        <mxCell id="djXzOtQZecK_oDZqtTW9-42" style="rounded=0;orthogonalLoop=1;jettySize=auto;html=1;exitX=0.5;exitY=1;exitDx=0;exitDy=0;entryX=0.5;entryY=0;entryDx=0;entryDy=0;" edge="1" parent="1" target="djXzOtQZecK_oDZqtTW9-41">
          <mxGeometry relative="1" as="geometry">
            <mxPoint x="769" y="1320" as="sourcePoint" />
          </mxGeometry>
        </mxCell>
        <mxCell id="djXzOtQZecK_oDZqtTW9-43" value="GND" style="text;html=1;align=center;verticalAlign=middle;whiteSpace=wrap;rounded=0;" vertex="1" parent="1">
          <mxGeometry x="909" y="1410" width="60" height="30" as="geometry" />
        </mxCell>
        <mxCell id="djXzOtQZecK_oDZqtTW9-44" style="rounded=0;orthogonalLoop=1;jettySize=auto;html=1;exitX=0.5;exitY=1;exitDx=0;exitDy=0;entryX=0.5;entryY=0;entryDx=0;entryDy=0;" edge="1" parent="1">
          <mxGeometry relative="1" as="geometry">
            <mxPoint x="910" y="1320" as="sourcePoint" />
            <mxPoint x="940" y="1410" as="targetPoint" />
          </mxGeometry>
        </mxCell>
        <mxCell id="djXzOtQZecK_oDZqtTW9-46" value="L" style="text;html=1;align=center;verticalAlign=middle;whiteSpace=wrap;rounded=0;" vertex="1" parent="1">
          <mxGeometry x="940" y="1365" width="60" height="30" as="geometry" />
        </mxCell>
        <mxCell id="djXzOtQZecK_oDZqtTW9-45" style="edgeStyle=orthogonalEdgeStyle;rounded=0;orthogonalLoop=1;jettySize=auto;html=1;exitX=0.5;exitY=1;exitDx=0;exitDy=0;" edge="1" parent="1" source="vi9AejaFBc3eNM1fVHRH-22" target="djXzOtQZecK_oDZqtTW9-46">
          <mxGeometry relative="1" as="geometry">
            <mxPoint x="970" y="1380" as="targetPoint" />
          </mxGeometry>
        </mxCell>
        <mxCell id="djXzOtQZecK_oDZqtTW9-47" value="L" style="text;html=1;align=center;verticalAlign=middle;whiteSpace=wrap;rounded=0;" vertex="1" parent="1">
          <mxGeometry x="1079" y="1365" width="60" height="30" as="geometry" />
        </mxCell>
        <mxCell id="djXzOtQZecK_oDZqtTW9-48" style="edgeStyle=orthogonalEdgeStyle;rounded=0;orthogonalLoop=1;jettySize=auto;html=1;exitX=0.5;exitY=1;exitDx=0;exitDy=0;" edge="1" parent="1" target="djXzOtQZecK_oDZqtTW9-47">
          <mxGeometry relative="1" as="geometry">
            <mxPoint x="1109" y="1380" as="targetPoint" />
            <mxPoint x="1109" y="1320" as="sourcePoint" />
          </mxGeometry>
        </mxCell>
        <mxCell id="djXzOtQZecK_oDZqtTW9-49" value="L" style="text;html=1;align=center;verticalAlign=middle;whiteSpace=wrap;rounded=0;" vertex="1" parent="1">
          <mxGeometry x="1220" y="1365" width="60" height="30" as="geometry" />
        </mxCell>
        <mxCell id="djXzOtQZecK_oDZqtTW9-50" style="edgeStyle=orthogonalEdgeStyle;rounded=0;orthogonalLoop=1;jettySize=auto;html=1;exitX=0.5;exitY=1;exitDx=0;exitDy=0;" edge="1" parent="1" target="djXzOtQZecK_oDZqtTW9-49">
          <mxGeometry relative="1" as="geometry">
            <mxPoint x="1250" y="1380" as="targetPoint" />
            <mxPoint x="1250" y="1320" as="sourcePoint" />
          </mxGeometry>
        </mxCell>
        <mxCell id="djXzOtQZecK_oDZqtTW9-52" value="N" style="text;html=1;align=center;verticalAlign=middle;whiteSpace=wrap;rounded=0;" vertex="1" parent="1">
          <mxGeometry x="949" y="1690" width="60" height="30" as="geometry" />
        </mxCell>
        <mxCell id="djXzOtQZecK_oDZqtTW9-57" style="edgeStyle=orthogonalEdgeStyle;rounded=0;orthogonalLoop=1;jettySize=auto;html=1;exitX=0.25;exitY=1;exitDx=0;exitDy=0;" edge="1" parent="1">
          <mxGeometry relative="1" as="geometry">
            <mxPoint x="1121" y="1690" as="targetPoint" />
            <mxPoint x="1121" y="1630" as="sourcePoint" />
          </mxGeometry>
        </mxCell>
        <mxCell id="djXzOtQZecK_oDZqtTW9-58" value="N" style="text;html=1;align=center;verticalAlign=middle;whiteSpace=wrap;rounded=0;" vertex="1" parent="1">
          <mxGeometry x="1090" y="1690" width="60" height="30" as="geometry" />
        </mxCell>
        <mxCell id="djXzOtQZecK_oDZqtTW9-59" style="edgeStyle=orthogonalEdgeStyle;rounded=0;orthogonalLoop=1;jettySize=auto;html=1;exitX=0.25;exitY=1;exitDx=0;exitDy=0;" edge="1" parent="1">
          <mxGeometry relative="1" as="geometry">
            <mxPoint x="1261" y="1690" as="targetPoint" />
            <mxPoint x="1261" y="1630" as="sourcePoint" />
          </mxGeometry>
        </mxCell>
        <mxCell id="djXzOtQZecK_oDZqtTW9-60" value="N" style="text;html=1;align=center;verticalAlign=middle;whiteSpace=wrap;rounded=0;" vertex="1" parent="1">
          <mxGeometry x="1230" y="1690" width="60" height="30" as="geometry" />
        </mxCell>
        <mxCell id="djXzOtQZecK_oDZqtTW9-62" style="edgeStyle=orthogonalEdgeStyle;rounded=0;orthogonalLoop=1;jettySize=auto;html=1;exitX=0.75;exitY=1;exitDx=0;exitDy=0;entryX=0.5;entryY=0;entryDx=0;entryDy=0;entryPerimeter=0;endArrow=none;endFill=0;" edge="1" parent="1" source="djXzOtQZecK_oDZqtTW9-20" target="djXzOtQZecK_oDZqtTW9-65">
          <mxGeometry relative="1" as="geometry">
            <mxPoint x="1179.2999999999997" y="1680" as="targetPoint" />
          </mxGeometry>
        </mxCell>
        <mxCell id="djXzOtQZecK_oDZqtTW9-63" value="" style="pointerEvents=1;verticalLabelPosition=bottom;shadow=0;dashed=0;align=center;html=1;verticalAlign=top;shape=mxgraph.electrical.signal_sources.protective_earth;" vertex="1" parent="1">
          <mxGeometry x="1310" y="1680" width="25" height="20" as="geometry" />
        </mxCell>
        <mxCell id="djXzOtQZecK_oDZqtTW9-64" style="edgeStyle=orthogonalEdgeStyle;rounded=0;orthogonalLoop=1;jettySize=auto;html=1;exitX=0.75;exitY=1;exitDx=0;exitDy=0;entryX=0.5;entryY=0;entryDx=0;entryDy=0;entryPerimeter=0;endArrow=none;endFill=0;" edge="1" parent="1" source="djXzOtQZecK_oDZqtTW9-21" target="djXzOtQZecK_oDZqtTW9-63">
          <mxGeometry relative="1" as="geometry" />
        </mxCell>
        <mxCell id="djXzOtQZecK_oDZqtTW9-65" value="" style="pointerEvents=1;verticalLabelPosition=bottom;shadow=0;dashed=0;align=center;html=1;verticalAlign=top;shape=mxgraph.electrical.signal_sources.protective_earth;" vertex="1" parent="1">
          <mxGeometry x="1169" y="1680" width="25" height="20" as="geometry" />
        </mxCell>
        <mxCell id="djXzOtQZecK_oDZqtTW9-66" style="edgeStyle=orthogonalEdgeStyle;rounded=0;orthogonalLoop=1;jettySize=auto;html=1;exitX=0.75;exitY=1;exitDx=0;exitDy=0;entryX=0.5;entryY=0;entryDx=0;entryDy=0;entryPerimeter=0;endArrow=none;endFill=0;" edge="1" parent="1" target="djXzOtQZecK_oDZqtTW9-67" source="djXzOtQZecK_oDZqtTW9-18">
          <mxGeometry relative="1" as="geometry">
            <mxPoint x="1190" y="1640" as="sourcePoint" />
            <mxPoint x="1189.2999999999997" y="1690" as="targetPoint" />
          </mxGeometry>
        </mxCell>
        <mxCell id="djXzOtQZecK_oDZqtTW9-67" value="" style="pointerEvents=1;verticalLabelPosition=bottom;shadow=0;dashed=0;align=center;html=1;verticalAlign=top;shape=mxgraph.electrical.signal_sources.protective_earth;" vertex="1" parent="1">
          <mxGeometry x="1027.5" y="1680" width="25" height="20" as="geometry" />
        </mxCell>
        <mxCell id="djXzOtQZecK_oDZqtTW9-78" style="rounded=0;orthogonalLoop=1;jettySize=auto;html=1;exitX=0.965;exitY=0.32;exitDx=0;exitDy=0;exitPerimeter=0;entryX=0;entryY=0.5;entryDx=0;entryDy=0;endArrow=none;endFill=0;" edge="1" parent="1" source="djXzOtQZecK_oDZqtTW9-69" target="djXzOtQZecK_oDZqtTW9-76">
          <mxGeometry relative="1" as="geometry" />
        </mxCell>
        <mxCell id="djXzOtQZecK_oDZqtTW9-80" style="rounded=0;orthogonalLoop=1;jettySize=auto;html=1;exitX=0.035;exitY=0.32;exitDx=0;exitDy=0;exitPerimeter=0;entryX=1;entryY=0.5;entryDx=0;entryDy=0;endArrow=none;endFill=0;" edge="1" parent="1" source="djXzOtQZecK_oDZqtTW9-69" target="djXzOtQZecK_oDZqtTW9-79">
          <mxGeometry relative="1" as="geometry" />
        </mxCell>
        <mxCell id="djXzOtQZecK_oDZqtTW9-69" value="" style="pointerEvents=1;verticalLabelPosition=bottom;shadow=0;dashed=0;align=center;html=1;verticalAlign=top;shape=mxgraph.electrical.miscellaneous.f_m_3_conductor_3" vertex="1" parent="1">
          <mxGeometry x="-10" y="1440" width="100" height="100" as="geometry" />
        </mxCell>
        <mxCell id="djXzOtQZecK_oDZqtTW9-70" value="" style="pointerEvents=1;verticalLabelPosition=bottom;shadow=0;dashed=0;align=center;html=1;verticalAlign=top;shape=mxgraph.electrical.signal_sources.protective_earth;" vertex="1" parent="1">
          <mxGeometry x="27.5" y="1560" width="25" height="20" as="geometry" />
        </mxCell>
        <mxCell id="djXzOtQZecK_oDZqtTW9-71" value="+12V" style="shape=mxgraph.arrows2.arrow;verticalLabelPosition=bottom;shadow=0;dashed=0;align=center;html=1;verticalAlign=top;strokeWidth=1;dy=0;dx=10;notch=6.88;" vertex="1" parent="1">
          <mxGeometry x="-10" y="1330" width="100" height="30" as="geometry" />
        </mxCell>
        <mxCell id="djXzOtQZecK_oDZqtTW9-73" value="+5V" style="shape=mxgraph.arrows2.arrow;verticalLabelPosition=bottom;shadow=0;dashed=0;align=center;html=1;verticalAlign=top;strokeWidth=1;dy=0;dx=10;notch=0;" vertex="1" parent="1">
          <mxGeometry x="-10" y="1270" width="100" height="30" as="geometry" />
        </mxCell>
        <mxCell id="djXzOtQZecK_oDZqtTW9-74" value="GND" style="shape=mxgraph.arrows2.arrow;verticalLabelPosition=bottom;shadow=0;dashed=0;align=center;html=1;verticalAlign=top;strokeWidth=1;dy=0;dx=10;notch=0;" vertex="1" parent="1">
          <mxGeometry x="-10" y="1210" width="100" height="30" as="geometry" />
        </mxCell>
        <mxCell id="djXzOtQZecK_oDZqtTW9-75" style="edgeStyle=orthogonalEdgeStyle;rounded=0;orthogonalLoop=1;jettySize=auto;html=1;exitX=0.5;exitY=1;exitDx=0;exitDy=0;exitPerimeter=0;entryX=0.5;entryY=0;entryDx=0;entryDy=0;entryPerimeter=0;endArrow=none;endFill=0;" edge="1" parent="1" source="djXzOtQZecK_oDZqtTW9-69" target="djXzOtQZecK_oDZqtTW9-70">
          <mxGeometry relative="1" as="geometry" />
        </mxCell>
        <mxCell id="djXzOtQZecK_oDZqtTW9-76" value="L" style="text;html=1;align=left;verticalAlign=middle;whiteSpace=wrap;rounded=0;" vertex="1" parent="1">
          <mxGeometry x="120" y="1460" width="60" height="30" as="geometry" />
        </mxCell>
        <mxCell id="djXzOtQZecK_oDZqtTW9-79" value="N" style="text;html=1;align=right;verticalAlign=middle;whiteSpace=wrap;rounded=0;" vertex="1" parent="1">
          <mxGeometry x="-100" y="1460" width="60" height="30" as="geometry" />
        </mxCell>
        <mxCell id="djXzOtQZecK_oDZqtTW9-81" value="230V" style="text;html=1;align=center;verticalAlign=middle;whiteSpace=wrap;rounded=0;" vertex="1" parent="1">
          <mxGeometry x="10" y="1410" width="60" height="30" as="geometry" />
        </mxCell>
      </root>
    </mxGraphModel>
  </diagram>
</mxfile>
